<?xml version="1.0" encoding="UTF-8"?>
<!DOCTYPE svg PUBLIC "-//W3C//DTD SVG 1.1//EN" "http://www.w3.org/Graphics/SVG/1.1/DTD/svg11.dtd">
<!-- Creator: CorelDRAW 2020 (64 Bit) -->
<svg xmlns="http://www.w3.org/2000/svg" xml:space="preserve" width="37.6744mm" height="37.6744mm" version="1.1" style="shape-rendering:geometricPrecision; text-rendering:geometricPrecision; image-rendering:optimizeQuality; fill-rule:evenodd; clip-rule:evenodd"
viewBox="0 0 2467.16 2467.16"
 xmlns:xlink="http://www.w3.org/1999/xlink"
 xmlns:xodm="http://www.corel.com/coreldraw/odm/2003">
 <defs>
  <style type="text/css">
   <![CDATA[
    .str0 {stroke:#009933;stroke-width:98.23;stroke-miterlimit:22.9256}
    .fil10 {fill:none}
    .fil8 {fill:#C83438}
    .fil7 {fill:#359850}
    .fil0 {fill:#009933}
    .fil9 {fill:black;fill-rule:nonzero}
    .fil2 {fill:#001D48;fill-rule:nonzero}
    .fil1 {fill:#CCCCCC;fill-rule:nonzero}
    .fil6 {fill:#E26B6D;fill-rule:nonzero}
    .fil5 {fill:#E29E77;fill-rule:nonzero}
    .fil4 {fill:#EDC1A8;fill-rule:nonzero}
    .fil3 {fill:white;fill-rule:nonzero}
   ]]>
  </style>
   <clipPath id="id0">
    <path d="M1233.58 49.11c654.16,0 1184.46,530.3 1184.46,1184.46 0,654.16 -530.3,1184.46 -1184.46,1184.46 -654.16,0 -1184.46,-530.3 -1184.46,-1184.46 0,-654.16 530.3,-1184.46 1184.46,-1184.46z"/>
   </clipPath>
    <clipPath id="id1">
     <path d="M1233.58 49.11c654.16,0 1184.46,530.3 1184.46,1184.46 0,415.34 -213.83,780.68 -537.35,992.13l-1294.23 0c-246.85,-161.34 -429.77,-412.3 -502.63,-706.67l0 -570.92c127.76,-516.25 594.02,-899 1149.75,-899z"/>
    </clipPath>
    <clipPath id="id2">
     <path d="M1233.58 49.11c654.16,0 1184.46,530.3 1184.46,1184.46 0,654.16 -530.3,1184.46 -1184.46,1184.46 -654.16,0 -1184.46,-530.3 -1184.46,-1184.46 0,-654.16 530.3,-1184.46 1184.46,-1184.46z"/>
    </clipPath>
 </defs>
 <g id="Camada_x0020_1">
  <metadata id="CorelCorpID_0Corel-Layer"/>
  <path class="fil0" d="M1233.58 49.11c654.16,0 1184.46,530.3 1184.46,1184.46 0,654.16 -530.3,1184.46 -1184.46,1184.46 -654.16,0 -1184.46,-530.3 -1184.46,-1184.46 0,-654.16 530.3,-1184.46 1184.46,-1184.46z"/>
  <g style="clip-path:url(#id0)">
   <g id="_2122392160640">
    <g>
     <path id="1" class="fil1" d="M778.81 2056.55l-147.06 985.14c-26.5,177.45 -201.68,292.21 -374.94,245.61l-966.56 -259.99 22.09 -234.5 904.86 79.47 83.32 -711.31c24.3,-207.3 151.64,-388.31 338.56,-481.23 150.8,-64.27 163.96,214.66 139.74,376.81z"/>
     <g>
      <g>
       <path class="fil2" d="M1620.5 2160.95c17.46,-5.56 34.96,-14.24 52.34,-24.71 -8.13,19.87 -23.94,30.73 -52.34,24.71z"/>
      </g>
      <g>
       <path class="fil2" d="M652.05 991.14c18.51,-103.54 17.44,-209.65 41.72,-312.84 23.23,-98.71 68.09,-183.15 117.83,-263.24 33.65,-54.18 79.06,-99.6 128.14,-129.05 37.07,-22.25 116.59,-56.44 154.68,-20.96l240.53 25.62c74.95,-22.54 169.01,23.33 234.07,73.16 94.77,72.57 138.65,180.13 190.32,299.98 41.98,97.35 51.23,192.83 42.97,302.79 -6.29,83.67 -38.32,150.97 -37.86,238.62 0.46,85.73 29.38,163.64 77.2,223.1 33.85,42.09 70.54,86.47 113.11,113.63 26.46,16.88 62.87,26.42 85.56,48.63 -47.39,15.94 -128.4,-23.21 -174.58,-41.35 -39.84,-15.66 -72.83,-51.15 -112.43,-65.47 12.1,55.85 38.75,93.79 43.35,157.02 6.84,94.03 -22.06,151.09 -68.78,222.38 -64.11,97.82 -151.98,158.16 -232.51,231.22 -47.02,42.69 -102.32,97.63 -159.05,131.8 22.38,-54.71 -15.1,-179.67 -21.26,-223.98 -6.64,-47.78 -27.38,-85.67 -28.78,-134.49 -1.13,-39.1 -1.36,-82.7 5.36,-119.96 -95.81,155.75 -246.41,354.98 -175.81,572.72 -63.33,-56.21 -121.36,-132.3 -177.45,-200.93 -57.15,-69.93 -121.71,-142.14 -171.61,-220.49 -88.77,-139.39 -131.63,-297.39 -138.41,-477.08 -5.51,-146.07 -1.66,-288.92 23.71,-430.84z"/>
      </g>
     </g>
     <path class="fil1" d="M1317.53 3711.4l-1001.35 19.52 295.76 -503.07c-65.01,-367.02 -135.18,-923.9 -149.02,-1265.78 -6.48,-160.35 102.79,-295.62 243.04,-301.32l954.42 -38.66c149.64,-6.06 -7.16,102.66 -16.77,273.56 -9.6,171.05 83.21,387.21 91.19,532.72 9.69,176.67 -91.19,115.18 -124.78,393.53 -6.07,50.27 -7.04,101.88 -5.59,153.05 6.08,213.35 54.12,423.41 133.24,621.65l42.21 105.78 -445.54 8.68c-1.11,1.08 -2.23,2.27 -3.33,3.35l-13.48 -3.03z"/>
     <g>
      <path class="fil3" d="M1624.56 2648.16c0.88,-5.28 4.43,-7.2 8.34,-7.77 55.28,-91.71 110.67,-189.71 80.74,-300.6 -20.58,-76.24 -68.43,-139.61 -85.04,-217.76 -3.2,-15.01 19.84,-21.42 23.04,-6.36 21.07,99.02 93.65,182.97 95.49,286.62 1.64,92.75 -50.58,179.02 -96.7,255.4 -0.98,1.63 -2.51,1.83 -3.8,2.72 -35.83,215.23 -65,432.19 35.32,635.29 6.8,13.75 -13.82,25.88 -20.65,12.07 -103.97,-210.47 -74.12,-435.9 -36.76,-659.62z"/>
     </g>
     <g>
      <path class="fil4" d="M1293.12 1854.59l-160.13 322.49 -124.29 -377.86c-15.81,-47.86 -22.85,-98.1 -20.61,-148.58l2.13 -52.88 -0.29 -8.97 -2.76 -170.73 350.93 -48.81 -0.92 141.12c-0.18,25.64 -0.6,52.23 -2.24,78.19 -0.07,6.15 0.67,35.07 1.64,67.47 0.35,7.27 0.29,14.78 -0.32,21.82 -1.05,61.35 -15.84,121.55 -43.14,176.73z"/>
      <path class="fil5" d="M1336.26 1677.85c-55.94,10.84 -115.28,9.95 -174.31,-3.9 -65.52,-15.36 -123.91,-45.13 -172.02,-85.16l-2.76 -170.73 350.93 -48.81 -0.92 141.12c-0.18,25.64 -0.6,52.23 -2.24,78.19 -0.07,6.15 0.67,35.07 1.64,67.47 0.35,7.27 0.29,14.78 -0.32,21.82z"/>
      <path class="fil4" d="M693.31 704.23c20.56,1.21 42.54,12.09 63.2,28.81 49.79,-132.18 142.89,-266.99 246.08,-353.99 44.45,-44.19 91.86,-70.3 141.21,-82.94 26.95,-8.59 53.62,-13.12 79.42,-11.62 17.71,1.05 35.07,2.97 52.1,5.68 17.11,2.25 34.28,5.38 51.55,9.47 25.16,5.91 49.4,17.9 72.77,33.84 43.67,26.23 81.65,64.79 111.58,119.83 73.98,112.88 124.65,268.69 134.55,409.59 24.59,-10.11 48.78,-14.23 68.81,-9.52 67.14,15.84 73.59,126.82 42.95,205.75 -38.83,100.09 -121.76,121.11 -197.26,131.16 -43.22,63.65 -100.02,123.9 -162.44,172.1 -66.53,58.56 -147,97.46 -233.48,105.52 -2.55,0.28 -5.09,0.46 -7.66,0.66 -5.01,0.36 -9.93,1.16 -14.98,1.32 -3.41,0.09 -6.78,-0.43 -10.18,-0.48 -2.86,-0.05 -5.7,-0.26 -8.55,-0.41 -6.54,-0.39 -13.07,-0.93 -19.58,-1.93 -6.54,-0.92 -12.94,-2.27 -19.33,-3.75 -2.77,-0.68 -5.53,-1.29 -8.3,-2.06 -3.26,-0.9 -6.65,-1.39 -9.88,-2.46 -4.79,-1.59 -9.3,-3.76 -14,-5.55 -2.36,-0.92 -4.76,-1.82 -7.13,-2.82 -80.57,-32.46 -146.59,-92.78 -193.58,-167.97 -46.02,-64.02 -83.19,-137.97 -106.38,-211.3 -69.48,-31.21 -142.92,-75.08 -151.52,-182.1 -6.77,-84.39 31.18,-188.9 100.02,-184.87z"/>
      <g>
       <g>
        <g>
         <path class="fil2" d="M1178.22 1247.17c49.94,-7.94 107.12,-35.24 140.73,-111.25 2.73,-6.25 -0.09,-13.54 -6.34,-16.33 -6.17,-2.76 -13.52,0.03 -16.33,6.33 -60.07,135.73 -202.71,94.39 -208.82,92.58 -6.54,-2.02 -13.42,1.73 -15.44,8.26 -2,6.55 1.71,13.44 8.25,15.44 0.84,0.28 45.41,13.34 97.95,4.98z"/>
        </g>
       </g>
       <g>
        <g>
         <path class="fil2" d="M1379.53 975.39c-4.94,22.79 -27.27,37.31 -49.93,32.41 -22.65,-4.9 -37.03,-27.35 -32.09,-50.14 4.89,-22.79 27.26,-37.3 49.93,-32.4 22.65,4.89 37.03,27.32 32.09,50.12z"/>
        </g>
       </g>
       <g>
        <g>
         <path class="fil2" d="M1042.79 926.2c-4.92,22.79 -27.27,37.3 -49.93,32.42 -22.65,-4.91 -37.03,-27.34 -32.1,-50.13 4.9,-22.81 27.28,-37.31 49.94,-32.41 22.65,4.89 37.03,27.33 32.09,50.12z"/>
        </g>
       </g>
       <g>
        <g>
         <path class="fil2" d="M1445.54 878.05c0.45,-0.08 0.88,-0.19 1.32,-0.31 6.61,-1.79 10.52,-8.6 8.72,-15.19 -21.49,-78.77 -88.83,-85.91 -121.63,-79.07 -6.66,1.45 -10.88,8.02 -9.46,14.68 1.39,6.71 7.27,10.98 14.68,9.55 2.3,-0.5 71.86,-14.2 92.45,61.33 1.7,6.16 7.74,9.99 13.92,9z"/>
        </g>
       </g>
       <g>
        <g>
         <path class="fil2" d="M1082.76 776.54c0.29,-0.33 0.57,-0.7 0.83,-1.06 3.97,-5.59 2.67,-13.31 -2.92,-17.27 -66.59,-47.24 -123.15,-10.01 -144.17,16.11 -4.21,5.34 -3.31,13.1 2.02,17.34 5.33,4.29 12.57,3.88 17.41,-1.93 1.43,-1.85 46.48,-56.61 110.36,-11.3 5.22,3.69 12.31,2.79 16.47,-1.9z"/>
        </g>
       </g>
       <g>
        <path class="fil2" d="M1110.28 1110.99c6.56,0.96 12.61,-3.54 13.61,-10.08 0.97,-6.55 -3.5,-12.65 -10.02,-13.67 -0.24,-0.04 -22.84,-3.92 -26.84,-17 -1.87,-6.04 -1.93,-23.93 37.05,-60.23 4.85,-4.51 5.1,-12.1 0.59,-16.96 -4.5,-4.84 -12.1,-5.08 -16.99,-0.6 -36.5,34 -50.8,61.79 -43.61,84.94 8.61,27.69 44.63,33.39 46.17,33.62l0.04 0z"/>
       </g>
      </g>
     </g>
     <g>
      <path class="fil2" d="M1746.11 657.97c-7.88,-83.25 -47.15,-225.84 -144.2,-239.72l-17.41 23.63c-32.97,141.5 -18.01,325.29 65.12,449.7 48.9,-66.64 104.78,-146.26 96.49,-233.62z"/>
     </g>
     <path class="fil1" d="M2632.46 2589.2c57.98,68.45 79.64,154.52 68.16,235.92 -15.11,107.17 -94.72,194.27 -195.95,232.52l-918.97 264.57 -105.5 -109.77 751.53 -423.32 -479.81 -531.68c-139.84,-154.95 -210.98,-274.92 -157.57,-476.7l14.4 -58.6c27.14,-110.43 168.02,-143.55 241.51,-56.76l782.2 923.83z"/>
     <g>
      <path class="fil2" d="M1720.15 542.05c-19.41,-110.95 -81.35,-212.73 -185.73,-277.98 -131.74,-82.36 -312.2,-108.75 -463.85,-78.42 -225.32,45.07 -365.41,328.62 -318.24,546.95 5.99,27.75 10.33,53.91 10.94,73.49 72.27,-2.36 140.99,-63.5 194.15,-106.31 61.2,-49.28 135.19,-118.06 175.88,-185.64 -36.15,95.18 61.12,192.25 131.55,239.44 -43.86,-88.52 37.54,-174.58 107.78,-221.34 6.81,49.64 -5.42,87.82 20.67,137.23 15.72,29.73 34.03,58.31 54.32,84.77 61.76,80.53 101.06,178.91 102,281.39 45.58,-23.41 77.49,-101.43 101.21,-145.1 51.46,-94.79 86.79,-248.65 69.32,-348.5z"/>
     </g>
     <path class="fil6" d="M749.44 1053.9c0,27.52 -22.31,49.82 -49.82,49.82 -27.51,0 -49.82,-22.29 -49.82,-49.82 0,-27.51 22.3,-49.82 49.82,-49.82 27.5,0 49.82,22.3 49.82,49.82z"/>
     <path class="fil6" d="M1652.09 1191.39c0,27.51 -22.3,49.82 -49.82,49.82 -27.51,0 -49.82,-22.3 -49.82,-49.82 0,-27.51 22.3,-49.82 49.82,-49.82 27.51,0 49.82,22.3 49.82,49.82z"/>
     <g>
      <path class="fil3" d="M630.31 2631.36c-0.89,-5.28 -4.44,-7.19 -8.37,-7.77 -55.26,-91.72 -110.65,-189.71 -80.72,-300.6 20.57,-76.24 68.43,-139.62 85.05,-217.75 3.18,-15.02 -19.86,-21.43 -23.06,-6.37 -21.05,99.02 -93.65,182.98 -95.49,286.62 -1.63,92.75 50.58,179.02 96.7,255.4 0.98,1.63 2.51,1.82 3.8,2.73 35.83,215.23 65,432.19 -35.33,635.29 -6.8,13.75 13.82,25.87 20.65,12.06 103.97,-210.47 74.14,-435.92 36.77,-659.62z"/>
     </g>
     <g>
      <path class="fil7" d="M1290.72 2314.15c0,1.34 -1.11,2.46 -2.46,2.46l-19.42 0c-1.34,0 -2.46,-1.12 -2.46,-2.46l0 -19.42c0,-1.34 1.11,-2.46 2.46,-2.46l19.42 0c1.34,0 2.46,1.11 2.46,2.46l0 19.42z"/>
      <path class="fil7" d="M1261.48 2256.09c0,1.34 -1.12,2.46 -2.46,2.46l-19.42 0c-1.34,0 -2.46,-1.11 -2.46,-2.46l0 -19.65c0,-1.34 1.12,-2.46 2.46,-2.46l19.42 0c1.34,0 2.46,1.11 2.46,2.46l0 19.65z"/>
      <path class="fil7" d="M1290.72 2256.09c0,1.34 -1.11,2.46 -2.46,2.46l-19.42 0c-1.34,0 -2.46,-1.11 -2.46,-2.46l0 -19.65c0,-1.34 1.11,-2.46 2.46,-2.46l19.42 0c1.34,0 2.46,1.11 2.46,2.46l0 19.65z"/>
      <path class="fil7" d="M1232.45 2285.12c0,1.34 -1.11,2.46 -2.46,2.46l-19.42 0c-1.34,0 -2.46,-1.12 -2.46,-2.46l0 -19.65c0,-1.34 1.11,-2.46 2.46,-2.46l19.42 0c1.34,0 2.46,1.12 2.46,2.46l0 19.65z"/>
      <path class="fil7" d="M1261.48 2285.12c0,1.34 -1.12,2.46 -2.46,2.46l-19.42 0c-1.34,0 -2.46,-1.12 -2.46,-2.46l0 -19.65c0,-1.34 1.12,-2.46 2.46,-2.46l19.42 0c1.34,0 2.46,1.12 2.46,2.46l0 19.65z"/>
      <path class="fil7" d="M1232.45 2314.15c0,1.34 -1.11,2.46 -2.46,2.46l-19.42 0c-1.34,0 -2.46,-1.12 -2.46,-2.46l0 -19.42c0,-1.34 1.11,-2.46 2.46,-2.46l19.42 0c1.34,0 2.46,1.11 2.46,2.46l0 19.42z"/>
      <path class="fil7" d="M1261.48 2314.15c0,1.34 -1.12,2.46 -2.46,2.46l-19.42 0c-1.34,0 -2.46,-1.12 -2.46,-2.46l0 -19.42c0,-1.34 1.12,-2.46 2.46,-2.46l19.42 0c1.34,0 2.46,1.11 2.46,2.46l0 19.42z"/>
      <path class="fil7" d="M1232.45 2343.17c0,1.34 -1.11,2.46 -2.46,2.46l-19.42 0c-1.34,0 -2.46,-1.11 -2.46,-2.46l0 -19.42c0,-1.34 1.11,-2.46 2.46,-2.46l19.42 0c1.34,0 2.46,1.11 2.46,2.46l0 19.42z"/>
      <path class="fil7" d="M1261.48 2343.17c0,1.34 -1.12,2.46 -2.46,2.46l-19.42 0c-1.34,0 -2.46,-1.11 -2.46,-2.46l0 -19.42c0,-1.34 1.12,-2.46 2.46,-2.46l19.42 0c1.34,0 2.46,1.11 2.46,2.46l0 19.42z"/>
      <path class="fil8" d="M1233.79 2246.27c0,7.37 -6.02,13.4 -13.4,13.4 -7.37,0 -13.39,-6.03 -13.39,-13.4 0,-7.37 6.02,-13.4 13.39,-13.4 7.37,0 13.4,6.03 13.4,13.4z"/>
      <path class="fil9" d="M1307.59 2286.9l0 -24.14 5.13 0 0 24.14 -5.13 0zm32.66 0l-6.51 0 -10.52 -18.26 -0.14 0c0.2,3.23 0.31,5.53 0.31,6.9l0 11.36 -4.58 0 0 -24.14 6.47 0 10.5 18.08 0.12 0c-0.17,-3.14 -0.25,-5.36 -0.25,-6.65l0 -11.43 4.61 0 0 24.14zm20.37 -6.69c0,2.18 -0.79,3.89 -2.36,5.15 -1.57,1.26 -3.76,1.88 -6.56,1.88 -2.58,0 -4.87,-0.48 -6.85,-1.45l0 -4.76c1.64,0.73 3.02,1.24 4.15,1.54 1.13,0.3 2.16,0.45 3.1,0.45 1.13,0 2,-0.22 2.59,-0.64 0.6,-0.43 0.9,-1.07 0.9,-1.91 0,-0.48 -0.13,-0.9 -0.39,-1.26 -0.27,-0.37 -0.66,-0.73 -1.17,-1.07 -0.51,-0.34 -1.56,-0.89 -3.13,-1.63 -1.48,-0.7 -2.59,-1.37 -3.33,-2 -0.74,-0.64 -1.32,-1.38 -1.76,-2.23 -0.45,-0.84 -0.67,-1.83 -0.67,-2.97 0,-2.13 0.73,-3.81 2.18,-5.04 1.45,-1.22 3.45,-1.83 6.01,-1.83 1.26,0 2.45,0.15 3.6,0.45 1.14,0.3 2.33,0.71 3.58,1.26l-1.66 3.98c-1.29,-0.52 -2.36,-0.89 -3.2,-1.1 -0.84,-0.21 -1.68,-0.31 -2.49,-0.31 -0.97,0 -1.71,0.22 -2.23,0.67 -0.52,0.45 -0.78,1.04 -0.78,1.77 0,0.45 0.1,0.84 0.31,1.18 0.22,0.34 0.54,0.66 1,0.98 0.46,0.31 1.54,0.88 3.25,1.69 2.27,1.08 3.81,2.16 4.66,3.24 0.83,1.09 1.26,2.42 1.26,3.99zm14.04 6.69l-5.13 0 0 -19.88 -6.57 0 0 -4.26 18.26 0 0 4.26 -6.56 0 0 19.88zm10.28 0l0 -24.14 5.13 0 0 24.14 -5.13 0zm20.54 0l-5.13 0 0 -19.88 -6.56 0 0 -4.26 18.25 0 0 4.26 -6.56 0 0 19.88zm29.97 -24.14l0 15.63c0,1.78 -0.41,3.35 -1.2,4.69 -0.81,1.34 -1.95,2.37 -3.46,3.08 -1.51,0.71 -3.3,1.07 -5.36,1.07 -3.1,0 -5.52,-0.79 -7.24,-2.38 -1.72,-1.59 -2.58,-3.77 -2.58,-6.54l0 -15.55 5.11 0 0 14.78c0,1.87 0.38,3.23 1.13,4.09 0.75,0.88 1.99,1.31 3.73,1.31 1.68,0 2.89,-0.44 3.64,-1.32 0.76,-0.87 1.13,-2.25 1.13,-4.12l0 -14.75 5.11 0zm15.24 24.14l-5.13 0 0 -19.88 -6.56 0 0 -4.26 18.25 0 0 4.26 -6.56 0 0 19.88zm31.56 -12.1c0,4 -0.99,7.07 -2.98,9.22 -1.98,2.15 -4.83,3.22 -8.53,3.22 -3.7,0 -6.55,-1.07 -8.53,-3.22 -1.99,-2.15 -2.97,-5.23 -2.97,-9.25 0,-4.01 0.99,-7.09 2.99,-9.21 1.98,-2.12 4.84,-3.18 8.55,-3.18 3.71,0 6.56,1.07 8.53,3.2 1.96,2.13 2.95,5.21 2.95,9.21zm-17.65 0c0,2.7 0.52,4.73 1.54,6.1 1.02,1.37 2.56,2.05 4.6,2.05 4.09,0 6.14,-2.72 6.14,-8.15 0,-5.44 -2.03,-8.15 -6.1,-8.15 -2.04,0 -3.58,0.69 -4.62,2.06 -1.03,1.37 -1.55,3.4 -1.55,6.09zm36.5 12.1l-5.04 0 0 -24.14 13.86 0 0 4.19 -8.82 0 0 6.22 8.21 0 0 4.19 -8.21 0 0 9.53zm27.81 0l-13.92 0 0 -24.14 13.92 0 0 4.19 -8.8 0 0 5.3 8.19 0 0 4.2 -8.19 0 0 6.22 8.8 0 0 4.22zm25.09 -12.3c0,3.98 -1.13,7.02 -3.39,9.13 -2.27,2.12 -5.53,3.18 -9.82,3.18l-6.84 0 0 -24.14 7.58 0c3.95,0 7.01,1.04 9.19,3.12 2.18,2.08 3.27,4.99 3.27,8.72zm-5.32 0.13c0,-5.18 -2.29,-7.77 -6.88,-7.77l-2.72 0 0 15.72 2.2 0c4.94,0 7.4,-2.65 7.4,-7.95zm24.27 12.17l-13.93 0 0 -24.14 13.93 0 0 4.19 -8.8 0 0 5.3 8.18 0 0 4.2 -8.18 0 0 6.22 8.8 0 0 4.22zm10.16 -13.42l1.65 0c1.62,0 2.82,-0.27 3.59,-0.81 0.77,-0.53 1.15,-1.38 1.15,-2.54 0,-1.14 -0.39,-1.96 -1.18,-2.44 -0.79,-0.48 -2.01,-0.73 -3.66,-0.73l-1.55 0 0 6.52zm0 4.16l0 9.27 -5.13 0 0 -24.14 7.05 0c3.29,0 5.71,0.6 7.28,1.79 1.58,1.2 2.37,3.01 2.37,5.44 0,1.42 -0.39,2.68 -1.18,3.79 -0.78,1.1 -1.88,1.97 -3.31,2.59 3.63,5.43 6.01,8.94 7.11,10.52l-5.69 0 -5.77 -9.27 -2.72 0zm32.04 9.27l-1.76 -5.75 -8.82 0 -1.74 5.75 -5.53 0 8.53 -24.24 6.26 0 8.57 24.24 -5.52 0zm-2.98 -10.04c-1.62,-5.21 -2.53,-8.15 -2.74,-8.84 -0.2,-0.68 -0.35,-1.22 -0.43,-1.62 -0.37,1.41 -1.41,4.89 -3.13,10.46l6.3 0zm11.54 10.04l0 -24.14 5.13 0 0 19.91 9.81 0 0 4.22 -14.94 0z"/>
      <path class="fil9" d="M1318.4 2311.75c0,1.66 -0.6,2.95 -1.8,3.88 -1.2,0.92 -2.84,1.39 -4.9,1.39 -2.24,0 -3.96,-0.29 -5.15,-0.87l0 -2.11c0.77,0.33 1.61,0.58 2.52,0.77 0.91,0.19 1.81,0.28 2.71,0.28 1.46,0 2.56,-0.28 3.3,-0.83 0.73,-0.55 1.11,-1.32 1.11,-2.31 0,-0.65 -0.13,-1.19 -0.39,-1.6 -0.26,-0.42 -0.71,-0.8 -1.32,-1.15 -0.62,-0.35 -1.55,-0.75 -2.8,-1.2 -1.76,-0.63 -3.01,-1.37 -3.76,-2.23 -0.75,-0.86 -1.13,-1.97 -1.13,-3.36 0,-1.45 0.55,-2.6 1.64,-3.46 1.1,-0.86 2.54,-1.29 4.34,-1.29 1.87,0 3.6,0.35 5.17,1.03l-0.68 1.91c-1.56,-0.65 -3.07,-0.98 -4.54,-0.98 -1.16,0 -2.07,0.25 -2.72,0.75 -0.66,0.5 -0.98,1.19 -0.98,2.08 0,0.65 0.12,1.19 0.36,1.6 0.24,0.42 0.65,0.8 1.22,1.15 0.57,0.35 1.45,0.73 2.63,1.15 1.98,0.7 3.33,1.45 4.08,2.27 0.74,0.8 1.11,1.85 1.11,3.14zm97.76 5.27c-2.1,0 -3.74,-0.64 -4.94,-1.91 -1.21,-1.27 -1.81,-3.04 -1.81,-5.3 0,-2.27 0.56,-4.07 1.68,-5.42 1.12,-1.34 2.63,-2 4.52,-2 1.77,0 3.17,0.58 4.2,1.74 1.03,1.16 1.55,2.7 1.55,4.6l0 1.35 -9.73 0c0.04,1.66 0.46,2.91 1.25,3.77 0.8,0.86 1.92,1.29 3.37,1.29 1.51,0 3.02,-0.31 4.51,-0.96l0 1.91c-0.75,0.33 -1.47,0.56 -2.15,0.71 -0.67,0.14 -1.49,0.22 -2.44,0.22zm-0.58 -12.84c-1.13,0 -2.04,0.37 -2.71,1.11 -0.67,0.73 -1.07,1.76 -1.19,3.06l7.38 0c0,-1.34 -0.3,-2.38 -0.9,-3.09 -0.6,-0.71 -1.46,-1.07 -2.57,-1.07zm15.86 -1.79c0.62,0 1.19,0.05 1.68,0.15l-0.29 1.99c-0.58,-0.13 -1.1,-0.2 -1.55,-0.2 -1.14,0 -2.12,0.46 -2.93,1.39 -0.81,0.93 -1.21,2.08 -1.21,3.46l0 7.56 -2.14 0 0 -14.09 1.77 0 0.24 2.6 0.1 0c0.52,-0.92 1.15,-1.62 1.89,-2.12 0.74,-0.5 1.55,-0.75 2.44,-0.75zm14 14.35l0 -9.12c0,-1.15 -0.26,-2.01 -0.79,-2.57 -0.53,-0.57 -1.35,-0.85 -2.47,-0.85 -1.47,0 -2.56,0.4 -3.24,1.2 -0.69,0.8 -1.03,2.12 -1.03,3.95l0 7.39 -2.14 0 0 -14.09 1.74 0 0.35 1.93 0.1 0c0.44,-0.69 1.05,-1.24 1.84,-1.62 0.79,-0.39 1.68,-0.57 2.65,-0.57 1.7,0 2.98,0.41 3.84,1.22 0.86,0.82 1.29,2.13 1.29,3.94l0 9.19 -2.13 0zm15.21 0l-0.43 -2 -0.1 0c-0.71,0.88 -1.4,1.48 -2.1,1.8 -0.71,0.31 -1.58,0.47 -2.63,0.47 -1.4,0 -2.5,-0.36 -3.29,-1.08 -0.79,-0.73 -1.2,-1.75 -1.2,-3.08 0,-2.85 2.29,-4.34 6.84,-4.48l2.4 -0.08 0 -0.88c0,-1.1 -0.24,-1.92 -0.71,-2.44 -0.48,-0.53 -1.24,-0.79 -2.29,-0.79 -1.18,0 -2.51,0.36 -3.99,1.08l-0.65 -1.63c0.69,-0.38 1.45,-0.68 2.29,-0.89 0.83,-0.22 1.66,-0.32 2.49,-0.32 1.69,0 2.93,0.37 3.75,1.12 0.81,0.75 1.22,1.94 1.22,3.58l0 9.63 -1.58 0zm-4.83 -1.5c1.34,0 2.38,-0.37 3.14,-1.09 0.76,-0.73 1.15,-1.75 1.15,-3.06l0 -1.28 -2.14 0.09c-1.7,0.06 -2.93,0.32 -3.68,0.79 -0.75,0.46 -1.13,1.19 -1.13,2.18 0,0.77 0.24,1.36 0.7,1.76 0.47,0.41 1.13,0.61 1.96,0.61zm28.83 1.5l0 -9.17c0,-1.12 -0.24,-1.96 -0.72,-2.53 -0.48,-0.56 -1.23,-0.84 -2.24,-0.84 -1.34,0 -2.32,0.39 -2.95,1.15 -0.64,0.77 -0.96,1.94 -0.96,3.52l0 7.87 -2.14 0 0 -9.17c0,-1.12 -0.24,-1.96 -0.71,-2.53 -0.48,-0.56 -1.23,-0.84 -2.26,-0.84 -1.34,0 -2.32,0.4 -2.94,1.2 -0.62,0.8 -0.94,2.12 -0.94,3.94l0 7.39 -2.13 0 0 -14.09 1.74 0 0.35 1.93 0.1 0c0.4,-0.69 0.98,-1.22 1.71,-1.61 0.73,-0.39 1.56,-0.58 2.47,-0.58 2.2,0 3.65,0.8 4.33,2.39l0.1 0c0.43,-0.74 1.03,-1.32 1.83,-1.75 0.81,-0.43 1.72,-0.64 2.73,-0.64 1.6,0 2.8,0.41 3.6,1.22 0.79,0.82 1.19,2.13 1.19,3.94l0 9.19 -2.14 0zm13.12 -14.33c1.85,0 3.3,0.63 4.33,1.89 1.03,1.27 1.54,3.06 1.54,5.38 0,2.32 -0.52,4.12 -1.55,5.4 -1.04,1.28 -2.48,1.93 -4.32,1.93 -0.92,0 -1.76,-0.18 -2.52,-0.51 -0.75,-0.34 -1.4,-0.86 -1.91,-1.57l-0.16 0 -0.45 1.81 -1.53 0 0 -20.02 2.14 0 0 4.87c0,1.09 -0.03,2.06 -0.1,2.93l0.1 0c1,-1.41 2.48,-2.11 4.43,-2.11zm-0.31 1.79c-1.46,0 -2.51,0.42 -3.16,1.26 -0.65,0.83 -0.97,2.25 -0.97,4.22 0,1.98 0.33,3.4 1,4.25 0.65,0.86 1.72,1.28 3.18,1.28 1.32,0 2.3,-0.48 2.94,-1.43 0.65,-0.96 0.96,-2.33 0.96,-4.13 0,-1.83 -0.31,-3.2 -0.96,-4.1 -0.64,-0.9 -1.64,-1.36 -2.99,-1.36zm11.92 -1.55l0 9.15c0,1.15 0.26,2 0.79,2.57 0.53,0.56 1.35,0.84 2.47,0.84 1.48,0 2.55,-0.41 3.24,-1.2 0.68,-0.81 1.02,-2.13 1.02,-3.96l0 -7.41 2.13 0 0 14.09 -1.76 0 -0.31 -1.88 -0.12 0c-0.43,0.69 -1.05,1.22 -1.82,1.59 -0.78,0.37 -1.66,0.56 -2.67,0.56 -1.72,0 -3.01,-0.41 -3.86,-1.22 -0.85,-0.82 -1.28,-2.12 -1.28,-3.91l0 -9.23 2.16 0zm19.84 14.36c-2.05,0 -3.63,-0.63 -4.75,-1.89 -1.13,-1.26 -1.68,-3.04 -1.68,-5.34 0,-2.36 0.56,-4.18 1.7,-5.47 1.15,-1.29 2.76,-1.93 4.87,-1.93 0.68,0 1.36,0.07 2.04,0.22 0.68,0.14 1.21,0.31 1.6,0.52l-0.65 1.81c-0.48,-0.19 -0.99,-0.34 -1.55,-0.47 -0.56,-0.12 -1.05,-0.18 -1.49,-0.18 -2.86,0 -4.3,1.83 -4.3,5.48 0,1.73 0.35,3.06 1.05,3.99 0.71,0.93 1.74,1.39 3.12,1.39 1.17,0 2.38,-0.26 3.62,-0.76l0 1.9c-0.95,0.48 -2.13,0.73 -3.57,0.73zm15.61 -0.27l-0.43 -2 -0.1 0c-0.7,0.88 -1.4,1.48 -2.1,1.8 -0.7,0.31 -1.57,0.47 -2.62,0.47 -1.41,0 -2.5,-0.36 -3.29,-1.08 -0.79,-0.73 -1.19,-1.75 -1.19,-3.08 0,-2.85 2.28,-4.34 6.84,-4.48l2.4 -0.08 0 -0.88c0,-1.1 -0.24,-1.92 -0.71,-2.44 -0.48,-0.53 -1.24,-0.79 -2.29,-0.79 -1.18,0 -2.51,0.36 -3.99,1.08l-0.65 -1.63c0.69,-0.38 1.46,-0.68 2.29,-0.89 0.83,-0.22 1.66,-0.32 2.5,-0.32 1.68,0 2.93,0.37 3.74,1.12 0.82,0.75 1.22,1.94 1.22,3.58l0 9.63 -1.58 0zm-4.84 -1.5c1.34,0 2.38,-0.37 3.14,-1.09 0.76,-0.73 1.15,-1.75 1.15,-3.06l0 -1.28 -2.14 0.09c-1.7,0.06 -2.93,0.32 -3.68,0.79 -0.75,0.46 -1.13,1.19 -1.13,2.18 0,0.77 0.24,1.36 0.71,1.76 0.46,0.41 1.12,0.61 1.96,0.61zm20.5 1.5l0 -9.12c0,-1.15 -0.26,-2.01 -0.79,-2.57 -0.52,-0.57 -1.35,-0.85 -2.46,-0.85 -1.48,0 -2.56,0.4 -3.25,1.2 -0.69,0.8 -1.03,2.12 -1.03,3.95l0 7.39 -2.13 0 0 -14.09 1.74 0 0.35 1.93 0.11 0c0.44,-0.69 1.05,-1.24 1.84,-1.62 0.79,-0.39 1.67,-0.57 2.65,-0.57 1.7,0 2.98,0.41 3.84,1.22 0.86,0.82 1.29,2.13 1.29,3.94l0 9.19 -2.14 0zm18.72 -7.06c0,2.3 -0.58,4.1 -1.74,5.39 -1.16,1.29 -2.76,1.94 -4.81,1.94 -1.26,0 -2.39,-0.29 -3.37,-0.89 -0.98,-0.59 -1.74,-1.44 -2.27,-2.55 -0.54,-1.11 -0.8,-2.4 -0.8,-3.88 0,-2.3 0.57,-4.09 1.72,-5.38 1.15,-1.28 2.75,-1.92 4.79,-1.92 1.98,0 3.54,0.65 4.72,1.96 1.17,1.31 1.74,3.09 1.74,5.33zm-10.76 0c0,1.8 0.36,3.18 1.09,4.12 0.71,0.94 1.78,1.41 3.18,1.41 1.39,0 2.46,-0.47 3.19,-1.41 0.72,-0.94 1.08,-2.32 1.08,-4.13 0,-1.79 -0.36,-3.15 -1.08,-4.09 -0.73,-0.93 -1.8,-1.39 -3.22,-1.39 -1.41,0 -2.46,0.46 -3.17,1.38 -0.71,0.92 -1.07,2.29 -1.07,4.11zm-240.54 7.33c-2.09,0 -3.73,-0.64 -4.94,-1.91 -1.2,-1.27 -1.81,-3.04 -1.81,-5.3 0,-2.27 0.56,-4.07 1.68,-5.42 1.13,-1.34 2.63,-2 4.52,-2 1.77,0 3.17,0.58 4.2,1.74 1.03,1.16 1.55,2.7 1.55,4.6l0 1.35 -9.73 0c0.05,1.66 0.46,2.91 1.26,3.77 0.79,0.86 1.91,1.29 3.36,1.29 1.52,0 3.02,-0.31 4.51,-0.96l0 1.91c-0.75,0.33 -1.47,0.56 -2.14,0.71 -0.67,0.14 -1.49,0.22 -2.44,0.22zm-0.58 -12.84c-1.13,0 -2.04,0.37 -2.71,1.11 -0.67,0.73 -1.07,1.76 -1.19,3.06l7.39 0c0,-1.34 -0.3,-2.38 -0.9,-3.09 -0.6,-0.71 -1.46,-1.07 -2.58,-1.07zm15.86 -1.79c0.63,0 1.19,0.05 1.69,0.15l-0.29 1.99c-0.59,-0.13 -1.1,-0.2 -1.55,-0.2 -1.14,0 -2.12,0.46 -2.93,1.39 -0.81,0.93 -1.21,2.08 -1.21,3.46l0 7.56 -2.15 0 0 -14.09 1.77 0 0.24 2.6 0.1 0c0.52,-0.92 1.15,-1.62 1.89,-2.12 0.74,-0.5 1.55,-0.75 2.44,-0.75zm8.89 12.85c0.38,0 0.75,-0.03 1.1,-0.09 0.35,-0.05 0.63,-0.11 0.83,-0.18l0 1.64c-0.23,0.1 -0.57,0.2 -1.02,0.28 -0.45,0.07 -0.86,0.11 -1.22,0.11 -2.73,0 -4.1,-1.44 -4.1,-4.32l0 -8.39 -2.02 0 0 -1.03 2.02 -0.89 0.9 -3.01 1.24 0 0 3.27 4.1 0 0 1.66 -4.1 0 0 8.3c0,0.85 0.2,1.5 0.61,1.96 0.4,0.45 0.96,0.68 1.66,0.68zm13.44 1.5l-0.43 -2 -0.1 0c-0.7,0.88 -1.4,1.48 -2.1,1.8 -0.7,0.31 -1.57,0.47 -2.62,0.47 -1.4,0 -2.5,-0.36 -3.29,-1.08 -0.79,-0.73 -1.19,-1.75 -1.19,-3.08 0,-2.85 2.28,-4.34 6.84,-4.48l2.4 -0.08 0 -0.88c0,-1.1 -0.24,-1.92 -0.71,-2.44 -0.48,-0.53 -1.24,-0.79 -2.29,-0.79 -1.18,0 -2.51,0.36 -3.99,1.08l-0.65 -1.63c0.69,-0.38 1.45,-0.68 2.29,-0.89 0.83,-0.22 1.66,-0.32 2.5,-0.32 1.68,0 2.93,0.37 3.74,1.12 0.81,0.75 1.22,1.94 1.22,3.58l0 9.63 -1.58 0zm-4.84 -1.5c1.34,0 2.38,-0.37 3.14,-1.09 0.76,-0.73 1.15,-1.75 1.15,-3.06l0 -1.28 -2.14 0.09c-1.7,0.06 -2.93,0.32 -3.68,0.79 -0.75,0.46 -1.13,1.19 -1.13,2.18 0,0.77 0.24,1.36 0.71,1.76 0.46,0.41 1.12,0.61 1.96,0.61zm3.17 -14.49c-0.37,0 -0.73,-0.08 -1.08,-0.24 -0.35,-0.16 -0.7,-0.33 -1.04,-0.52 -0.33,-0.2 -0.66,-0.37 -0.98,-0.53 -0.31,-0.16 -0.62,-0.24 -0.91,-0.24 -0.43,0 -0.75,0.13 -0.97,0.39 -0.22,0.26 -0.39,0.65 -0.51,1.17l-1.26 0c0.11,-1.03 0.41,-1.85 0.9,-2.44 0.5,-0.59 1.13,-0.88 1.92,-0.88 0.39,0 0.77,0.08 1.15,0.24 0.37,0.16 0.72,0.33 1.06,0.53 0.33,0.19 0.65,0.37 0.96,0.52 0.31,0.16 0.6,0.24 0.88,0.24 0.42,0 0.73,-0.12 0.94,-0.38 0.2,-0.25 0.37,-0.65 0.5,-1.18l1.28 0c-0.11,1.03 -0.41,1.85 -0.9,2.44 -0.48,0.59 -1.13,0.88 -1.94,0.88zm19.85 8.93c0,2.3 -0.58,4.1 -1.74,5.39 -1.16,1.29 -2.76,1.94 -4.81,1.94 -1.26,0 -2.38,-0.29 -3.37,-0.89 -0.98,-0.59 -1.74,-1.44 -2.27,-2.55 -0.54,-1.11 -0.8,-2.4 -0.8,-3.88 0,-2.3 0.58,-4.09 1.73,-5.38 1.15,-1.28 2.74,-1.92 4.79,-1.92 1.98,0 3.55,0.65 4.72,1.96 1.17,1.31 1.74,3.09 1.74,5.33zm-10.76 0c0,1.8 0.37,3.18 1.09,4.12 0.72,0.94 1.78,1.41 3.18,1.41 1.39,0 2.46,-0.47 3.19,-1.41 0.73,-0.94 1.09,-2.32 1.09,-4.13 0,-1.79 -0.36,-3.15 -1.09,-4.09 -0.73,-0.93 -1.8,-1.39 -3.22,-1.39 -1.4,0 -2.46,0.46 -3.17,1.38 -0.71,0.92 -1.07,2.29 -1.07,4.11zm33.63 -6.27c0,1.9 -0.65,3.37 -1.94,4.39 -1.3,1.02 -3.16,1.54 -5.59,1.54l-2.21 0 0 7.4 -2.19 0 0 -18.81 4.89 0c4.71,0 7.06,1.83 7.06,5.48zm-9.75 4.05l1.97 0c1.94,0 3.35,-0.31 4.21,-0.94 0.87,-0.63 1.3,-1.63 1.3,-3.01 0,-1.24 -0.41,-2.17 -1.22,-2.78 -0.82,-0.61 -2.09,-0.92 -3.82,-0.92l-2.44 0 0 7.64z"/>
      <path class="fil9" d="M1315.49 2329.15c-2,0 -3.59,0.67 -4.75,2 -1.16,1.34 -1.74,3.16 -1.74,5.47 0,2.38 0.56,4.22 1.68,5.52 1.11,1.3 2.71,1.95 4.78,1.95 1.27,0 2.72,-0.23 4.35,-0.69l0 1.86c-1.26,0.48 -2.82,0.71 -4.68,0.71 -2.68,0 -4.76,-0.81 -6.21,-2.44 -1.46,-1.62 -2.19,-3.94 -2.19,-6.93 0,-1.88 0.35,-3.52 1.05,-4.93 0.71,-1.41 1.72,-2.5 3.05,-3.26 1.32,-0.77 2.89,-1.15 4.68,-1.15 1.92,0 3.59,0.35 5.02,1.04l-0.9 1.81c-1.38,-0.65 -2.76,-0.97 -4.14,-0.97zm16.4 16.57l-0.41 -1.94 -0.1 0c-0.68,0.86 -1.36,1.44 -2.04,1.75 -0.68,0.3 -1.52,0.45 -2.53,0.45 -1.36,0 -2.42,-0.35 -3.19,-1.05 -0.77,-0.7 -1.15,-1.69 -1.15,-2.98 0,-2.76 2.21,-4.2 6.62,-4.34l2.32 -0.08 0 -0.84c0,-1.07 -0.23,-1.86 -0.69,-2.37 -0.46,-0.51 -1.2,-0.76 -2.21,-0.76 -1.14,0 -2.43,0.35 -3.87,1.04l-0.63 -1.58c0.67,-0.37 1.41,-0.65 2.21,-0.86 0.81,-0.21 1.61,-0.31 2.42,-0.31 1.63,0 2.84,0.36 3.62,1.08 0.79,0.72 1.18,1.88 1.18,3.47l0 9.32 -1.53 0zm-4.68 -1.45c1.29,0 2.31,-0.35 3.04,-1.05 0.73,-0.71 1.11,-1.7 1.11,-2.97l0 -1.23 -2.07 0.09c-1.64,0.05 -2.84,0.31 -3.56,0.76 -0.73,0.45 -1.09,1.16 -1.09,2.11 0,0.75 0.23,1.32 0.69,1.71 0.45,0.39 1.08,0.58 1.89,0.58zm27.9 1.45l0 -8.88c0,-1.08 -0.23,-1.9 -0.7,-2.44 -0.46,-0.54 -1.19,-0.82 -2.17,-0.82 -1.29,0 -2.24,0.37 -2.86,1.11 -0.61,0.74 -0.92,1.87 -0.92,3.41l0 7.62 -2.07 0 0 -8.88c0,-1.08 -0.24,-1.9 -0.69,-2.44 -0.47,-0.54 -1.2,-0.82 -2.19,-0.82 -1.3,0 -2.25,0.39 -2.85,1.17 -0.6,0.77 -0.9,2.05 -0.9,3.82l0 7.16 -2.07 0 0 -13.64 1.68 0 0.33 1.86 0.1 0c0.39,-0.66 0.94,-1.18 1.65,-1.56 0.71,-0.37 1.51,-0.56 2.39,-0.56 2.13,0 3.53,0.77 4.19,2.32l0.09 0c0.41,-0.72 1,-1.28 1.77,-1.7 0.77,-0.41 1.66,-0.62 2.65,-0.62 1.55,0 2.7,0.39 3.47,1.19 0.77,0.79 1.16,2.06 1.16,3.8l0 8.91 -2.08 0zm12.7 0.26c-0.89,0 -1.7,-0.16 -2.44,-0.49 -0.74,-0.33 -1.36,-0.83 -1.86,-1.51l-0.14 0c0.1,0.79 0.14,1.55 0.14,2.27l0 5.61 -2.06 0 0 -19.76 1.68 0 0.29 1.86 0.09 0c0.54,-0.75 1.16,-1.29 1.87,-1.62 0.7,-0.33 1.51,-0.5 2.43,-0.5 1.81,0 3.22,0.62 4.2,1.85 0.99,1.24 1.48,2.97 1.48,5.21 0,2.25 -0.5,3.99 -1.5,5.23 -1.01,1.24 -2.4,1.86 -4.18,1.86zm-0.29 -12.4c-1.4,0 -2.42,0.39 -3.03,1.16 -0.63,0.77 -0.95,2 -0.97,3.69l0 0.46c0,1.92 0.32,3.29 0.97,4.12 0.64,0.83 1.66,1.24 3.08,1.24 1.18,0 2.11,-0.47 2.78,-1.43 0.67,-0.96 1.01,-2.27 1.01,-3.95 0,-1.7 -0.34,-3.01 -1.01,-3.92 -0.67,-0.91 -1.61,-1.37 -2.82,-1.37zm11.53 -1.5l0 8.85c0,1.11 0.26,1.94 0.77,2.49 0.5,0.55 1.3,0.82 2.38,0.82 1.43,0 2.48,-0.39 3.14,-1.17 0.66,-0.79 0.99,-2.06 0.99,-3.82l0 -7.17 2.07 0 0 13.64 -1.7 0 -0.3 -1.82 -0.11 0c-0.43,0.67 -1.02,1.19 -1.77,1.54 -0.75,0.36 -1.61,0.54 -2.58,0.54 -1.66,0 -2.9,-0.39 -3.73,-1.18 -0.83,-0.79 -1.24,-2.06 -1.24,-3.79l0 -8.93 2.09 0zm22.55 9.92c0,1.27 -0.47,2.25 -1.42,2.94 -0.95,0.69 -2.28,1.03 -3.99,1.03 -1.81,0 -3.22,-0.28 -4.24,-0.86l0 -1.92c0.65,0.33 1.36,0.59 2.12,0.79 0.75,0.19 1.47,0.28 2.17,0.28 1.08,0 1.91,-0.17 2.5,-0.52 0.58,-0.35 0.87,-0.86 0.87,-1.57 0,-0.53 -0.23,-0.99 -0.69,-1.37 -0.46,-0.37 -1.36,-0.82 -2.7,-1.34 -1.27,-0.48 -2.17,-0.89 -2.71,-1.24 -0.54,-0.35 -0.94,-0.75 -1.2,-1.2 -0.26,-0.45 -0.39,-0.98 -0.39,-1.6 0,-1.12 0.45,-1.99 1.36,-2.64 0.9,-0.64 2.15,-0.96 3.73,-0.96 1.47,0 2.91,0.29 4.32,0.9l-0.73 1.68c-1.38,-0.57 -2.62,-0.84 -3.73,-0.84 -0.99,0 -1.73,0.15 -2.23,0.46 -0.5,0.31 -0.75,0.73 -0.75,1.27 0,0.37 0.09,0.67 0.28,0.93 0.18,0.26 0.48,0.5 0.9,0.74 0.41,0.23 1.21,0.57 2.39,1.01 1.63,0.59 2.72,1.19 3.29,1.78 0.57,0.6 0.85,1.35 0.85,2.25zm20.62 -1.12c0,1.6 -0.59,2.86 -1.75,3.75 -1.17,0.9 -2.74,1.34 -4.74,1.34 -2.17,0 -3.83,-0.28 -4.99,-0.84l0 -2.04c0.75,0.31 1.56,0.56 2.44,0.75 0.88,0.18 1.76,0.28 2.63,0.28 1.41,0 2.48,-0.27 3.19,-0.81 0.71,-0.53 1.07,-1.28 1.07,-2.23 0,-0.63 -0.13,-1.15 -0.38,-1.55 -0.26,-0.41 -0.68,-0.77 -1.27,-1.12 -0.6,-0.34 -1.51,-0.73 -2.72,-1.15 -1.7,-0.61 -2.91,-1.33 -3.63,-2.15 -0.73,-0.83 -1.1,-1.91 -1.1,-3.25 0,-1.4 0.53,-2.52 1.58,-3.35 1.06,-0.83 2.46,-1.24 4.2,-1.24 1.81,0 3.48,0.33 5,1l-0.66 1.84c-1.51,-0.64 -2.97,-0.95 -4.39,-0.95 -1.12,0 -2,0.24 -2.63,0.72 -0.64,0.48 -0.95,1.15 -0.95,2.01 0,0.64 0.12,1.15 0.35,1.55 0.23,0.41 0.62,0.77 1.18,1.11 0.55,0.34 1.4,0.71 2.54,1.12 1.91,0.67 3.22,1.41 3.95,2.19 0.71,0.78 1.08,1.79 1.08,3.04zm11.81 4.84l-0.41 -1.94 -0.1 0c-0.68,0.86 -1.36,1.44 -2.04,1.75 -0.68,0.3 -1.53,0.45 -2.54,0.45 -1.36,0 -2.42,-0.35 -3.19,-1.05 -0.77,-0.7 -1.15,-1.69 -1.15,-2.98 0,-2.76 2.21,-4.2 6.62,-4.34l2.32 -0.08 0 -0.84c0,-1.07 -0.23,-1.86 -0.69,-2.37 -0.46,-0.51 -1.2,-0.76 -2.21,-0.76 -1.14,0 -2.43,0.35 -3.86,1.04l-0.64 -1.58c0.67,-0.37 1.41,-0.65 2.21,-0.86 0.81,-0.21 1.61,-0.31 2.42,-0.31 1.63,0 2.84,0.36 3.62,1.08 0.79,0.72 1.18,1.88 1.18,3.47l0 9.32 -1.53 0zm-4.68 -1.45c1.29,0 2.31,-0.35 3.03,-1.05 0.74,-0.71 1.11,-1.7 1.11,-2.97l0 -1.23 -2.07 0.09c-1.64,0.05 -2.84,0.31 -3.56,0.76 -0.73,0.45 -1.09,1.16 -1.09,2.11 0,0.75 0.22,1.32 0.68,1.71 0.45,0.39 1.08,0.58 1.9,0.58zm12.55 1.45l-2.06 0 0 -19.38 2.06 0 0 19.38zm15.59 -13.64l0 1.31 -2.53 0.29c0.23,0.29 0.44,0.67 0.62,1.14 0.18,0.46 0.27,1 0.27,1.58 0,1.34 -0.45,2.4 -1.37,3.2 -0.92,0.8 -2.17,1.19 -3.77,1.19 -0.41,0 -0.79,-0.03 -1.15,-0.09 -0.88,0.46 -1.32,1.05 -1.32,1.76 0,0.37 0.15,0.65 0.46,0.83 0.31,0.18 0.84,0.27 1.58,0.27l2.42 0c1.49,0 2.62,0.31 3.42,0.94 0.79,0.62 1.19,1.53 1.19,2.71 0,1.51 -0.6,2.66 -1.81,3.45 -1.22,0.79 -2.99,1.19 -5.32,1.19 -1.79,0 -3.17,-0.33 -4.14,-1 -0.97,-0.66 -1.45,-1.6 -1.45,-2.81 0,-0.83 0.27,-1.55 0.8,-2.15 0.53,-0.6 1.28,-1.02 2.25,-1.23 -0.35,-0.16 -0.64,-0.4 -0.88,-0.73 -0.24,-0.33 -0.36,-0.72 -0.36,-1.16 0,-0.5 0.14,-0.94 0.41,-1.31 0.26,-0.37 0.68,-0.73 1.26,-1.09 -0.71,-0.29 -1.28,-0.79 -1.73,-1.48 -0.45,-0.7 -0.67,-1.5 -0.67,-2.4 0,-1.49 0.45,-2.64 1.35,-3.45 0.9,-0.81 2.17,-1.21 3.82,-1.21 0.71,0 1.36,0.09 1.93,0.26l4.73 0zm-10.9 15.93c0,0.73 0.31,1.3 0.94,1.68 0.62,0.38 1.52,0.57 2.68,0.57 1.74,0 3.03,-0.26 3.86,-0.78 0.84,-0.51 1.26,-1.22 1.26,-2.1 0,-0.74 -0.23,-1.25 -0.69,-1.53 -0.46,-0.29 -1.32,-0.43 -2.58,-0.43l-2.48 0c-0.94,0 -1.68,0.23 -2.2,0.67 -0.52,0.45 -0.79,1.09 -0.79,1.93zm1.12 -11.57c0,0.96 0.28,1.68 0.81,2.17 0.54,0.49 1.3,0.74 2.26,0.74 2.02,0 3.03,-0.98 3.03,-2.95 0,-2.05 -1.02,-3.08 -3.07,-3.08 -0.97,0 -1.72,0.27 -2.25,0.79 -0.52,0.52 -0.79,1.3 -0.79,2.32zm14.53 -4.36l0 8.85c0,1.11 0.26,1.94 0.77,2.49 0.5,0.55 1.3,0.82 2.38,0.82 1.43,0 2.48,-0.39 3.14,-1.17 0.66,-0.79 1,-2.06 1,-3.82l0 -7.17 2.06 0 0 13.64 -1.7 0 -0.3 -1.82 -0.11 0c-0.42,0.67 -1.02,1.19 -1.77,1.54 -0.75,0.36 -1.61,0.54 -2.57,0.54 -1.67,0 -2.91,-0.39 -3.74,-1.18 -0.83,-0.79 -1.24,-2.06 -1.24,-3.79l0 -8.93 2.09 0zm19.51 13.9c-2.02,0 -3.61,-0.62 -4.78,-1.85 -1.17,-1.22 -1.75,-2.93 -1.75,-5.12 0,-2.2 0.54,-3.95 1.62,-5.25 1.09,-1.3 2.54,-1.94 4.37,-1.94 1.72,0 3.07,0.56 4.07,1.68 1,1.13 1.5,2.61 1.5,4.45l0 1.31 -9.42 0c0.05,1.6 0.45,2.82 1.21,3.65 0.77,0.83 1.85,1.25 3.25,1.25 1.47,0 2.93,-0.31 4.37,-0.92l0 1.84c-0.73,0.32 -1.43,0.55 -2.08,0.69 -0.65,0.14 -1.44,0.2 -2.36,0.2zm-0.56 -12.42c-1.1,0 -1.97,0.35 -2.63,1.07 -0.65,0.71 -1.04,1.7 -1.15,2.96l7.14 0c0,-1.3 -0.29,-2.3 -0.87,-2.99 -0.59,-0.69 -1.41,-1.03 -2.5,-1.03zm11.19 12.16l-2.07 0 0 -13.64 2.07 0 0 13.64zm-2.24 -17.35c0,-0.47 0.11,-0.82 0.35,-1.04 0.24,-0.22 0.52,-0.33 0.87,-0.33 0.33,0 0.62,0.11 0.86,0.33 0.25,0.22 0.37,0.57 0.37,1.03 0,0.46 -0.12,0.81 -0.37,1.04 -0.24,0.23 -0.52,0.34 -0.86,0.34 -0.35,0 -0.64,-0.11 -0.87,-0.34 -0.24,-0.23 -0.35,-0.58 -0.35,-1.04zm12.87 3.45c0.6,0 1.15,0.05 1.63,0.14l-0.29 1.93c-0.56,-0.12 -1.06,-0.19 -1.49,-0.19 -1.11,0 -2.05,0.45 -2.84,1.34 -0.79,0.9 -1.18,2.02 -1.18,3.35l0 7.31 -2.07 0 0 -13.64 1.71 0 0.24 2.52 0.1 0c0.51,-0.89 1.11,-1.58 1.83,-2.06 0.71,-0.48 1.5,-0.72 2.36,-0.72zm15.48 7.06c0,2.23 -0.56,3.97 -1.68,5.22 -1.13,1.25 -2.67,1.87 -4.65,1.87 -1.22,0 -2.31,-0.28 -3.26,-0.86 -0.94,-0.58 -1.68,-1.4 -2.19,-2.47 -0.52,-1.07 -0.77,-2.32 -0.77,-3.77 0,-2.23 0.56,-3.96 1.67,-5.2 1.11,-1.24 2.67,-1.86 4.64,-1.86 1.91,0 3.43,0.64 4.56,1.9 1.13,1.28 1.69,2.99 1.69,5.16zm-10.41 0c0,1.75 0.35,3.08 1.05,3.99 0.69,0.92 1.72,1.37 3.08,1.37 1.36,0 2.39,-0.45 3.09,-1.36 0.7,-0.91 1.05,-2.24 1.05,-3.99 0,-1.73 -0.35,-3.05 -1.05,-3.95 -0.7,-0.9 -1.74,-1.36 -3.12,-1.36 -1.36,0 -2.38,0.45 -3.06,1.34 -0.69,0.88 -1.03,2.21 -1.03,3.97z"/>
     </g>
    </g>
   </g>
   <g style="clip-path:url(#id1)">
    <image x="83.83" y="-125.15" width="2334.21" height="2350.86" xlink:href="avatarM_Images\avatarM_ImgID1.png"/>
   </g>
   <g style="clip-path:url(#id2)">
   </g>
  </g>
  <path class="fil10 str0" d="M1233.58 49.11c654.16,0 1184.46,530.3 1184.46,1184.46 0,654.16 -530.3,1184.46 -1184.46,1184.46 -654.16,0 -1184.46,-530.3 -1184.46,-1184.46 0,-654.16 530.3,-1184.46 1184.46,-1184.46z"/>
 </g>
</svg>
