<?xml version="1.0" encoding="UTF-8"?>
<!DOCTYPE svg PUBLIC "-//W3C//DTD SVG 1.1//EN" "http://www.w3.org/Graphics/SVG/1.1/DTD/svg11.dtd">
<!-- Creator: CorelDRAW 2020 (64 Bit) -->
<svg xmlns="http://www.w3.org/2000/svg" xml:space="preserve" width="37.6744mm" height="37.6744mm" version="1.1" style="shape-rendering:geometricPrecision; text-rendering:geometricPrecision; image-rendering:optimizeQuality; fill-rule:evenodd; clip-rule:evenodd"
viewBox="0 0 3762.91 3762.91"
 xmlns:xlink="http://www.w3.org/1999/xlink"
 xmlns:xodm="http://www.corel.com/coreldraw/odm/2003">
 <defs>
  <style type="text/css">
   <![CDATA[
    .str0 {stroke:#009933;stroke-width:149.82;stroke-miterlimit:22.9256}
    .fil16 {fill:none}
    .fil14 {fill:#C83438}
    .fil13 {fill:#359850}
    .fil0 {fill:#009933}
    .fil15 {fill:black;fill-rule:nonzero}
    .fil9 {fill:#243670;fill-rule:nonzero}
    .fil3 {fill:#4D8593;fill-rule:nonzero}
    .fil1 {fill:#CCCCCC;fill-rule:nonzero}
    .fil7 {fill:#E29E77;fill-rule:nonzero}
    .fil8 {fill:#E9AA3B;fill-rule:nonzero}
    .fil6 {fill:#F0CAB3;fill-rule:nonzero}
    .fil2 {fill:white;fill-rule:nonzero}
    .fil5 {fill:white;fill-rule:nonzero}
    .fil4 {fill:#4D8593;fill-rule:nonzero}
    .fil12 {fill:url(#id3);fill-rule:nonzero}
    .fil10 {fill:url(#id4);fill-rule:nonzero}
    .fil11 {fill:url(#id5);fill-rule:nonzero}
   ]]>
  </style>
   <clipPath id="id0">
    <path d="M1881.45 74.91c997.73,0 1806.54,808.82 1806.54,1806.54 0,997.73 -808.82,1806.54 -1806.54,1806.54 -997.73,0 -1806.54,-808.82 -1806.54,-1806.54 0,-997.73 808.82,-1806.54 1806.54,-1806.54z"/>
   </clipPath>
    <clipPath id="id1">
     <path d="M1881.45 74.91c997.73,0 1806.54,808.82 1806.54,1806.54 0,677.24 -372.73,1267.33 -924.18,1576.62l-1764.73 0c-281.35,-157.8 -516.13,-388.7 -678.67,-666.98l0 -1819.29c313.26,-536.42 895.02,-896.9 1561.04,-896.9z"/>
    </clipPath>
    <clipPath id="id2">
     <path d="M1881.45 74.91c997.73,0 1806.54,808.82 1806.54,1806.54 0,997.73 -808.82,1806.54 -1806.54,1806.54 -997.73,0 -1806.54,-808.82 -1806.54,-1806.54 0,-997.73 808.82,-1806.54 1806.54,-1806.54z"/>
    </clipPath>
  <linearGradient id="id3" gradientUnits="userSpaceOnUse" x1="1859.26" y1="6021.58" x2="1859.26" y2="5016.48">
   <stop offset="0" style="stop-opacity:1; stop-color:#66A8DD"/>
   <stop offset="0.870588" style="stop-opacity:1; stop-color:#D6DFF2"/>
   <stop offset="0.988235" style="stop-opacity:1; stop-color:#D6DFF2"/>
   <stop offset="1" style="stop-opacity:1; stop-color:#D6DFF2"/>
  </linearGradient>
  <linearGradient id="id4" gradientUnits="userSpaceOnUse" xlink:href="#id3" x1="1842.02" y1="6197.58" x2="1842.02" y2="3053.22">
  </linearGradient>
  <linearGradient id="id5" gradientUnits="userSpaceOnUse" xlink:href="#id3" x1="1842.02" y1="6273.14" x2="1842.02" y2="5933.63">
  </linearGradient>
 </defs>
 <g id="Camada_x0020_1">
  <metadata id="CorelCorpID_0Corel-Layer"/>
  <path class="fil0" d="M1881.45 74.91c997.73,0 1806.54,808.82 1806.54,1806.54 0,997.73 -808.82,1806.54 -1806.54,1806.54 -997.73,0 -1806.54,-808.82 -1806.54,-1806.54 0,-997.73 808.82,-1806.54 1806.54,-1806.54z"/>
  <g style="clip-path:url(#id0)">
   <g id="_2960284675792">
    <g>
     <path id="1" class="fil1" d="M906.07 4334.81c111.81,427.04 -117.95,939.82 -312.82,1336.32 0,0 1094.6,782.46 2470.21,61.96l-112.53 -299.81c-134.41,-325.02 -173.51,-681.81 -111.2,-1028.22l232.77 -1294c54.37,-301.8 -124.03,-596.88 -416.05,-690.38l-311.6 -98.96 -97.23 -30.81c-115.74,-36.67 -236.41,-55.32 -357.78,-55.32l-127.1 0c-189.93,0 -377.1,45.65 -545.69,133.19l-294.48 152.73c-253.54,131.34 -381.84,420.94 -309.14,697.09l292.64 1116.22z"/>
     <path class="fil1" d="M2818.1 2491.9c0,0 133.18,28.65 264.25,162.09 120.04,122.26 1193.08,2017.24 1193.08,2017.24 38.4,227.42 -750.48,355.6 -750.48,355.6l-710.68 -1187.53 3.83 -1347.41z"/>
     <g>
      <path class="fil2" d="M4082.4 4483.9c-255.14,-3.14 -490.53,81.69 -685.89,245.75 -17.5,14.69 7.7,39.67 25.09,25.06 188.28,-158.11 414.95,-238.36 660.8,-235.34 22.83,0.28 22.85,-35.19 0,-35.48z"/>
     </g>
     <path class="fil1" d="M974.26 2491.9c0,0 -133.19,28.65 -264.25,162.09 -120.04,122.26 -1193.09,2017.24 -1193.09,2017.24 -38.4,227.42 750.49,355.6 750.49,355.6l710.69 -1187.53 -3.84 -1347.41z"/>
     <g>
      <path class="fil2" d="M439.45 4750.29c-181.36,-202.88 -439.29,-304.07 -710.29,-277.97 -22.51,2.18 -22.74,37.66 0,35.48 262.6,-25.3 509.32,70.78 685.21,267.58 15.25,17.06 40.27,-8.1 25.08,-25.09z"/>
     </g>
     <polygon class="fil3" points="3063.46,5733.08 3821.37,5733.08 2605.62,6793.84 1434.36,6878.46 -137.32,5693.94 761.93,5665.86 "/>
     <polygon class="fil4" points="3063.46,5733.08 3821.37,5733.08 2605.62,6793.84 1434.36,6878.46 -137.32,5693.94 761.93,5665.86 "/>
     <g>
      <path class="fil5" d="M848.68 3222.86c1.34,-22.79 -34.13,-22.72 -35.48,0 -21.22,359.18 -12.3,716.36 26.83,1074.01 2.46,22.45 37.96,22.69 35.47,0 -39.12,-357.67 -48.05,-714.85 -26.82,-1074.01z"/>
      <path class="fil5" d="M2864.15 3222.86c-1.36,-22.79 34.13,-22.72 35.48,0 21.2,359.18 12.28,716.36 -26.85,1074.01 -2.44,22.45 -37.95,22.69 -35.47,0 39.12,-357.67 48.05,-714.85 26.84,-1074.01z"/>
     </g>
     <path class="fil6" d="M1825.38 2552.74c132.82,0 240.5,-107.69 240.5,-240.53l0 -485.72c0,-36.49 -29.56,-66.08 -66.06,-66.08l-348.89 0c-36.49,0 -66.08,29.59 -66.08,66.08l0 485.72c0,132.84 107.7,240.53 240.53,240.53z"/>
     <path class="fil7" d="M1825.38 2379.47c132.82,0 240.5,-107.67 240.5,-240.51l0 -485.74c0,-36.49 -29.56,-66.06 -66.06,-66.06l-348.89 0c-36.49,0 -66.08,29.57 -66.08,66.06l0 485.74c0,132.84 107.7,240.51 240.53,240.51z"/>
     <g>
      <path class="fil6" d="M2719.88 1492.59c-35.85,155.79 -153.59,204.78 -263.32,236.23 -49.72,103.15 -120.65,204.07 -202.6,288.9 -85.57,100.95 -196,175.54 -321.79,206.26l-10.98 2.2c-7.32,1.46 -14.62,3.65 -21.94,5.12 -5.12,0.72 -10.24,0.72 -15.34,1.46 -4.4,0.72 -8.06,0.72 -12.45,1.46 -9.5,0.74 -19.74,1.46 -29.25,1.46 -10.23,0 -19.75,-0.72 -29.26,-1.46 -4.38,-0.74 -8.78,-0.74 -13.16,-1.46 -5.1,-0.74 -10.24,-0.74 -14.62,-1.46 -8.04,-1.48 -14.62,-3.67 -21.94,-5.12 -3.66,-0.74 -7.3,-1.48 -11.7,-2.2 -125.81,-30.72 -236.25,-105.31 -321.81,-206.26 -70.23,-73.14 -132.37,-157.97 -179.93,-245.72 -8.04,-14.65 -15.34,-28.54 -22.66,-43.18 -32.92,-8.78 -65.82,-19.73 -97.27,-35.83 -74.6,-34.38 -140.43,-90.69 -165.29,-200.4 -19.76,-87.05 -9.52,-193.08 35.11,-251.6 18.28,-24.86 42.42,-40.96 72.4,-43.15 30.72,-2.94 65.81,8.78 99.47,28.51 45.35,-205.5 153.59,-424.94 286.7,-575.6 56.32,-74.6 120.67,-122.88 190.88,-152.87 38.04,-18.27 76.08,-30.7 114.84,-33.63 26.33,-2.94 52.67,-3.66 78.26,-2.94 25.6,-0.72 51.92,0 78.25,2.94 38.04,2.93 76.81,15.36 114.11,33.63 70.21,29.98 134.57,78.27 190.89,152.87 133.85,150.66 242.08,370.09 286.7,575.6 14.62,-8.76 29.98,-15.34 44.61,-20.47 19.02,-6.58 38.04,-9.52 54.86,-8.04 103.13,8.78 136.04,171.13 108.25,294.74z"/>
     </g>
     <g>
      <path class="fil8" d="M2741.34 681.29c-143.31,-11.26 -274.11,-164 -380.75,-251.85 -120.04,-98.9 -230.76,-132.18 -379.55,-147.12 -60.97,-6.13 -127.7,-17.14 -191,-6.85 -78.36,12.77 -122.01,61.47 -198.33,66.27 -210.83,13.32 -293.05,6.89 -420.95,188.94 -91.75,130.59 -190.18,297.69 -338.04,371.05 36.14,2.6 180.06,-21.37 207.42,2.03 29.26,25.03 -5.5,129.07 -3.79,173.06 3.84,97.33 49.77,186.6 105.77,265.04 21.35,144.24 64.62,286.53 118.39,419.47 -4.35,-267.37 19.24,-581.96 163.66,-814.58 12.76,63.98 7.83,129.21 11.03,194.64 105.09,-86.01 180.51,-200.82 274.39,-295.92 73.78,107.29 142.74,199.86 261.9,265.1 6.62,-108.66 44.5,-201.29 75.42,-304.08 62.04,85.24 97.77,185.51 157.04,272.59 67.79,99.52 150.88,190.27 194.56,305.31 59.2,155.83 44.88,353.54 29.47,518 53.71,-125.99 122.15,-229.2 147.84,-367.31 17.66,-94.96 27,-197.11 26.74,-293.97 -0.48,-181.92 -30.76,-349.46 -36.9,-527.23 64.02,-3.11 118.66,2.54 175.68,-32.59z"/>
     </g>
     <g>
      <g>
       <g>
        <path class="fil9" d="M1459.86 1309.86c7.91,0.43 15.76,-3.68 19.7,-11.17 61.98,-117.78 170.44,-69.49 175.08,-67.4 10.49,4.81 22.86,0.22 27.8,-10.26 4.82,-10.48 0.23,-22.95 -10.31,-27.78 -51.31,-23.68 -165.46,-36.08 -229.7,85.91 -5.37,10.24 -1.46,22.91 8.83,28.29 2.77,1.5 5.65,2.27 8.61,2.41z"/>
       </g>
      </g>
      <g>
       <g>
        <path class="fil9" d="M2071.25 1256.85c4.78,4.62 12.04,6.32 18.66,3.74 104.04,-40.79 146.42,49.45 148.22,53.33 4.01,8.8 14.37,12.67 23.27,8.76 8.85,-4.03 12.76,-14.47 8.72,-23.32 -19.57,-43.23 -85.31,-113.78 -193.08,-71.55 -9.03,3.54 -13.51,13.75 -9.92,22.81 0.91,2.45 2.35,4.54 4.13,6.24z"/>
       </g>
      </g>
      <g>
       <g>
        <path class="fil9" d="M1818.38 1878.65c-2.35,-7.51 -8.95,-13.41 -17.31,-14.45 -131.6,-16.64 -124.46,-134.77 -124.14,-139.84 0.83,-11.45 -7.78,-21.39 -19.28,-22.34 -11.49,-0.83 -21.51,7.82 -22.32,19.36 -4.16,56.15 24.21,167.01 160.5,184.3 11.43,1.44 21.89,-6.66 23.31,-18.14 0.43,-3.09 0.13,-6.05 -0.76,-8.88z"/>
       </g>
      </g>
      <g>
       <path class="fil9" d="M1923.11 1812.8c15.6,0 30.34,-4.19 43.26,-12.61 41.07,-26.81 51.44,-88.08 27.72,-163.98l-53.62 -252.68c-2.04,-9.74 -11.29,-16.02 -21.37,-13.94 -9.82,2.09 -16.02,11.7 -13.9,21.41l54.02 254.32c22.32,71.79 8.08,111.13 -12.53,124.57 -21.25,13.81 -53.57,5.88 -82.77,-19.68 -7.43,-6.5 -19.57,-6.67 -26.26,0.61 -6.56,7.32 -7.06,17.73 0.13,24.52 28.38,24.84 58.23,37.45 85.33,37.45z"/>
      </g>
      <path class="fil9" d="M2202.84 1441.79c-2.98,37.27 -32.86,65.29 -66.75,62.58 -33.86,-2.69 -58.93,-35.12 -55.94,-72.4 2.98,-37.27 32.83,-65.3 66.73,-62.61 33.88,2.7 58.93,35.13 55.96,72.43z"/>
      <path class="fil9" d="M1658.92 1441.75c-2.98,37.3 -32.83,65.33 -66.73,62.62 -33.86,-2.71 -58.91,-35.14 -55.96,-72.38 3.02,-37.31 32.86,-65.34 66.75,-62.63 33.88,2.7 58.91,35.13 55.94,72.39z"/>
     </g>
     <path class="fil6" d="M2079.37 5620.22l-61.26 -316.01c-11.91,-63.62 20.76,-127.11 79.81,-154.27l67.4 -30.87c74.62,-33.74 161.74,-23.73 226.32,26.79l237.97 185.36c37.01,29.41 88.5,33.03 129.4,8.97l13.26 -7.72 188.44 -109.67c0,0 1019.83,-856.46 1314.71,-551.56 140.09,210.96 29.99,496.88 -214.41,560.37l-937.6 243.06 -251.88 65.47 -165.82 43.27c-33.69,8.25 -69.36,7.57 -102.41,-2.58l-341.17 -106.24c-23,-7.26 -46.89,7.34 -51,31.22l-38.87 120.13c-15.08,47.12 -83.55,42.93 -92.91,-5.71z"/>
     <path class="fil6" d="M1712.99 5620.22l61.26 -316.01c11.92,-63.62 -20.77,-127.11 -79.81,-154.27l-67.41 -30.87c-74.59,-33.74 -161.72,-23.73 -226.32,26.79l-237.95 185.36c-37.04,29.41 -88.51,33.03 -129.41,8.97l-13.28 -7.72 -188.42 -109.67c0,0 -1019.82,-856.46 -1314.72,-551.56 -140.09,210.96 -29.98,496.88 214.42,560.37l937.6 243.06 251.9 65.47 165.79 43.27c33.7,8.25 69.36,7.57 102.41,-2.58l341.17 -106.24c22.98,-7.26 46.91,7.34 51.01,31.22l38.89 120.13c15.07,47.12 83.52,42.93 92.89,-5.71z"/>
     <g>
      <g>
       <polygon class="fil10" points="3270.93,6015.26 413.14,6015.26 413.14,4175.14 3270.93,4175.14 "/>
       <path class="fil11" d="M3316.92 6015.26l-2949.78 0c-39.48,0 -71.49,31.99 -71.49,71.47 0,39.48 32.01,71.47 71.49,71.47l2949.78 0c39.48,0 71.48,-31.99 71.48,-71.47 0,-39.48 -32,-71.47 -71.48,-71.47z"/>
      </g>
      <path class="fil12" d="M2108.22 5226.07c0,137.5 -111.47,248.97 -248.96,248.97 -137.49,0 -248.96,-111.47 -248.96,-248.97 0,-137.49 111.47,-248.96 248.96,-248.96 137.49,0 248.96,111.47 248.96,248.96z"/>
     </g>
     <g>
      <path class="fil3" d="M-654.96 6349.8c47.83,211.01 214.61,364.04 413.08,406.47 17.33,3.6 35.26,6.58 53.18,8.38 688.05,188.9 1446.05,322.8 2262.02,410.68 222.38,24.52 449.53,44.84 680.27,62.19l398.74 370.6c3.58,2.99 7.17,6.56 11.35,9.56 179.34,141.09 437.58,-22.12 398.72,-246.86l-23.3 -132.71c0,-1.2 -0.61,-1.8 -0.61,-2.39 -47.82,-130.32 -164.38,-222.99 -300.67,-247.49l-412.47 -75.31c-199.07,-62.77 -395.13,-126.15 -585.83,-190.11 -830.31,-278.56 -1569.79,-575.07 -2140.68,-977.36 -105.2,-49.62 -226.54,-66.37 -348.49,-38.86 -289.35,65.76 -471.06,353.9 -405.3,643.22z"/>
      <path class="fil9" d="M2073.32 7175.32c222.38,24.52 449.53,44.84 680.27,62.19l398.74 370.6c3.58,2.99 7.17,6.56 11.35,9.56 179.34,141.09 437.58,-22.12 398.72,-246.86l-23.3 -132.71c0,-1.2 -0.61,-1.8 -0.61,-2.39 -47.82,-130.32 -164.38,-222.99 -300.67,-247.49l-412.47 -75.31c-199.07,-62.77 -395.13,-126.15 -585.83,-190.11l-166.19 452.52z"/>
      <path class="fil3" d="M629.68 7584.18c4.17,-3.58 7.77,-6.56 11.37,-9.55l404.09 -375.99c206.24,-21.52 410.09,-43.64 609.75,-66.95 889.49,-102.82 1700.08,-225.37 2297.28,-402.31 17.92,-1.8 35.27,-4.79 53.2,-8.39 198.47,-41.84 364.63,-194.88 412.47,-406.49 65.74,-289.31 -115.38,-576.85 -404.71,-642.61 -121.94,-27.49 -243.29,-11.38 -348.51,38.83 -612.11,395.75 -1337.83,715.56 -2138.84,983.36 -201.46,68.16 -407.71,132.12 -618.14,193.69l0.61 2.4 -353.29 64.55c-135.7,24.52 -252.26,117.16 -300.08,246.88 0,1.21 -0.61,1.8 -0.61,2.99l-23.3 132.71c-38.86,224.77 219.39,387.35 398.72,246.86z"/>
      <path class="fil9" d="M629.68 7584.18c4.17,-3.58 7.77,-6.56 11.37,-9.55l404.09 -375.99c206.24,-21.52 410.09,-43.64 609.75,-66.95 -32.29,-110.6 -85.49,-289.33 -129.11,-437.59 -201.46,68.16 -407.71,132.12 -618.14,193.69l0.61 2.4 -353.29 64.55c-135.7,24.52 -252.26,117.16 -300.08,246.88 0,1.21 -0.61,1.8 -0.61,2.99l-23.3 132.71c-38.86,224.77 219.39,387.35 398.72,246.86z"/>
     </g>
     <g>
      <path class="fil2" d="M2234.45 2324.12c-8.48,-20.87 -42.8,-11.76 -34.21,9.44 203.31,501.12 -917.28,586.38 -771.25,-7.72 5.44,-22.17 -28.76,-31.61 -34.21,-9.44 -160.33,652.27 1064.13,560.97 839.67,7.72z"/>
     </g>
     <g>
      <path class="fil13" d="M2201.73 3178.03c0,2.37 -1.97,4.33 -4.33,4.33l-34.33 0c-2.37,0 -4.33,-1.97 -4.33,-4.33l0 -34.33c0,-2.37 1.97,-4.33 4.33,-4.33l34.33 0c2.37,0 4.33,1.97 4.33,4.33l0 34.33z"/>
      <path class="fil13" d="M2150.04 3075.45c0,2.37 -1.97,4.33 -4.33,4.33l-34.32 0c-2.37,0 -4.34,-1.98 -4.34,-4.34l0 -34.72c0,-2.37 1.98,-4.33 4.34,-4.33l34.32 0c2.37,0 4.33,1.97 4.33,4.33l0 34.73z"/>
      <path class="fil13" d="M2201.73 3075.45c0,2.37 -1.97,4.33 -4.33,4.33l-34.33 0c-2.37,0 -4.33,-1.98 -4.33,-4.34l0 -34.72c0,-2.37 1.97,-4.33 4.33,-4.33l34.33 0c2.37,0 4.33,1.97 4.33,4.33l0 34.73z"/>
      <path class="fil13" d="M2098.75 3126.74c0,2.37 -1.97,4.33 -4.33,4.33l-34.33 0c-2.37,0 -4.33,-1.97 -4.33,-4.33l0 -34.72c0,-2.37 1.97,-4.34 4.33,-4.34l34.33 0c2.37,0 4.33,1.98 4.33,4.34l0 34.72z"/>
      <path class="fil13" d="M2150.04 3126.74c0,2.37 -1.97,4.33 -4.33,4.33l-34.32 0c-2.37,0 -4.34,-1.97 -4.34,-4.33l0 -34.72c0,-2.37 1.98,-4.34 4.34,-4.34l34.32 0c2.37,0 4.33,1.98 4.33,4.34l0 34.72z"/>
      <path class="fil13" d="M2098.75 3178.03c0,2.37 -1.97,4.33 -4.33,4.33l-34.33 0c-2.37,0 -4.33,-1.97 -4.33,-4.33l0 -34.33c0,-2.37 1.97,-4.33 4.33,-4.33l34.33 0c2.37,0 4.33,1.97 4.33,4.33l0 34.33z"/>
      <path class="fil13" d="M2150.04 3178.03c0,2.37 -1.97,4.33 -4.33,4.33l-34.32 0c-2.37,0 -4.34,-1.97 -4.34,-4.33l0 -34.33c0,-2.37 1.98,-4.33 4.34,-4.33l34.32 0c2.37,0 4.33,1.97 4.33,4.33l0 34.33z"/>
      <path class="fil13" d="M2098.75 3229.32c0,2.37 -1.97,4.34 -4.33,4.34l-34.33 0c-2.37,0 -4.33,-1.98 -4.33,-4.34l0 -34.33c0,-2.37 1.97,-4.33 4.33,-4.33l34.33 0c2.37,0 4.33,1.97 4.33,4.33l0 34.33z"/>
      <path class="fil13" d="M2150.04 3229.32c0,2.37 -1.97,4.34 -4.33,4.34l-34.32 0c-2.37,0 -4.34,-1.98 -4.34,-4.34l0 -34.33c0,-2.37 1.98,-4.33 4.34,-4.33l34.32 0c2.37,0 4.33,1.97 4.33,4.33l0 34.33z"/>
      <path class="fil14" d="M2101.12 3058.08c0,13.02 -10.65,23.68 -23.67,23.68 -13.01,0 -23.67,-10.66 -23.67,-23.68 0,-13.01 10.66,-23.67 23.67,-23.67 13.02,0 23.67,10.66 23.67,23.67z"/>
      <path class="fil15" d="M2231.54 3129.88l0 -42.66 9.06 0 0 42.66 -9.06 0zm57.7 0l-11.51 0 -18.59 -32.27 -0.26 0c0.37,5.7 0.56,9.77 0.56,12.2l0 20.08 -8.1 0 0 -42.66 11.43 0 18.56 31.95 0.21 0c-0.3,-5.54 -0.44,-9.47 -0.44,-11.76l0 -20.2 8.14 0 0 42.66zm35.99 -11.83c0,3.86 -1.4,6.88 -4.16,9.1 -2.78,2.22 -6.64,3.33 -11.6,3.33 -4.55,0 -8.59,-0.86 -12.1,-2.57l0 -8.41c2.89,1.29 5.32,2.2 7.32,2.73 2,0.52 3.83,0.78 5.47,0.78 2,0 3.53,-0.38 4.58,-1.13 1.07,-0.76 1.59,-1.9 1.59,-3.39 0,-0.84 -0.23,-1.59 -0.69,-2.24 -0.47,-0.65 -1.16,-1.28 -2.07,-1.88 -0.91,-0.61 -2.76,-1.58 -5.53,-2.89 -2.62,-1.24 -4.57,-2.41 -5.88,-3.54 -1.31,-1.13 -2.35,-2.44 -3.13,-3.95 -0.79,-1.49 -1.18,-3.25 -1.18,-5.24 0,-3.78 1.29,-6.74 3.86,-8.9 2.56,-2.17 6.1,-3.24 10.62,-3.24 2.23,0 4.33,0.26 6.36,0.79 2.02,0.52 4.12,1.26 6.32,2.22l-2.92 7.03c-2.29,-0.94 -4.17,-1.59 -5.66,-1.96 -1.49,-0.37 -2.96,-0.56 -4.39,-0.56 -1.71,0 -3.03,0.4 -3.95,1.2 -0.92,0.8 -1.38,1.84 -1.38,3.13 0,0.8 0.19,1.5 0.56,2.08 0.37,0.6 0.96,1.17 1.76,1.73 0.82,0.56 2.73,1.55 5.75,2.99 4,1.91 6.73,3.83 8.22,5.73 1.47,1.92 2.22,4.26 2.22,7.05zm24.81 11.83l-9.06 0 0 -35.13 -11.6 0 0 -7.53 32.25 0 0 7.53 -11.6 0 0 35.13zm18.18 0l0 -42.66 9.05 0 0 42.66 -9.05 0zm36.29 0l-9.06 0 0 -35.13 -11.61 0 0 -7.53 32.26 0 0 7.53 -11.6 0 0 35.13zm52.96 -42.66l0 27.62c0,3.15 -0.71,5.91 -2.12,8.28 -1.42,2.38 -3.45,4.19 -6.12,5.45 -2.68,1.27 -5.82,1.91 -9.47,1.91 -5.49,0 -9.76,-1.41 -12.8,-4.22 -3.04,-2.81 -4.55,-6.65 -4.55,-11.54l0 -27.5 9.03 0 0 26.12c0,3.3 0.66,5.7 1.98,7.24 1.33,1.55 3.53,2.31 6.59,2.31 2.96,0 5.1,-0.77 6.43,-2.32 1.35,-1.54 2.01,-3.98 2.01,-7.28l0 -26.07 9.03 0zm26.93 42.66l-9.06 0 0 -35.13 -11.6 0 0 -7.53 32.25 0 0 7.53 -11.6 0 0 35.13zm55.76 -21.37c0,7.07 -1.75,12.49 -5.25,16.29 -3.52,3.79 -8.54,5.68 -15.08,5.68 -6.54,0 -11.58,-1.9 -15.08,-5.68 -3.52,-3.8 -5.25,-9.24 -5.25,-16.34 0,-7.1 1.75,-12.52 5.27,-16.27 3.52,-3.75 8.56,-5.61 15.12,-5.61 6.56,0 11.59,1.88 15.06,5.65 3.48,3.78 5.21,9.2 5.21,16.28zm-31.18 0c0,4.76 0.91,8.35 2.72,10.77 1.82,2.42 4.52,3.62 8.13,3.62 7.23,0 10.84,-4.79 10.84,-14.38 0,-9.61 -3.59,-14.41 -10.78,-14.41 -3.62,0 -6.32,1.22 -8.16,3.64 -1.83,2.42 -2.75,6.01 -2.75,10.78zm64.49 21.37l-8.92 0 0 -42.66 24.5 0 0 7.41 -15.58 0 0 11 14.5 0 0 7.4 -14.5 0 0 16.85zm49.13 0l-24.6 0 0 -42.66 24.6 0 0 7.41 -15.55 0 0 9.38 14.46 0 0 7.41 -14.46 0 0 10.99 15.55 0 0 7.47zm44.34 -21.73c0,7.02 -2,12.4 -5.99,16.13 -4.02,3.74 -9.79,5.6 -17.35,5.6l-12.09 0 0 -42.66 13.4 0c6.97,0 12.39,1.85 16.24,5.52 3.86,3.68 5.78,8.81 5.78,15.4zm-9.41 0.23c0,-9.16 -4.05,-13.74 -12.15,-13.74l-4.82 0 0 27.78 3.9 0c8.72,0 13.07,-4.67 13.07,-14.03zm42.88 21.5l-24.61 0 0 -42.66 24.61 0 0 7.41 -15.55 0 0 9.38 14.46 0 0 7.41 -14.46 0 0 10.99 15.55 0 0 7.47zm17.96 -23.71l2.93 0c2.87,0 4.97,-0.48 6.33,-1.44 1.37,-0.95 2.05,-2.45 2.05,-4.49 0,-2.02 -0.7,-3.46 -2.09,-4.31 -1.4,-0.86 -3.56,-1.29 -6.47,-1.29l-2.75 0 0 11.54zm0 7.34l0 16.37 -9.05 0 0 -42.66 12.45 0c5.8,0 10.09,1.06 12.87,3.18 2.8,2.11 4.17,5.31 4.17,9.61 0,2.51 -0.69,4.73 -2.08,6.69 -1.37,1.96 -3.33,3.49 -5.85,4.59 6.42,9.59 10.61,15.79 12.55,18.59l-10.06 0 -10.19 -16.37 -4.82 0zm56.61 16.37l-3.11 -10.16 -15.57 0 -3.1 10.16 -9.76 0 15.07 -42.83 11.08 0 15.14 42.83 -9.76 0zm-5.26 -17.74c-2.87,-9.2 -4.48,-14.41 -4.83,-15.61 -0.37,-1.21 -0.62,-2.17 -0.77,-2.87 -0.65,2.5 -2.5,8.65 -5.53,18.48l11.14 0zm20.4 17.74l0 -42.66 9.05 0 0 35.19 17.34 0 0 7.47 -26.39 0z"/>
      <path class="fil15" d="M2250.63 3173.79c0,2.93 -1.06,5.2 -3.19,6.84 -2.13,1.64 -5,2.46 -8.66,2.46 -3.95,0 -6.98,-0.51 -9.1,-1.53l0 -3.74c1.36,0.58 2.85,1.03 4.45,1.37 1.61,0.33 3.21,0.5 4.78,0.5 2.59,0 4.53,-0.49 5.83,-1.47 1.31,-0.97 1.96,-2.33 1.96,-4.08 0,-1.15 -0.23,-2.1 -0.69,-2.83 -0.47,-0.74 -1.25,-1.41 -2.33,-2.04 -1.09,-0.62 -2.75,-1.33 -4.95,-2.12 -3.1,-1.11 -5.31,-2.42 -6.64,-3.93 -1.33,-1.52 -2,-3.5 -2,-5.94 0,-2.56 0.97,-4.59 2.9,-6.11 1.94,-1.51 4.48,-2.28 7.65,-2.28 3.32,0 6.36,0.61 9.14,1.82l-1.21 3.37c-2.76,-1.16 -5.42,-1.74 -8.02,-1.74 -2.05,0 -3.66,0.45 -4.8,1.32 -1.16,0.89 -1.74,2.11 -1.74,3.68 0,1.16 0.22,2.1 0.64,2.83 0.43,0.74 1.15,1.42 2.16,2.03 1.01,0.62 2.56,1.29 4.63,2.04 3.5,1.24 5.89,2.58 7.21,4.01 1.31,1.42 1.97,3.27 1.97,5.54zm172.74 9.3c-3.7,0 -6.6,-1.13 -8.74,-3.37 -2.14,-2.25 -3.2,-5.36 -3.2,-9.36 0,-4.02 0.99,-7.2 2.97,-9.57 1.99,-2.37 4.64,-3.55 7.99,-3.55 3.12,0 5.6,1.02 7.42,3.08 1.82,2.06 2.74,4.76 2.74,8.13l0 2.39 -17.2 0c0.08,2.93 0.82,5.14 2.22,6.66 1.41,1.52 3.39,2.28 5.94,2.28 2.68,0 5.33,-0.56 7.96,-1.69l0 3.37c-1.34,0.59 -2.6,1 -3.8,1.26 -1.19,0.24 -2.63,0.37 -4.3,0.37zm-1.03 -22.67c-2.01,0 -3.61,0.65 -4.79,1.96 -1.19,1.29 -1.9,3.09 -2.1,5.39l13.03 0c0,-2.37 -0.52,-4.19 -1.59,-5.46 -1.07,-1.26 -2.59,-1.89 -4.55,-1.89zm28.03 -3.17c1.1,0 2.1,0.09 2.98,0.27l-0.52 3.52c-1.04,-0.23 -1.95,-0.34 -2.74,-0.34 -2.02,0 -3.74,0.81 -5.17,2.45 -1.44,1.64 -2.15,3.68 -2.15,6.11l0 13.36 -3.79 0 0 -24.91 3.13 0 0.43 4.6 0.18 0c0.93,-1.62 2.04,-2.87 3.35,-3.75 1.31,-0.88 2.74,-1.32 4.3,-1.32zm24.74 25.37l0 -16.11c0,-2.04 -0.46,-3.55 -1.39,-4.55 -0.93,-1 -2.39,-1.5 -4.35,-1.5 -2.61,0 -4.52,0.71 -5.74,2.12 -1.21,1.41 -1.82,3.74 -1.82,6.98l0 13.06 -3.79 0 0 -24.91 3.08 0 0.61 3.41 0.19 0c0.78,-1.23 1.86,-2.19 3.26,-2.86 1.4,-0.68 2.96,-1.01 4.67,-1.01 3.01,0 5.26,0.72 6.78,2.17 1.53,1.45 2.28,3.77 2.28,6.95l0 16.25 -3.78 0zm26.89 0l-0.76 -3.55 -0.18 0c-1.25,1.56 -2.49,2.63 -3.72,3.19 -1.25,0.55 -2.79,0.83 -4.63,0.83 -2.49,0 -4.41,-0.64 -5.82,-1.91 -1.4,-1.29 -2.11,-3.1 -2.11,-5.45 0,-5.03 4.04,-7.67 12.09,-7.91l4.23 -0.14 0 -1.55c0,-1.95 -0.42,-3.39 -1.26,-4.31 -0.84,-0.94 -2.19,-1.4 -4.04,-1.4 -2.09,0 -4.43,0.63 -7.06,1.91l-1.16 -2.89c1.23,-0.67 2.58,-1.2 4.04,-1.58 1.47,-0.38 2.94,-0.57 4.4,-0.57 2.98,0 5.17,0.66 6.61,1.99 1.44,1.32 2.16,3.43 2.16,6.33l0 17.01 -2.8 0zm-8.55 -2.66c2.37,0 4.2,-0.64 5.55,-1.93 1.34,-1.29 2.02,-3.09 2.02,-5.4l0 -2.26 -3.79 0.17c-3.01,0.1 -5.17,0.56 -6.5,1.39 -1.33,0.83 -1.99,2.12 -1.99,3.86 0,1.36 0.41,2.41 1.24,3.11 0.83,0.72 1.99,1.07 3.47,1.07zm50.94 2.66l0 -16.21c0,-1.98 -0.42,-3.47 -1.27,-4.45 -0.85,-1 -2.17,-1.5 -3.96,-1.5 -2.37,0 -4.1,0.68 -5.22,2.03 -1.12,1.35 -1.69,3.43 -1.69,6.22l0 13.91 -3.78 0 0 -16.21c0,-1.98 -0.43,-3.47 -1.27,-4.45 -0.85,-1 -2.18,-1.5 -4,-1.5 -2.36,0 -4.1,0.71 -5.19,2.13 -1.1,1.42 -1.65,3.75 -1.65,6.97l0 13.06 -3.79 0 0 -24.91 3.08 0 0.61 3.41 0.19 0c0.71,-1.22 1.72,-2.16 3.02,-2.85 1.3,-0.68 2.76,-1.02 4.36,-1.02 3.89,0 6.44,1.41 7.64,4.22l0.18 0c0.75,-1.3 1.83,-2.34 3.24,-3.1 1.41,-0.75 3.03,-1.13 4.82,-1.13 2.83,0 4.93,0.72 6.34,2.17 1.41,1.45 2.11,3.77 2.11,6.95l0 16.25 -3.79 0zm23.19 -25.33c3.29,0 5.83,1.12 7.65,3.36 1.82,2.25 2.73,5.41 2.73,9.5 0,4.1 -0.92,7.28 -2.75,9.55 -1.84,2.26 -4.37,3.4 -7.63,3.4 -1.62,0 -3.11,-0.31 -4.44,-0.9 -1.34,-0.6 -2.48,-1.53 -3.39,-2.77l-0.27 0 -0.8 3.2 -2.71 0 0 -35.38 3.78 0 0 8.59c0,1.93 -0.06,3.66 -0.18,5.19l0.18 0c1.77,-2.49 4.37,-3.74 7.83,-3.74zm-0.54 3.17c-2.59,0 -4.43,0.74 -5.58,2.23 -1.14,1.47 -1.71,3.97 -1.71,7.46 0,3.5 0.58,6 1.76,7.51 1.16,1.51 3.05,2.27 5.62,2.27 2.33,0 4.07,-0.85 5.19,-2.54 1.15,-1.69 1.71,-4.12 1.71,-7.29 0,-3.24 -0.56,-5.65 -1.71,-7.24 -1.13,-1.6 -2.9,-2.4 -5.28,-2.4zm21.06 -2.75l0 16.17c0,2.02 0.46,3.55 1.39,4.54 0.93,1 2.38,1.5 4.35,1.5 2.62,0 4.51,-0.72 5.72,-2.14 1.21,-1.43 1.82,-3.76 1.82,-6.98l0 -13.09 3.78 0 0 24.91 -3.12 0 -0.55 -3.33 -0.2 0c-0.77,1.23 -1.86,2.17 -3.23,2.82 -1.37,0.65 -2.95,0.98 -4.7,0.98 -3.04,0 -5.31,-0.72 -6.83,-2.16 -1.51,-1.45 -2.26,-3.75 -2.26,-6.91l0 -16.31 3.83 0zm35.05 25.38c-3.62,0 -6.41,-1.11 -8.4,-3.33 -1.98,-2.23 -2.97,-5.37 -2.97,-9.43 0,-4.17 1,-7.4 3.02,-9.67 2.02,-2.28 4.87,-3.42 8.6,-3.42 1.2,0 2.39,0.13 3.6,0.39 1.2,0.25 2.14,0.56 2.82,0.91l-1.16 3.21c-0.84,-0.33 -1.75,-0.6 -2.74,-0.83 -0.98,-0.22 -1.85,-0.33 -2.62,-0.33 -5.06,0 -7.6,3.24 -7.6,9.69 0,3.06 0.62,5.4 1.85,7.04 1.25,1.64 3.08,2.46 5.5,2.46 2.08,0 4.21,-0.45 6.4,-1.35l0 3.36c-1.67,0.86 -3.78,1.3 -6.3,1.3zm27.57 -0.47l-0.75 -3.55 -0.19 0c-1.25,1.56 -2.48,2.63 -3.72,3.19 -1.25,0.55 -2.79,0.83 -4.63,0.83 -2.48,0 -4.41,-0.64 -5.82,-1.91 -1.4,-1.29 -2.11,-3.1 -2.11,-5.45 0,-5.03 4.04,-7.67 12.09,-7.91l4.23 -0.14 0 -1.55c0,-1.95 -0.42,-3.39 -1.25,-4.31 -0.86,-0.94 -2.2,-1.4 -4.05,-1.4 -2.09,0 -4.43,0.63 -7.06,1.91l-1.16 -2.89c1.23,-0.67 2.58,-1.2 4.04,-1.58 1.47,-0.38 2.94,-0.57 4.4,-0.57 2.98,0 5.17,0.66 6.62,1.99 1.44,1.32 2.15,3.43 2.15,6.33l0 17.01 -2.8 0zm-8.54 -2.66c2.35,0 4.2,-0.64 5.53,-1.93 1.35,-1.29 2.03,-3.09 2.03,-5.4l0 -2.26 -3.79 0.17c-3,0.1 -5.16,0.56 -6.5,1.39 -1.33,0.83 -1.99,2.12 -1.99,3.86 0,1.36 0.42,2.41 1.25,3.11 0.82,0.72 1.98,1.07 3.47,1.07zm36.22 2.66l0 -16.11c0,-2.04 -0.45,-3.55 -1.39,-4.55 -0.93,-1 -2.38,-1.5 -4.35,-1.5 -2.61,0 -4.52,0.71 -5.73,2.12 -1.23,1.41 -1.83,3.74 -1.83,6.98l0 13.06 -3.78 0 0 -24.91 3.07 0 0.62 3.41 0.19 0c0.77,-1.23 1.85,-2.19 3.25,-2.86 1.4,-0.68 2.96,-1.01 4.67,-1.01 3.01,0 5.27,0.72 6.78,2.17 1.53,1.45 2.28,3.77 2.28,6.95l0 16.25 -3.78 0zm33.08 -12.47c0,4.07 -1.02,7.24 -3.07,9.52 -2.05,2.29 -4.88,3.43 -8.5,3.43 -2.23,0 -4.21,-0.52 -5.94,-1.57 -1.73,-1.05 -3.07,-2.56 -4.01,-4.51 -0.95,-1.95 -1.41,-4.23 -1.41,-6.86 0,-4.07 1.01,-7.23 3.05,-9.5 2.03,-2.27 4.86,-3.4 8.47,-3.4 3.5,0 6.26,1.16 8.32,3.48 2.07,2.32 3.09,5.46 3.09,9.42zm-19.01 0c0,3.18 0.64,5.61 1.91,7.28 1.28,1.67 3.15,2.5 5.62,2.5 2.48,0 4.35,-0.83 5.64,-2.5 1.28,-1.66 1.92,-4.09 1.92,-7.28 0,-3.17 -0.64,-5.57 -1.92,-7.22 -1.29,-1.64 -3.19,-2.47 -5.68,-2.47 -2.48,0 -4.34,0.81 -5.6,2.44 -1.26,1.62 -1.89,4.04 -1.89,7.25zm-425.06 12.94c-3.7,0 -6.6,-1.13 -8.73,-3.37 -2.14,-2.25 -3.21,-5.36 -3.21,-9.36 0,-4.02 0.99,-7.2 2.97,-9.57 1.99,-2.37 4.64,-3.55 7.99,-3.55 3.13,0 5.6,1.02 7.42,3.08 1.82,2.06 2.74,4.76 2.74,8.13l0 2.39 -17.19 0c0.07,2.93 0.81,5.14 2.21,6.66 1.41,1.52 3.39,2.28 5.94,2.28 2.68,0 5.34,-0.56 7.96,-1.69l0 3.37c-1.33,0.59 -2.6,1 -3.79,1.26 -1.19,0.24 -2.63,0.37 -4.31,0.37zm-1.03 -22.67c-2.01,0 -3.6,0.65 -4.78,1.96 -1.2,1.29 -1.9,3.09 -2.11,5.39l13.04 0c0,-2.37 -0.53,-4.19 -1.6,-5.46 -1.06,-1.26 -2.58,-1.89 -4.55,-1.89zm28.03 -3.17c1.11,0 2.11,0.09 2.99,0.27l-0.53 3.52c-1.03,-0.23 -1.94,-0.34 -2.74,-0.34 -2.01,0 -3.74,0.81 -5.17,2.45 -1.43,1.64 -2.15,3.68 -2.15,6.11l0 13.36 -3.79 0 0 -24.91 3.13 0 0.43 4.6 0.18 0c0.93,-1.62 2.04,-2.87 3.35,-3.75 1.31,-0.88 2.74,-1.32 4.3,-1.32zm15.72 22.71c0.67,0 1.31,-0.04 1.94,-0.14 0.62,-0.1 1.11,-0.2 1.47,-0.31l0 2.89c-0.41,0.2 -1.01,0.36 -1.81,0.49 -0.79,0.14 -1.52,0.2 -2.16,0.2 -4.82,0 -7.23,-2.54 -7.23,-7.62l0 -14.82 -3.58 0 0 -1.82 3.58 -1.57 1.59 -5.32 2.19 0 0 5.77 7.24 0 0 2.94 -7.24 0 0 14.66c0,1.5 0.36,2.65 1.08,3.46 0.71,0.8 1.69,1.2 2.94,1.2zm23.74 2.66l-0.75 -3.55 -0.19 0c-1.24,1.56 -2.48,2.63 -3.72,3.19 -1.24,0.55 -2.79,0.83 -4.63,0.83 -2.48,0 -4.41,-0.64 -5.82,-1.91 -1.4,-1.29 -2.1,-3.1 -2.1,-5.45 0,-5.03 4.03,-7.67 12.09,-7.91l4.23 -0.14 0 -1.55c0,-1.95 -0.42,-3.39 -1.27,-4.31 -0.84,-0.94 -2.19,-1.4 -4.04,-1.4 -2.08,0 -4.43,0.63 -7.05,1.91l-1.16 -2.89c1.22,-0.67 2.57,-1.2 4.03,-1.58 1.48,-0.38 2.94,-0.57 4.41,-0.57 2.97,0 5.17,0.66 6.61,1.99 1.44,1.32 2.16,3.43 2.16,6.33l0 17.01 -2.81 0zm-8.54 -2.66c2.36,0 4.2,-0.64 5.54,-1.93 1.35,-1.29 2.02,-3.09 2.02,-5.4l0 -2.26 -3.79 0.17c-3,0.1 -5.16,0.56 -6.49,1.39 -1.34,0.83 -1.99,2.12 -1.99,3.86 0,1.36 0.4,2.41 1.24,3.11 0.82,0.72 1.98,1.07 3.47,1.07zm5.59 -25.6c-0.65,0 -1.29,-0.14 -1.91,-0.42 -0.62,-0.28 -1.24,-0.59 -1.84,-0.93 -0.6,-0.35 -1.18,-0.66 -1.72,-0.94 -0.57,-0.28 -1.11,-0.42 -1.62,-0.42 -0.76,0 -1.33,0.23 -1.71,0.68 -0.39,0.46 -0.7,1.15 -0.91,2.07l-2.23 0c0.19,-1.83 0.73,-3.27 1.6,-4.3 0.88,-1.04 2.01,-1.56 3.39,-1.56 0.7,0 1.37,0.14 2.02,0.42 0.66,0.28 1.29,0.59 1.88,0.93 0.59,0.34 1.16,0.66 1.71,0.94 0.55,0.28 1.06,0.42 1.55,0.42 0.75,0 1.3,-0.22 1.67,-0.67 0.36,-0.45 0.66,-1.15 0.88,-2.09l2.26 0c-0.19,1.84 -0.72,3.28 -1.59,4.31 -0.85,1.04 -2,1.56 -3.43,1.56zm35.09 15.78c0,4.07 -1.03,7.24 -3.08,9.52 -2.05,2.29 -4.88,3.43 -8.5,3.43 -2.23,0 -4.21,-0.52 -5.94,-1.57 -1.73,-1.05 -3.07,-2.56 -4.01,-4.51 -0.95,-1.95 -1.41,-4.23 -1.41,-6.86 0,-4.07 1.02,-7.23 3.06,-9.5 2.03,-2.27 4.85,-3.4 8.46,-3.4 3.5,0 6.26,1.16 8.32,3.48 2.07,2.32 3.1,5.46 3.1,9.42zm-19.02 0c0,3.18 0.64,5.61 1.91,7.28 1.28,1.67 3.15,2.5 5.63,2.5 2.47,0 4.34,-0.83 5.63,-2.5 1.28,-1.66 1.92,-4.09 1.92,-7.28 0,-3.17 -0.64,-5.57 -1.92,-7.22 -1.29,-1.64 -3.18,-2.47 -5.68,-2.47 -2.48,0 -4.34,0.81 -5.6,2.44 -1.26,1.62 -1.89,4.04 -1.89,7.25zm59.43 -11.08c0,3.36 -1.15,5.94 -3.45,7.75 -2.3,1.81 -5.58,2.72 -9.87,2.72l-3.92 0 0 13.08 -3.88 0 0 -33.24 8.63 0c8.31,0 12.47,3.23 12.47,9.69zm-17.23 7.16l3.48 0c3.44,0 5.91,-0.55 7.45,-1.66 1.53,-1.1 2.3,-2.88 2.3,-5.31 0,-2.2 -0.72,-3.84 -2.16,-4.91 -1.45,-1.08 -3.7,-1.61 -6.75,-1.61l-4.31 0 0 13.49z"/>
      <path class="fil15" d="M2245.48 3204.54c-3.54,0 -6.33,1.18 -8.39,3.54 -2.05,2.36 -3.07,5.57 -3.07,9.67 0,4.21 0.99,7.46 2.97,9.76 1.97,2.3 4.78,3.45 8.45,3.45 2.25,0 4.81,-0.41 7.69,-1.21l0 3.29c-2.24,0.84 -4.98,1.26 -8.27,1.26 -4.74,0 -8.41,-1.44 -10.98,-4.31 -2.59,-2.88 -3.88,-6.96 -3.88,-12.26 0,-3.32 0.62,-6.22 1.86,-8.72 1.25,-2.5 3.04,-4.41 5.38,-5.76 2.34,-1.35 5.1,-2.03 8.28,-2.03 3.39,0 6.33,0.62 8.86,1.85l-1.59 3.21c-2.44,-1.15 -4.87,-1.72 -7.32,-1.72zm28.99 29.29l-0.73 -3.44 -0.18 0c-1.21,1.51 -2.41,2.54 -3.61,3.08 -1.2,0.54 -2.69,0.81 -4.47,0.81 -2.41,0 -4.27,-0.62 -5.64,-1.85 -1.35,-1.24 -2.04,-2.99 -2.04,-5.27 0,-4.87 3.91,-7.43 11.71,-7.66l4.1 -0.13 0 -1.5c0,-1.89 -0.41,-3.29 -1.22,-4.18 -0.82,-0.9 -2.12,-1.35 -3.92,-1.35 -2.01,0 -4.28,0.61 -6.83,1.85l-1.12 -2.8c1.19,-0.65 2.49,-1.16 3.91,-1.53 1.42,-0.36 2.85,-0.55 4.26,-0.55 2.89,0 5.01,0.64 6.4,1.92 1.4,1.28 2.09,3.33 2.09,6.13l0 16.47 -2.71 0zm-8.27 -2.57c2.28,0 4.08,-0.63 5.36,-1.88 1.3,-1.24 1.96,-2.99 1.96,-5.23l0 -2.18 -3.67 0.16c-2.91,0.1 -5,0.55 -6.29,1.35 -1.29,0.8 -1.93,2.05 -1.93,3.73 0,1.33 0.4,2.33 1.21,3.02 0.8,0.69 1.92,1.04 3.36,1.04zm49.3 2.57l0 -15.69c0,-1.92 -0.41,-3.36 -1.24,-4.31 -0.82,-0.97 -2.1,-1.45 -3.83,-1.45 -2.28,0 -3.96,0.66 -5.04,1.96 -1.09,1.31 -1.64,3.32 -1.64,6.03l0 13.46 -3.66 0 0 -15.69c0,-1.92 -0.41,-3.36 -1.23,-4.31 -0.83,-0.97 -2.12,-1.45 -3.87,-1.45 -2.29,0 -3.97,0.69 -5.03,2.06 -1.06,1.37 -1.6,3.63 -1.6,6.74l0 12.65 -3.65 0 0 -24.11 2.97 0 0.6 3.29 0.17 0c0.69,-1.17 1.67,-2.09 2.93,-2.75 1.26,-0.66 2.67,-0.99 4.21,-0.99 3.78,0 6.24,1.37 7.4,4.1l0.18 0c0.72,-1.27 1.77,-2.27 3.13,-3 1.37,-0.73 2.93,-1.1 4.67,-1.1 2.73,0 4.77,0.7 6.13,2.1 1.36,1.4 2.05,3.65 2.05,6.72l0 15.74 -3.67 0zm22.44 0.45c-1.57,0 -3.01,-0.29 -4.3,-0.87 -1.3,-0.58 -2.39,-1.48 -3.28,-2.68l-0.26 0c0.17,1.41 0.26,2.74 0.26,4.01l0 9.91 -3.66 0 0 -34.93 2.98 0 0.51 3.29 0.17 0c0.95,-1.32 2.05,-2.27 3.3,-2.86 1.24,-0.59 2.68,-0.88 4.28,-0.88 3.22,0 5.68,1.1 7.43,3.28 1.74,2.19 2.61,5.25 2.61,9.21 0,3.97 -0.88,7.04 -2.66,9.24 -1.77,2.19 -4.22,3.29 -7.38,3.29zm-0.52 -21.9c-2.47,0 -4.26,0.69 -5.35,2.05 -1.11,1.37 -1.68,3.54 -1.71,6.51l0 0.82c0,3.39 0.57,5.81 1.71,7.27 1.13,1.46 2.95,2.19 5.44,2.19 2.08,0 3.73,-0.84 4.9,-2.53 1.18,-1.7 1.78,-4.02 1.78,-6.98 0,-3.01 -0.6,-5.3 -1.78,-6.91 -1.18,-1.61 -2.85,-2.42 -4.99,-2.42zm20.39 -2.66l0 15.64c0,1.97 0.45,3.44 1.35,4.4 0.9,0.97 2.31,1.45 4.21,1.45 2.53,0 4.37,-0.69 5.54,-2.07 1.17,-1.38 1.75,-3.64 1.75,-6.75l0 -12.67 3.66 0 0 24.11 -3.01 0 -0.53 -3.23 -0.2 0c-0.75,1.19 -1.8,2.1 -3.13,2.73 -1.33,0.63 -2.85,0.95 -4.55,0.95 -2.94,0 -5.13,-0.7 -6.6,-2.09 -1.46,-1.4 -2.19,-3.63 -2.19,-6.69l0 -15.78 3.7 0zm39.85 17.54c0,2.25 -0.84,3.98 -2.52,5.19 -1.68,1.22 -4.02,1.83 -7.05,1.83 -3.2,0 -5.69,-0.5 -7.49,-1.52l0 -3.4c1.16,0.59 2.41,1.05 3.74,1.39 1.34,0.34 2.61,0.51 3.85,0.51 1.91,0 3.38,-0.31 4.4,-0.92 1.03,-0.61 1.55,-1.54 1.55,-2.78 0,-0.94 -0.41,-1.75 -1.23,-2.42 -0.81,-0.67 -2.4,-1.46 -4.76,-2.37 -2.26,-0.84 -3.85,-1.57 -4.79,-2.19 -0.95,-0.63 -1.66,-1.33 -2.12,-2.13 -0.47,-0.79 -0.69,-1.74 -0.69,-2.84 0,-1.97 0.79,-3.52 2.4,-4.65 1.6,-1.14 3.81,-1.71 6.59,-1.71 2.59,0 5.13,0.53 7.62,1.59l-1.3 2.97c-2.43,-1 -4.62,-1.49 -6.59,-1.49 -1.74,0 -3.05,0.27 -3.93,0.81 -0.88,0.55 -1.32,1.29 -1.32,2.25 0,0.64 0.16,1.19 0.5,1.65 0.33,0.45 0.86,0.89 1.6,1.3 0.73,0.41 2.15,1.01 4.22,1.78 2.87,1.05 4.8,2.1 5.81,3.16 1.01,1.06 1.51,2.39 1.51,3.99zm36.43 -1.98c0,2.84 -1.04,5.04 -3.09,6.62 -2.07,1.59 -4.85,2.38 -8.39,2.38 -3.82,0 -6.76,-0.5 -8.81,-1.48l0 -3.62c1.32,0.56 2.76,1 4.31,1.32 1.56,0.33 3.1,0.49 4.63,0.49 2.5,0 4.38,-0.48 5.64,-1.43 1.26,-0.94 1.9,-2.25 1.9,-3.94 0,-1.12 -0.23,-2.03 -0.67,-2.74 -0.45,-0.71 -1.21,-1.37 -2.25,-1.98 -1.06,-0.6 -2.66,-1.28 -4.8,-2.04 -3,-1.08 -5.14,-2.35 -6.42,-3.82 -1.29,-1.46 -1.94,-3.38 -1.94,-5.74 0,-2.48 0.94,-4.45 2.8,-5.91 1.88,-1.47 4.34,-2.21 7.41,-2.21 3.21,0 6.15,0.59 8.85,1.76l-1.17 3.26c-2.67,-1.12 -5.25,-1.68 -7.77,-1.68 -1.98,0 -3.54,0.43 -4.64,1.28 -1.13,0.86 -1.68,2.04 -1.68,3.56 0,1.12 0.21,2.03 0.62,2.74 0.41,0.71 1.1,1.37 2.08,1.96 0.98,0.6 2.48,1.25 4.49,1.97 3.38,1.21 5.7,2.5 6.97,3.88 1.27,1.38 1.92,3.18 1.92,5.37zm20.88 8.55l-0.73 -3.44 -0.19 0c-1.2,1.51 -2.4,2.54 -3.6,3.08 -1.2,0.54 -2.69,0.81 -4.48,0.81 -2.4,0 -4.27,-0.62 -5.63,-1.85 -1.36,-1.24 -2.04,-2.99 -2.04,-5.27 0,-4.87 3.91,-7.43 11.7,-7.66l4.11 -0.13 0 -1.5c0,-1.89 -0.41,-3.29 -1.22,-4.18 -0.82,-0.9 -2.13,-1.35 -3.92,-1.35 -2.02,0 -4.28,0.61 -6.83,1.85l-1.12 -2.8c1.19,-0.65 2.49,-1.16 3.91,-1.53 1.42,-0.36 2.85,-0.55 4.26,-0.55 2.89,0 5.01,0.64 6.4,1.92 1.39,1.28 2.09,3.33 2.09,6.13l0 16.47 -2.71 0zm-8.27 -2.57c2.28,0 4.07,-0.63 5.36,-1.88 1.3,-1.24 1.95,-2.99 1.95,-5.23l0 -2.18 -3.66 0.16c-2.91,0.1 -5,0.55 -6.29,1.35 -1.29,0.8 -1.93,2.05 -1.93,3.73 0,1.33 0.4,2.33 1.21,3.02 0.8,0.69 1.92,1.04 3.36,1.04zm22.17 2.57l-3.66 0 0 -34.25 3.66 0 0 34.25zm27.54 -24.11l0 2.32 -4.46 0.52c0.4,0.51 0.77,1.19 1.1,2.02 0.32,0.83 0.48,1.76 0.48,2.8 0,2.36 -0.81,4.24 -2.43,5.65 -1.62,1.4 -3.84,2.11 -6.65,2.11 -0.72,0 -1.4,-0.06 -2.04,-0.17 -1.56,0.82 -2.33,1.86 -2.33,3.1 0,0.67 0.27,1.15 0.81,1.47 0.55,0.31 1.49,0.47 2.81,0.47l4.27 0c2.62,0 4.62,0.55 6.03,1.66 1.4,1.1 2.1,2.7 2.1,4.79 0,2.66 -1.07,4.69 -3.21,6.09 -2.16,1.41 -5.28,2.11 -9.4,2.11 -3.16,0 -5.6,-0.59 -7.31,-1.76 -1.72,-1.18 -2.57,-2.84 -2.57,-4.96 0,-1.47 0.47,-2.74 1.41,-3.82 0.94,-1.06 2.27,-1.79 3.97,-2.17 -0.62,-0.29 -1.13,-0.71 -1.55,-1.3 -0.42,-0.59 -0.63,-1.28 -0.63,-2.05 0,-0.89 0.24,-1.66 0.71,-2.32 0.47,-0.66 1.21,-1.3 2.23,-1.92 -1.25,-0.52 -2.27,-1.39 -3.06,-2.62 -0.79,-1.23 -1.18,-2.65 -1.18,-4.22 0,-2.64 0.79,-4.67 2.38,-6.1 1.59,-1.44 3.85,-2.15 6.75,-2.15 1.26,0 2.4,0.15 3.42,0.45l8.35 0zm-19.27 28.16c0,1.3 0.55,2.29 1.66,2.97 1.1,0.67 2.68,1.01 4.73,1.01 3.08,0 5.35,-0.46 6.82,-1.38 1.48,-0.91 2.23,-2.15 2.23,-3.72 0,-1.31 -0.41,-2.21 -1.22,-2.71 -0.81,-0.51 -2.33,-0.76 -4.56,-0.76l-4.38 0c-1.67,0 -2.96,0.4 -3.89,1.18 -0.92,0.79 -1.39,1.93 -1.39,3.41zm1.99 -20.45c0,1.69 0.48,2.97 1.43,3.84 0.95,0.86 2.29,1.3 4,1.3 3.58,0 5.35,-1.74 5.35,-5.2 0,-3.63 -1.81,-5.43 -5.42,-5.43 -1.72,0 -3.05,0.47 -3.97,1.39 -0.93,0.93 -1.39,2.3 -1.39,4.12zm25.67 -7.71l0 15.64c0,1.97 0.45,3.44 1.35,4.4 0.9,0.97 2.31,1.45 4.21,1.45 2.53,0 4.37,-0.69 5.55,-2.07 1.16,-1.38 1.75,-3.64 1.75,-6.75l0 -12.67 3.66 0 0 24.11 -3.02 0 -0.53 -3.23 -0.2 0c-0.75,1.19 -1.79,2.1 -3.13,2.73 -1.32,0.63 -2.84,0.95 -4.54,0.95 -2.95,0 -5.14,-0.7 -6.61,-2.09 -1.46,-1.4 -2.19,-3.63 -2.19,-6.69l0 -15.78 3.7 0zm34.48 24.56c-3.58,0 -6.39,-1.09 -8.45,-3.26 -2.07,-2.18 -3.1,-5.19 -3.1,-9.06 0,-3.89 0.95,-6.97 2.88,-9.26 1.92,-2.3 4.48,-3.44 7.72,-3.44 3.03,0 5.42,0.99 7.18,2.98 1.77,2 2.65,4.61 2.65,7.87l0 2.31 -16.64 0c0.08,2.84 0.79,4.98 2.15,6.45 1.36,1.47 3.28,2.21 5.74,2.21 2.6,0 5.17,-0.55 7.72,-1.64l0 3.27c-1.3,0.56 -2.53,0.96 -3.68,1.21 -1.15,0.24 -2.55,0.36 -4.17,0.36zm-0.99 -21.94c-1.95,0 -3.49,0.63 -4.64,1.89 -1.16,1.26 -1.83,3 -2.03,5.23l12.61 0c0,-2.31 -0.51,-4.07 -1.54,-5.29 -1.03,-1.22 -2.5,-1.83 -4.4,-1.83zm19.77 21.49l-3.66 0 0 -24.11 3.66 0 0 24.11zm-3.97 -30.66c0,-0.83 0.2,-1.44 0.62,-1.83 0.41,-0.39 0.93,-0.59 1.54,-0.59 0.59,0 1.1,0.2 1.52,0.6 0.43,0.39 0.64,1 0.64,1.82 0,0.83 -0.21,1.45 -0.64,1.84 -0.42,0.41 -0.93,0.61 -1.52,0.61 -0.61,0 -1.13,-0.2 -1.54,-0.61 -0.42,-0.39 -0.62,-1.01 -0.62,-1.84zm22.74 6.1c1.07,0 2.04,0.09 2.89,0.26l-0.51 3.41c-1,-0.22 -1.88,-0.33 -2.65,-0.33 -1.95,0 -3.62,0.79 -5.01,2.37 -1.38,1.59 -2.08,3.57 -2.08,5.92l0 12.93 -3.66 0 0 -24.11 3.02 0 0.42 4.45 0.18 0c0.89,-1.57 1.97,-2.78 3.24,-3.63 1.26,-0.85 2.65,-1.28 4.16,-1.28zm27.36 12.48c0,3.94 -1,7 -2.98,9.21 -1.99,2.21 -4.72,3.32 -8.22,3.32 -2.16,0 -4.08,-0.5 -5.75,-1.52 -1.67,-1.01 -2.97,-2.47 -3.88,-4.36 -0.92,-1.89 -1.37,-4.11 -1.37,-6.64 0,-3.94 0.99,-7 2.96,-9.2 1.96,-2.19 4.7,-3.29 8.19,-3.29 3.39,0 6.07,1.12 8.06,3.37 1.99,2.25 2.99,5.28 2.99,9.12zm-18.4 0c0,3.08 0.61,5.42 1.85,7.04 1.24,1.62 3.05,2.42 5.44,2.42 2.4,0 4.21,-0.8 5.45,-2.41 1.25,-1.61 1.86,-3.97 1.86,-7.05 0,-3.07 -0.61,-5.39 -1.86,-6.99 -1.24,-1.59 -3.08,-2.39 -5.49,-2.39 -2.41,0 -4.2,0.78 -5.42,2.36 -1.22,1.57 -1.83,3.91 -1.83,7.02z"/>
     </g>
    </g>
   </g>
   <g style="clip-path:url(#id1)">
    <image x="320.41" y="-127.46" width="3560.14" height="3585.53" xlink:href="avatarM_Images\avatarM_ImgID1.png"/>
   </g>
   <g style="clip-path:url(#id2)">
   </g>
  </g>
  <path class="fil16 str0" d="M1881.45 74.91c997.73,0 1806.54,808.82 1806.54,1806.54 0,997.73 -808.82,1806.54 -1806.54,1806.54 -997.73,0 -1806.54,-808.82 -1806.54,-1806.54 0,-997.73 808.82,-1806.54 1806.54,-1806.54z"/>
 </g>
</svg>
