<?xml version="1.0" encoding="UTF-8"?>
<!DOCTYPE svg PUBLIC "-//W3C//DTD SVG 1.1//EN" "http://www.w3.org/Graphics/SVG/1.1/DTD/svg11.dtd">
<!-- Creator: CorelDRAW 2019 (64 Bit) -->
<svg xmlns="http://www.w3.org/2000/svg" xml:space="preserve" width="42.0192mm" height="14.5554mm" version="1.1" style="shape-rendering:geometricPrecision; text-rendering:geometricPrecision; image-rendering:optimizeQuality; fill-rule:evenodd; clip-rule:evenodd"
viewBox="0 0 711.27 246.38"
 xmlns:xlink="http://www.w3.org/1999/xlink"
 xmlns:xodm="http://www.corel.com/coreldraw/odm/2003">
 <defs>
  <style type="text/css">
   <![CDATA[
    .fil3 {fill:none}
    .fil1 {fill:#359850}
    .fil2 {fill:#007433}
    .fil0 {fill:#B3B3B3}
    .fil4 {fill:#E6E6E6}
    .fil5 {fill:black;fill-rule:nonzero}
   ]]>
  </style>
    <clipPath id="id0">
     <path d="M80.15 167.57c16.06,0 27.08,-1.86 40.38,-7.79 2.65,-1.18 4.66,-2.16 7.07,-3.36 4.45,-2.21 8.81,-5.08 12.78,-8.07 3.02,-2.27 6.06,-4.46 8.69,-7.13 1.09,-1.11 1.81,-1.45 2.89,-2.51 2.95,-2.92 7.6,-7.4 10.2,-10.65 17.07,-21.34 19.33,-27.22 33.39,-50.73 4.77,-7.97 10.63,-17.9 16.79,-24.91 1.77,-2.02 3.11,-3.87 5.02,-5.76 1.06,-1.05 1.44,-1.42 2.39,-2.64 1.37,-1.75 6.54,-5.97 8.37,-7.45 14.07,-11.38 29.99,-16.07 50.07,-16.07 10.81,0 20.65,3.25 28.52,7.37l6.85 4.35c3.26,2.25 5.65,4.71 8.39,7.43 5.4,5.36 9.33,12.17 12.68,18.96 3.27,6.63 5.74,18.18 5.74,27.69 0,16.23 -6.52,31.94 -17.52,42.88 -22.21,22.1 -55.63,21.57 -81.93,5.91 -1.99,-1.18 -8.86,-5.65 -9.82,-7.08 18.57,0 17.47,-16.18 8.63,-20.15 -3.79,-1.7 -8.69,-0.4 -13.32,-0 -4.67,0.4 -9.21,1.02 -13.97,1.48 -5.93,0.58 -8.47,-0.07 -11.99,3.46 -3.35,3.35 -3.41,5.99 -2.67,11.86 0.62,4.95 2.39,24.25 3.53,27.4 2.77,7.69 12.09,8.41 17.32,3.02 2.19,-2.26 2.41,-4.1 2.41,-8.37 1.72,0.46 9.43,6.27 11.62,7.43 15.72,8.36 29.47,12.71 49.12,12.71 6.07,0 12.49,-0.93 17.33,-2.08 5.9,-1.4 9.74,-2.77 14.87,-4.9 6.78,-2.82 12.64,-6.82 18.18,-11.3 1.06,-0.85 1.45,-1.42 2.67,-2.36 4.3,-3.32 8.36,-8.58 11.37,-13.08 8.79,-13.15 14.66,-28.43 14.66,-44.67 0,-15.18 -1.88,-26.67 -7.78,-38.96 -3.27,-6.82 -6.82,-12.91 -11.54,-18.66 -8.1,-9.86 -16.84,-16.9 -28.36,-22.69 -7.71,-3.88 -21.47,-8.15 -32.83,-8.15 -16.66,0 -27.97,1.31 -42.21,7.03 -9.61,3.86 -18.9,9.74 -26,16.06 -4.55,4.06 -8.77,8.47 -12.93,12.95 -0.63,0.68 -0.61,0.77 -1.12,1.4 -0.51,0.64 -0.78,0.83 -1.34,1.54 -0.85,1.08 -1.4,1.74 -2.21,2.83 -0.9,1.21 -1.49,1.82 -2.33,3.06 -1.46,2.15 -2.86,3.93 -4.31,6.12 -7.07,10.64 -13.36,21.6 -19.85,32.64 -2.63,4.48 -5.12,8.61 -7.97,12.88 -8.56,12.85 -22.14,29.7 -35.52,37.82 -2.33,1.42 -4.34,2.76 -6.79,3.99 -25.5,12.74 -51.89,12.26 -74.6,-5.68 -7.17,-5.67 -12.74,-13.29 -16.59,-21.88 -7.82,-17.47 -7.96,-33.36 -0.87,-51.23 2.13,-5.36 5.04,-10.18 8.37,-14.64 1.1,-1.47 2.25,-3.06 3.55,-4.36 6.84,-6.81 11.1,-10.38 19.86,-14.65 2.75,-1.34 5.57,-2.27 8.84,-3.02 22.87,-5.27 45.91,3.37 63.62,17.2 1.38,1.07 2.48,2.11 3.75,3.08 7.32,5.64 12.4,14.74 19.41,14.74 4.78,0 10.07,-4.32 10.07,-8.99 0,-6.43 -1.86,-7.79 -6.02,-11.96 -7.95,-7.95 -16.51,-15.46 -26.21,-21.24 -25.31,-15.08 -57.35,-21.06 -84.82,-7.32 -1.13,0.57 -1.83,1.11 -2.99,1.68 -1.33,0.65 -1.94,1.09 -3.17,1.87 -5.64,3.56 -10.65,7.59 -15.23,12.43l-5.78 6.46c-7.77,10.48 -13.16,20.56 -16.43,33.54 -1.61,6.41 -2.44,12.76 -2.52,19.05l0 1.89c0.12,10.56 2.35,20.95 6.52,31.16l3.12 6.59c7.05,11.53 9.24,15.71 19.92,25.02 13.16,11.47 31.82,19.5 50.6,19.5z"/>
    </clipPath>
      <mask id="id1">
  <linearGradient id="id2" gradientUnits="userSpaceOnUse" x1="183.37" y1="-23.67" x2="183.37" y2="164.11">
   <stop offset="0" style="stop-opacity:1; stop-color:white"/>
   <stop offset="1" style="stop-opacity:0; stop-color:white"/>
  </linearGradient>
       <rect style="fill:url(#id2)" x="-0.04" y="-0.04" width="360.96" height="167.65"/>
      </mask>
     <clipPath id="id3">
      <path d="M108.87 164.11c3.81,-1.11 7.63,-2.53 11.66,-4.33 2.65,-1.18 4.66,-2.16 7.07,-3.36 4.45,-2.21 8.81,-5.08 12.78,-8.07 3.02,-2.27 6.06,-4.46 8.69,-7.13 1.09,-1.11 1.81,-1.45 2.89,-2.51 2.95,-2.92 7.6,-7.4 10.2,-10.65 17.07,-21.34 19.33,-27.22 33.39,-50.73 4.77,-7.97 10.63,-17.9 16.79,-24.91 1.77,-2.02 3.11,-3.87 5.02,-5.76 1.06,-1.05 1.44,-1.42 2.39,-2.64 1.37,-1.75 6.54,-5.97 8.37,-7.45 14.07,-11.38 29.99,-16.07 50.07,-16.07 10.81,0 20.65,3.25 28.52,7.37l6.85 4.35c3.26,2.25 5.65,4.71 8.39,7.43 5.4,5.36 9.33,12.17 12.68,18.96 3.27,6.63 5.74,18.18 5.74,27.69 0,16.23 -6.52,31.94 -17.52,42.88 -22.21,22.1 -55.63,21.57 -81.93,5.91 -1.99,-1.18 -8.86,-5.65 -9.82,-7.08 18.57,0 17.47,-16.18 8.63,-20.15 -3.79,-1.7 -8.69,-0.4 -13.32,-0 -4.67,0.4 -9.21,1.02 -13.97,1.48 -5.93,0.58 -8.47,-0.07 -11.99,3.46 -3.35,3.35 -3.41,5.99 -2.67,11.86 0.62,4.95 2.39,24.25 3.53,27.4 2.77,7.69 12.09,8.41 17.32,3.02 2.19,-2.26 2.41,-4.1 2.41,-8.37 1.72,0.46 9.43,6.27 11.62,7.43 8.47,4.51 16.37,7.85 24.93,9.97l44.14 0c4.51,-1.19 7.92,-2.45 12.25,-4.25 6.78,-2.82 12.64,-6.82 18.18,-11.3 1.06,-0.85 1.45,-1.42 2.67,-2.36 4.3,-3.32 8.36,-8.58 11.37,-13.08 8.79,-13.15 14.66,-28.43 14.66,-44.67 0,-15.18 -1.88,-26.67 -7.78,-38.96 -3.27,-6.82 -6.82,-12.91 -11.54,-18.66 -8.1,-9.86 -16.84,-16.9 -28.36,-22.69 -7.71,-3.88 -21.47,-8.15 -32.83,-8.15 -16.66,0 -27.97,1.31 -42.21,7.03 -9.61,3.86 -18.9,9.74 -26,16.06 -4.55,4.06 -8.77,8.47 -12.93,12.95 -0.63,0.68 -0.61,0.77 -1.12,1.4 -0.51,0.64 -0.78,0.83 -1.34,1.54 -0.85,1.08 -1.4,1.74 -2.21,2.83 -0.9,1.21 -1.49,1.82 -2.33,3.06 -1.46,2.15 -2.86,3.93 -4.31,6.12 -7.07,10.64 -13.36,21.6 -19.85,32.64 -2.63,4.48 -5.12,8.61 -7.97,12.88 -8.56,12.85 -22.14,29.7 -35.52,37.82 -2.33,1.42 -4.34,2.76 -6.79,3.99 -25.5,12.74 -51.89,12.26 -74.6,-5.68 -7.17,-5.67 -12.74,-13.29 -16.59,-21.88 -7.82,-17.47 -7.96,-33.36 -0.87,-51.23 2.13,-5.36 5.04,-10.18 8.37,-14.64 1.1,-1.47 2.25,-3.06 3.55,-4.36 6.84,-6.81 11.1,-10.38 19.86,-14.65 2.75,-1.34 5.57,-2.27 8.84,-3.02 22.87,-5.27 45.91,3.37 63.62,17.2 1.38,1.07 2.48,2.11 3.75,3.08 7.32,5.64 12.4,14.74 19.41,14.74 4.78,0 10.07,-4.32 10.07,-8.99 0,-6.43 -1.86,-7.79 -6.02,-11.96 -7.95,-7.95 -16.51,-15.46 -26.21,-21.24 -25.31,-15.08 -57.35,-21.06 -84.82,-7.32 -1.13,0.57 -1.83,1.11 -2.99,1.68 -1.33,0.65 -1.94,1.09 -3.17,1.87 -5.64,3.56 -10.65,7.59 -15.23,12.43l-5.78 6.46c-2.42,3.27 -4.61,6.49 -6.58,9.78l0 86.93c5.1,8.33 8.01,12.54 17.18,20.54 7.97,6.95 17.97,12.64 28.78,16.04l50.53 0z"/>
     </clipPath>
     <clipPath id="id4">
      <path d="M80.15 167.57c16.06,0 27.08,-1.86 40.38,-7.79 2.65,-1.18 4.66,-2.16 7.07,-3.36 4.45,-2.21 8.81,-5.08 12.78,-8.07 3.02,-2.27 6.06,-4.46 8.69,-7.13 1.09,-1.11 1.81,-1.45 2.89,-2.51 2.95,-2.92 7.6,-7.4 10.2,-10.65 17.07,-21.34 19.33,-27.22 33.39,-50.73 4.77,-7.97 10.63,-17.9 16.79,-24.91 1.77,-2.02 3.11,-3.87 5.02,-5.76 1.06,-1.05 1.44,-1.42 2.39,-2.64 1.37,-1.75 6.54,-5.97 8.37,-7.45 14.07,-11.38 29.99,-16.07 50.07,-16.07 10.81,0 20.65,3.25 28.52,7.37l6.85 4.35c3.26,2.25 5.65,4.71 8.39,7.43 5.4,5.36 9.33,12.17 12.68,18.96 3.27,6.63 5.74,18.18 5.74,27.69 0,16.23 -6.52,31.94 -17.52,42.88 -22.21,22.1 -55.63,21.57 -81.93,5.91 -1.99,-1.18 -8.86,-5.65 -9.82,-7.08 18.57,0 17.47,-16.18 8.63,-20.15 -3.79,-1.7 -8.69,-0.4 -13.32,-0 -4.67,0.4 -9.21,1.02 -13.97,1.48 -5.93,0.58 -8.47,-0.07 -11.99,3.46 -3.35,3.35 -3.41,5.99 -2.67,11.86 0.62,4.95 2.39,24.25 3.53,27.4 2.77,7.69 12.09,8.41 17.32,3.02 2.19,-2.26 2.41,-4.1 2.41,-8.37 1.72,0.46 9.43,6.27 11.62,7.43 15.72,8.36 29.47,12.71 49.12,12.71 6.07,0 12.49,-0.93 17.33,-2.08 5.9,-1.4 9.74,-2.77 14.87,-4.9 6.78,-2.82 12.64,-6.82 18.18,-11.3 1.06,-0.85 1.45,-1.42 2.67,-2.36 4.3,-3.32 8.36,-8.58 11.37,-13.08 8.79,-13.15 14.66,-28.43 14.66,-44.67 0,-15.18 -1.88,-26.67 -7.78,-38.96 -3.27,-6.82 -6.82,-12.91 -11.54,-18.66 -8.1,-9.86 -16.84,-16.9 -28.36,-22.69 -7.71,-3.88 -21.47,-8.15 -32.83,-8.15 -16.66,0 -27.97,1.31 -42.21,7.03 -9.61,3.86 -18.9,9.74 -26,16.06 -4.55,4.06 -8.77,8.47 -12.93,12.95 -0.63,0.68 -0.61,0.77 -1.12,1.4 -0.51,0.64 -0.78,0.83 -1.34,1.54 -0.85,1.08 -1.4,1.74 -2.21,2.83 -0.9,1.21 -1.49,1.82 -2.33,3.06 -1.46,2.15 -2.86,3.93 -4.31,6.12 -7.07,10.64 -13.36,21.6 -19.85,32.64 -2.63,4.48 -5.12,8.61 -7.97,12.88 -8.56,12.85 -22.14,29.7 -35.52,37.82 -2.33,1.42 -4.34,2.76 -6.79,3.99 -25.5,12.74 -51.89,12.26 -74.6,-5.68 -7.17,-5.67 -12.74,-13.29 -16.59,-21.88 -7.82,-17.47 -7.96,-33.36 -0.87,-51.23 2.13,-5.36 5.04,-10.18 8.37,-14.64 1.1,-1.47 2.25,-3.06 3.55,-4.36 6.84,-6.81 11.1,-10.38 19.86,-14.65 2.75,-1.34 5.57,-2.27 8.84,-3.02 22.87,-5.27 45.91,3.37 63.62,17.2 1.38,1.07 2.48,2.11 3.75,3.08 7.32,5.64 12.4,14.74 19.41,14.74 4.78,0 10.07,-4.32 10.07,-8.99 0,-6.43 -1.86,-7.79 -6.02,-11.96 -7.95,-7.95 -16.51,-15.46 -26.21,-21.24 -25.31,-15.08 -57.35,-21.06 -84.82,-7.32 -1.13,0.57 -1.83,1.11 -2.99,1.68 -1.33,0.65 -1.94,1.09 -3.17,1.87 -5.64,3.56 -10.65,7.59 -15.23,12.43l-5.78 6.46c-7.77,10.48 -13.16,20.56 -16.43,33.54 -1.61,6.41 -2.44,12.76 -2.52,19.05l0 1.89c0.12,10.56 2.35,20.95 6.52,31.16l3.12 6.59c7.05,11.53 9.24,15.71 19.92,25.02 13.16,11.47 31.82,19.5 50.6,19.5z"/>
     </clipPath>
 </defs>
 <g id="Camada_x0020_1">
  <metadata id="CorelCorpID_0Corel-Layer"/>
  <g id="_1754656129488">
   <path class="fil0" d="M275.54 134.44l0.03 -5.83c0,-0.67 0.56,-1.22 1.23,-1.22l0 0c0.67,0 1.22,0.56 1.22,1.23l-0.03 5.86c7.16,-0.05 14.25,-1.54 20.41,-4.61 0.85,-0.42 1.69,-0.86 2.5,-1.31l-3.27 -5c-0.37,-0.57 -0.21,-1.33 0.36,-1.7l0 0c0.56,-0.37 1.33,-0.21 1.7,0.35l3.35 5.11c6.83,-4.12 12.22,-9.26 16.48,-16.17l-4.74 -3.44c-0.55,-0.4 -0.67,-1.17 -0.27,-1.71l0 -0c0.39,-0.55 1.16,-0.67 1.71,-0.27l4.54 3.3c0.62,-1.11 1.21,-2.26 1.78,-3.46 3.06,-6.47 4.28,-12.36 4.58,-19.66l-6.04 -0.03c-0.68,-0 -1.22,-0.56 -1.22,-1.23l0 -0c0,-0.67 0.56,-1.22 1.23,-1.22l6.09 0.03 0.01 -1.06c0.04,-7.17 -2.4,-15.85 -5.9,-22.32l-4.86 3.46c-0.55,0.39 -1.32,0.26 -1.71,-0.29l-0 -0c-0.39,-0.55 -0.26,-1.32 0.29,-1.71l5.04 -3.59c-0.66,-1.06 -1.23,-1.84 -2,-2.97 -3.72,-5.47 -8.68,-10.03 -14.38,-13.49l-3.61 5.4c-0.37,0.56 -1.14,0.71 -1.7,0.34l-0 -0c-0.56,-0.37 -0.71,-1.14 -0.34,-1.7l3.52 -5.26c-6.98,-3.78 -14.94,-5.97 -23.05,-6.24l-0.03 6.26c-0,0.68 -0.56,1.22 -1.23,1.22l-0 0c-0.67,-0 -1.22,-0.56 -1.22,-1.23l0.03 -6.27c-7.08,0.1 -14.21,1.68 -20.85,4.96 -0.79,0.39 -1.53,0.77 -2.25,1.16l3.18 4.86c0.37,0.57 0.21,1.33 -0.36,1.7l-0 0c-0.56,0.37 -1.33,0.21 -1.7,-0.35l-3.26 -4.98c-1.16,0.71 -2.29,1.47 -3.45,2.34 -1.74,1.31 -6.2,5.58 -6.72,5.58 -0.69,-0 -1.31,-0.2 -1.31,-1.05 0.01,-1.62 1.58,-2.59 3.2,-3.87l3.56 -2.98c8.22,-6.08 18.47,-9.51 28.78,-9.98l5.51 0.03c6.73,0.38 13.33,2.04 19.25,5.06 4.11,2.1 8.22,4.34 11.68,7.45l3.26 3.02c4.28,4.32 7.96,9.29 10.52,14.86 3.85,8.39 4.73,14.69 4.68,24.53 -0.04,7.62 -2.99,17.2 -6.12,22.75l-3.55 5.88c-4.98,7.41 -11.03,11.92 -18.56,16.24 -0.83,0.47 -1.03,0.65 -2.08,1.06 -0.83,0.33 -1.43,0.67 -2.36,1.04 -0.73,0.29 -1.4,0.51 -2.29,0.84 -1.63,0.62 -3.12,1.02 -4.83,1.44 -3.58,0.87 -7.18,1.37 -10.75,1.51l-4.77 -0.02c-11.16,-0.55 -21.87,-4.6 -30.76,-11.7 -1.4,-1.12 -4.73,-3.67 -4.72,-5.22l0 -0.03c0.02,-0.6 0.45,-1.02 1.05,-1.01 1.2,0.01 1.32,0.78 2.17,1.5l5.14 4.29c1.02,0.77 2.08,1.5 3.18,2.18l3.18 -4.75c0.37,-0.56 1.14,-0.71 1.7,-0.34l0 0c0.56,0.37 0.71,1.14 0.34,1.7l-3.09 4.62c6.8,3.7 14.83,5.81 22.9,6.12z"/>
   <path class="fil1" d="M80.15 167.57c16.06,0 27.08,-1.86 40.38,-7.79 2.65,-1.18 4.66,-2.16 7.07,-3.36 4.45,-2.21 8.81,-5.08 12.78,-8.07 3.02,-2.27 6.06,-4.46 8.69,-7.13 1.09,-1.11 1.81,-1.45 2.89,-2.51 2.95,-2.92 7.6,-7.4 10.2,-10.65 17.07,-21.34 19.33,-27.22 33.39,-50.73 4.77,-7.97 10.63,-17.9 16.79,-24.91 1.77,-2.02 3.11,-3.87 5.02,-5.76 1.06,-1.05 1.44,-1.42 2.39,-2.64 1.37,-1.75 6.54,-5.97 8.37,-7.45 14.07,-11.38 29.99,-16.07 50.07,-16.07 10.81,0 20.65,3.25 28.52,7.37l6.85 4.35c3.26,2.25 5.65,4.71 8.39,7.43 5.4,5.36 9.33,12.17 12.68,18.96 3.27,6.63 5.74,18.18 5.74,27.69 0,16.23 -6.52,31.94 -17.52,42.88 -22.21,22.1 -55.63,21.57 -81.93,5.91 -1.99,-1.18 -8.86,-5.65 -9.82,-7.08 18.57,0 17.47,-16.18 8.63,-20.15 -3.79,-1.7 -8.69,-0.4 -13.32,-0 -4.67,0.4 -9.21,1.02 -13.97,1.48 -5.93,0.58 -8.47,-0.07 -11.99,3.46 -3.35,3.35 -3.41,5.99 -2.67,11.86 0.62,4.95 2.39,24.25 3.53,27.4 2.77,7.69 12.09,8.41 17.32,3.02 2.19,-2.26 2.41,-4.1 2.41,-8.37 1.72,0.46 9.43,6.27 11.62,7.43 15.72,8.36 29.47,12.71 49.12,12.71 6.07,0 12.49,-0.93 17.33,-2.08 5.9,-1.4 9.74,-2.77 14.87,-4.9 6.78,-2.82 12.64,-6.82 18.18,-11.3 1.06,-0.85 1.45,-1.42 2.67,-2.36 4.3,-3.32 8.36,-8.58 11.37,-13.08 8.79,-13.15 14.66,-28.43 14.66,-44.67 0,-15.18 -1.88,-26.67 -7.78,-38.96 -3.27,-6.82 -6.82,-12.91 -11.54,-18.66 -8.1,-9.86 -16.84,-16.9 -28.36,-22.69 -7.71,-3.88 -21.47,-8.15 -32.83,-8.15 -16.66,0 -27.97,1.31 -42.21,7.03 -9.61,3.86 -18.9,9.74 -26,16.06 -4.55,4.06 -8.77,8.47 -12.93,12.95 -0.63,0.68 -0.61,0.77 -1.12,1.4 -0.51,0.64 -0.78,0.83 -1.34,1.54 -0.85,1.08 -1.4,1.74 -2.21,2.83 -0.9,1.21 -1.49,1.82 -2.33,3.06 -1.46,2.15 -2.86,3.93 -4.31,6.12 -7.07,10.64 -13.36,21.6 -19.85,32.64 -2.63,4.48 -5.12,8.61 -7.97,12.88 -8.56,12.85 -22.14,29.7 -35.52,37.82 -2.33,1.42 -4.34,2.76 -6.79,3.99 -25.5,12.74 -51.89,12.26 -74.6,-5.68 -7.17,-5.67 -12.74,-13.29 -16.59,-21.88 -7.82,-17.47 -7.96,-33.36 -0.87,-51.23 2.13,-5.36 5.04,-10.18 8.37,-14.64 1.1,-1.47 2.25,-3.06 3.55,-4.36 6.84,-6.81 11.1,-10.38 19.86,-14.65 2.75,-1.34 5.57,-2.27 8.84,-3.02 22.87,-5.27 45.91,3.37 63.62,17.2 1.38,1.07 2.48,2.11 3.75,3.08 7.32,5.64 12.4,14.74 19.41,14.74 4.78,0 10.07,-4.32 10.07,-8.99 0,-6.43 -1.86,-7.79 -6.02,-11.96 -7.95,-7.95 -16.51,-15.46 -26.21,-21.24 -25.31,-15.08 -57.35,-21.06 -84.82,-7.32 -1.13,0.57 -1.83,1.11 -2.99,1.68 -1.33,0.65 -1.94,1.09 -3.17,1.87 -5.64,3.56 -10.65,7.59 -15.23,12.43l-5.78 6.46c-7.77,10.48 -13.16,20.56 -16.43,33.54 -1.61,6.41 -2.44,12.76 -2.52,19.05l0 1.89c0.12,10.56 2.35,20.95 6.52,31.16l3.12 6.59c7.05,11.53 9.24,15.71 19.92,25.02 13.16,11.47 31.82,19.5 50.6,19.5z"/>
   <g style="clip-path:url(#id0)">
    <g>
     <path id="1" class="fil2" style="mask:url(#id1)" d="M80.15 167.57c16.06,0 27.08,-1.86 40.38,-7.79 2.65,-1.18 4.66,-2.16 7.07,-3.36 4.45,-2.21 8.81,-5.08 12.78,-8.07 3.02,-2.27 6.06,-4.46 8.69,-7.13 1.09,-1.11 1.81,-1.45 2.89,-2.51 2.95,-2.92 7.6,-7.4 10.2,-10.65 17.07,-21.34 19.33,-27.22 33.39,-50.73 4.77,-7.97 10.63,-17.9 16.79,-24.91 1.77,-2.02 3.11,-3.87 5.02,-5.76 1.06,-1.05 1.44,-1.42 2.39,-2.64 1.37,-1.75 6.54,-5.97 8.37,-7.45 14.07,-11.38 29.99,-16.07 50.07,-16.07 10.81,0 20.65,3.25 28.52,7.37l6.85 4.35c3.26,2.25 5.65,4.71 8.39,7.43 5.4,5.36 9.33,12.17 12.68,18.96 3.27,6.63 5.74,18.18 5.74,27.69 0,16.23 -6.52,31.94 -17.52,42.88 -22.21,22.1 -55.63,21.57 -81.93,5.91 -1.99,-1.18 -8.86,-5.65 -9.82,-7.08 18.57,0 17.47,-16.18 8.63,-20.15 -3.79,-1.7 -8.69,-0.4 -13.32,-0 -4.67,0.4 -9.21,1.02 -13.97,1.48 -5.93,0.58 -8.47,-0.07 -11.99,3.46 -3.35,3.35 -3.41,5.99 -2.67,11.86 0.62,4.95 2.39,24.25 3.53,27.4 2.77,7.69 12.09,8.41 17.32,3.02 2.19,-2.26 2.41,-4.1 2.41,-8.37 1.72,0.46 9.43,6.27 11.62,7.43 15.72,8.36 29.47,12.71 49.12,12.71 6.07,0 12.49,-0.93 17.33,-2.08 5.9,-1.4 9.74,-2.77 14.87,-4.9 6.78,-2.82 12.64,-6.82 18.18,-11.3 1.06,-0.85 1.45,-1.42 2.67,-2.36 4.3,-3.32 8.36,-8.58 11.37,-13.08 8.79,-13.15 14.66,-28.43 14.66,-44.67 0,-15.18 -1.88,-26.67 -7.78,-38.96 -3.27,-6.82 -6.82,-12.91 -11.54,-18.66 -8.1,-9.86 -16.84,-16.9 -28.36,-22.69 -7.71,-3.88 -21.47,-8.15 -32.83,-8.15 -16.66,0 -27.97,1.31 -42.21,7.03 -9.61,3.86 -18.9,9.74 -26,16.06 -4.55,4.06 -8.77,8.47 -12.93,12.95 -0.63,0.68 -0.61,0.77 -1.12,1.4 -0.51,0.64 -0.78,0.83 -1.34,1.54 -0.85,1.08 -1.4,1.74 -2.21,2.83 -0.9,1.21 -1.49,1.82 -2.33,3.06 -1.46,2.15 -2.86,3.93 -4.31,6.12 -7.07,10.64 -13.36,21.6 -19.85,32.64 -2.63,4.48 -5.12,8.61 -7.97,12.88 -8.56,12.85 -22.14,29.7 -35.52,37.82 -2.33,1.42 -4.34,2.76 -6.79,3.99 -25.5,12.74 -51.89,12.26 -74.6,-5.68 -7.17,-5.67 -12.74,-13.29 -16.59,-21.88 -7.82,-17.47 -7.96,-33.36 -0.87,-51.23 2.13,-5.36 5.04,-10.18 8.37,-14.64 1.1,-1.47 2.25,-3.06 3.55,-4.36 6.84,-6.81 11.1,-10.38 19.86,-14.65 2.75,-1.34 5.57,-2.27 8.84,-3.02 22.87,-5.27 45.91,3.37 63.62,17.2 1.38,1.07 2.48,2.11 3.75,3.08 7.32,5.64 12.4,14.74 19.41,14.74 4.78,0 10.07,-4.32 10.07,-8.99 0,-6.43 -1.86,-7.79 -6.02,-11.96 -7.95,-7.95 -16.51,-15.46 -26.21,-21.24 -25.31,-15.08 -57.35,-21.06 -84.82,-7.32 -1.13,0.57 -1.83,1.11 -2.99,1.68 -1.33,0.65 -1.94,1.09 -3.17,1.87 -5.64,3.56 -10.65,7.59 -15.23,12.43l-5.78 6.46c-7.77,10.48 -13.16,20.56 -16.43,33.54 -1.61,6.41 -2.44,12.76 -2.52,19.05l0 1.89c0.12,10.56 2.35,20.95 6.52,31.16l3.12 6.59c7.05,11.53 9.24,15.71 19.92,25.02 13.16,11.47 31.82,19.5 50.6,19.5z"/>
    </g>
    <g style="clip-path:url(#id3)">
     <image x="12.37" y="-4.11" width="354.1" height="168.22" xlink:href="logooriginal_Images\logooriginal_ImgID1.png"/>
    </g>
    <g style="clip-path:url(#id4)">
    </g>
   </g>
   <path class="fil3" d="M80.15 167.57c16.06,0 27.08,-1.86 40.38,-7.79 2.65,-1.18 4.66,-2.16 7.07,-3.36 4.45,-2.21 8.81,-5.08 12.78,-8.07 3.02,-2.27 6.06,-4.46 8.69,-7.13 1.09,-1.11 1.81,-1.45 2.89,-2.51 2.95,-2.92 7.6,-7.4 10.2,-10.65 17.07,-21.34 19.33,-27.22 33.39,-50.73 4.77,-7.97 10.63,-17.9 16.79,-24.91 1.77,-2.02 3.11,-3.87 5.02,-5.76 1.06,-1.05 1.44,-1.42 2.39,-2.64 1.37,-1.75 6.54,-5.97 8.37,-7.45 14.07,-11.38 29.99,-16.07 50.07,-16.07 10.81,0 20.65,3.25 28.52,7.37l6.85 4.35c3.26,2.25 5.65,4.71 8.39,7.43 5.4,5.36 9.33,12.17 12.68,18.96 3.27,6.63 5.74,18.18 5.74,27.69 0,16.23 -6.52,31.94 -17.52,42.88 -22.21,22.1 -55.63,21.57 -81.93,5.91 -1.99,-1.18 -8.86,-5.65 -9.82,-7.08 18.57,0 17.47,-16.18 8.63,-20.15 -3.79,-1.7 -8.69,-0.4 -13.32,-0 -4.67,0.4 -9.21,1.02 -13.97,1.48 -5.93,0.58 -8.47,-0.07 -11.99,3.46 -3.35,3.35 -3.41,5.99 -2.67,11.86 0.62,4.95 2.39,24.25 3.53,27.4 2.77,7.69 12.09,8.41 17.32,3.02 2.19,-2.26 2.41,-4.1 2.41,-8.37 1.72,0.46 9.43,6.27 11.62,7.43 15.72,8.36 29.47,12.71 49.12,12.71 6.07,0 12.49,-0.93 17.33,-2.08 5.9,-1.4 9.74,-2.77 14.87,-4.9 6.78,-2.82 12.64,-6.82 18.18,-11.3 1.06,-0.85 1.45,-1.42 2.67,-2.36 4.3,-3.32 8.36,-8.58 11.37,-13.08 8.79,-13.15 14.66,-28.43 14.66,-44.67 0,-15.18 -1.88,-26.67 -7.78,-38.96 -3.27,-6.82 -6.82,-12.91 -11.54,-18.66 -8.1,-9.86 -16.84,-16.9 -28.36,-22.69 -7.71,-3.88 -21.47,-8.15 -32.83,-8.15 -16.66,0 -27.97,1.31 -42.21,7.03 -9.61,3.86 -18.9,9.74 -26,16.06 -4.55,4.06 -8.77,8.47 -12.93,12.95 -0.63,0.68 -0.61,0.77 -1.12,1.4 -0.51,0.64 -0.78,0.83 -1.34,1.54 -0.85,1.08 -1.4,1.74 -2.21,2.83 -0.9,1.21 -1.49,1.82 -2.33,3.06 -1.46,2.15 -2.86,3.93 -4.31,6.12 -7.07,10.64 -13.36,21.6 -19.85,32.64 -2.63,4.48 -5.12,8.61 -7.97,12.88 -8.56,12.85 -22.14,29.7 -35.52,37.82 -2.33,1.42 -4.34,2.76 -6.79,3.99 -25.5,12.74 -51.89,12.26 -74.6,-5.68 -7.17,-5.67 -12.74,-13.29 -16.59,-21.88 -7.82,-17.47 -7.96,-33.36 -0.87,-51.23 2.13,-5.36 5.04,-10.18 8.37,-14.64 1.1,-1.47 2.25,-3.06 3.55,-4.36 6.84,-6.81 11.1,-10.38 19.86,-14.65 2.75,-1.34 5.57,-2.27 8.84,-3.02 22.87,-5.27 45.91,3.37 63.62,17.2 1.38,1.07 2.48,2.11 3.75,3.08 7.32,5.64 12.4,14.74 19.41,14.74 4.78,0 10.07,-4.32 10.07,-8.99 0,-6.43 -1.86,-7.79 -6.02,-11.96 -7.95,-7.95 -16.51,-15.46 -26.21,-21.24 -25.31,-15.08 -57.35,-21.06 -84.82,-7.32 -1.13,0.57 -1.83,1.11 -2.99,1.68 -1.33,0.65 -1.94,1.09 -3.17,1.87 -5.64,3.56 -10.65,7.59 -15.23,12.43l-5.78 6.46c-7.77,10.48 -13.16,20.56 -16.43,33.54 -1.61,6.41 -2.44,12.76 -2.52,19.05l0 1.89c0.12,10.56 2.35,20.95 6.52,31.16l3.12 6.59c7.05,11.53 9.24,15.71 19.92,25.02 13.16,11.47 31.82,19.5 50.6,19.5z"/>
   <path class="fil1" d="M277.03 92.6c-1.88,-0.01 -3.62,-0.64 -5.01,-1.7l-12.16 12.02c-0.36,0.35 -0.94,0.35 -1.29,-0.01l0 0c-0.35,-0.36 -0.35,-0.94 0.01,-1.29l12.12 -11.97c-1.24,-1.47 -1.99,-3.37 -1.98,-5.45 0.02,-4.62 3.78,-8.34 8.4,-8.32 4.62,0.02 8.34,3.78 8.32,8.4 -0.01,2.03 -0.74,3.89 -1.96,5.33l8 7.78c0.36,0.35 0.37,0.93 0.02,1.29l0 0c-0.35,0.36 -0.93,0.37 -1.29,0.02l-8.05 -7.83c-1.42,1.09 -3.2,1.73 -5.12,1.72zm0.01 -2.45c-3.26,-0.02 -5.89,-2.67 -5.88,-5.94 0.02,-3.26 2.67,-5.89 5.93,-5.88 3.26,0.02 5.89,2.67 5.88,5.93 -0.02,3.26 -2.67,5.89 -5.93,5.88z"/>
   <path class="fil4" d="M384.74 8.49l0 0c1.91,0 3.48,1.56 3.48,3.48l0 145.25c0,1.91 -1.56,3.47 -3.48,3.47l0 0c-1.91,0 -3.47,-1.56 -3.47,-3.47l0 -145.25c0,-1.91 1.56,-3.48 3.47,-3.48z"/>
   <path class="fil5" d="M6.12 243.09c1.4,1.8 4.15,3.21 6.68,3.21 6.17,0 9.16,-6.73 9.16,-14.51 0,-7.4 -2.25,-11.52 -6.67,-14.81 -3.61,-2.69 -5.2,-5.01 -5.2,-9.72 0,-3.44 1.36,-7.55 4.93,-7.55 2.37,0 4.11,1.5 4.97,2.39l0.93 -5.31c-1.16,-1.27 -3.1,-2.47 -5.78,-2.47 -5.08,0 -8.46,5.83 -8.46,13.69 0,7.1 2.64,11.37 6.91,14.28 3.53,2.62 4.93,5.31 4.93,10.02 0,5.08 -2.02,8.6 -5.47,8.6 -2.33,0 -4.54,-1.49 -6.05,-3.29l-0.85 5.46zm20.45 -47.94l0 50.41 3.38 0 0 -50.41 -3.38 0zm7.95 47.94c1.4,1.8 4.15,3.21 6.68,3.21 6.17,0 9.16,-6.73 9.16,-14.51 0,-7.4 -2.25,-11.52 -6.67,-14.81 -3.61,-2.69 -5.2,-5.01 -5.2,-9.72 0,-3.44 1.36,-7.55 4.93,-7.55 2.37,0 4.11,1.5 4.97,2.39l0.93 -5.31c-1.17,-1.27 -3.11,-2.47 -5.78,-2.47 -5.08,0 -8.46,5.83 -8.46,13.69 0,7.1 2.64,11.37 6.91,14.28 3.53,2.62 4.93,5.31 4.93,10.02 0,5.08 -2.02,8.6 -5.47,8.6 -2.33,0 -4.54,-1.49 -6.05,-3.29l-0.85 5.46zm25.42 2.47l3.41 0 0 -44.87 7.99 0 0 -5.53 -19.36 0 0 5.53 7.95 0 0 44.87zm27.86 -29.02l-10.17 0 0 -15.93 10.75 0 0 -5.46 -14.13 0 0 50.41 14.71 0 0 -5.46 -11.33 0 0 -18.17 10.17 0 0 -5.39zm28.25 29.02l3.3 0 -1.63 -50.41 -4.31 0 -4.66 24.38c-1.17,6.36 -2.1,11.89 -2.76,16.98l-0.12 0c-0.66,-5.24 -1.55,-10.77 -2.64,-16.98l-4.46 -24.38 -4.31 0 -1.82 50.41 3.22 0 0.7 -21.61c0.23,-7.55 0.43,-16 0.51,-22.29l0.08 0c0.74,5.98 1.78,12.49 3.03,19.59l4.23 24.01 2.56 0 4.62 -24.45c1.32,-6.96 2.41,-13.24 3.3,-19.15l0.12 0c-0.04,6.28 0.19,14.73 0.39,21.76l0.66 22.14zm21.61 -15.86l2.8 15.86 3.61 0 -8.92 -50.41 -4.08 0 -8.89 50.41 3.49 0 2.72 -15.86 9.27 0zm-8.57 -5.08l2.56 -14.58c0.51,-3.07 0.93,-6.13 1.32,-9.12l0.08 0c0.39,2.92 0.78,5.91 1.36,9.2l2.56 14.51 -7.88 0zm27.05 20.79c1.71,0.38 3.73,0.6 6.13,0.6 5.08,0 9.12,-2.54 11.56,-7.26 2.45,-4.64 3.76,-11.37 3.76,-19.59 0,-8.15 -1.36,-13.99 -3.69,-18.1 -2.29,-4.12 -5.74,-6.28 -10.59,-6.28 -2.68,0 -5.12,0.45 -7.18,1.05l0 49.59zm3.37 -44.8c0.89,-0.37 2.21,-0.67 3.96,-0.67 7.14,0 10.63,7.55 10.59,19.44 0,13.61 -3.92,21.39 -11.14,21.39 -1.32,0 -2.56,-0.07 -3.42,-0.37l0 -39.79zm36.01 15.93l-10.17 0 0 -15.93 10.75 0 0 -5.46 -14.13 0 0 50.41 14.71 0 0 -5.46 -11.33 0 0 -18.17 10.17 0 0 -5.39zm33.69 2.54l-8.62 0 0 5.24 5.32 0 0 15.03c-0.78,0.75 -2.29,1.35 -4.5,1.35 -6.09,0 -10.09,-7.55 -10.09,-20.34 0,-12.64 4.15,-20.27 10.52,-20.27 2.64,0 4.39,0.97 5.78,2.17l0.81 -5.31c-1.13,-1.05 -3.49,-2.32 -6.52,-2.32 -8.77,0 -14.13,11 -14.16,26.03 0,7.85 1.4,14.58 3.65,18.77 2.56,4.71 5.82,6.66 9.78,6.66 3.53,0 6.52,-1.72 8.03,-2.77l0 -24.23zm18.7 -2.54l-10.17 0 0 -15.93 10.75 0 0 -5.46 -14.13 0 0 50.41 14.71 0 0 -5.46 -11.33 0 0 -18.17 10.17 0 0 -5.39zm5.55 29.02l3.38 0 0 -21.84 3.18 0c3.07,0.22 4.47,2.84 5.24,9.8 0.74,6.28 1.32,10.62 1.75,12.04l3.49 0c-0.55,-1.94 -1.16,-6.81 -2.02,-13.84 -0.62,-5.23 -1.82,-8.82 -3.84,-10.17l0 -0.22c2.76,-1.79 4.93,-6.21 4.93,-12.86 0,-3.89 -0.74,-7.33 -2.05,-9.57 -1.63,-2.84 -3.96,-4.12 -7.57,-4.12 -2.33,0 -4.77,0.37 -6.48,1.05l0 49.74zm3.38 -45.17c0.54,-0.3 1.71,-0.6 3.34,-0.6 3.57,0.08 6.02,2.92 6.02,9.43 0,5.76 -2.29,9.57 -5.9,9.57l-3.45 0 0 -18.4zm31.04 16.16l-10.17 0 0 -15.93 10.75 0 0 -5.46 -14.13 0 0 50.41 14.71 0 0 -5.46 -11.33 0 0 -18.17 10.17 0 0 -5.39zm8.73 29.02l0 -21.54c0,-8.38 -0.08,-14.44 -0.27,-20.79l0.12 -0.07c1.32,5.46 3.07,11.22 4.89,16.83l8.3 25.58 3.42 0 0 -50.41 -3.18 0 0 21.09c0,7.85 0.08,13.99 0.39,20.72l-0.08 0.08c-1.24,-5.16 -2.75,-10.47 -4.7,-16.38l-8.38 -25.5 -3.69 0 0 50.41 3.18 0zm39.93 -6.81c-1.36,1.27 -3.46,2.09 -5.51,2.09 -6.36,0 -10.05,-7.93 -10.05,-20.27 0,-13.24 4.07,-20.79 10.21,-20.79 2.17,0 3.99,0.9 5.28,2.09l0.82 -5.31c-0.89,-0.9 -2.95,-2.24 -6.21,-2.24 -8.11,0 -13.66,10.69 -13.66,26.48 0,16.53 5.55,25.5 12.92,25.5 3.18,0 5.67,-1.2 6.91,-2.39l-0.7 -5.16zm4.93 -43.6l0 50.41 3.38 0 0 -50.41 -3.38 0zm22.78 34.55l2.79 15.86 3.61 0 -8.93 -50.41 -4.08 0 -8.89 50.41 3.5 0 2.71 -15.86 9.28 0zm-8.58 -5.08l2.56 -14.58c0.5,-3.07 0.93,-6.13 1.32,-9.12l0.08 0c0.39,2.92 0.78,5.91 1.36,9.2l2.56 14.51 -7.88 0zm41.37 20.94l3.3 0 -1.63 -50.41 -4.31 0 -4.66 24.38c-1.16,6.36 -2.1,11.89 -2.76,16.98l-0.12 0c-0.66,-5.24 -1.55,-10.77 -2.64,-16.98l-4.46 -24.38 -4.31 0 -1.82 50.41 3.22 0 0.7 -21.61c0.23,-7.55 0.43,-16 0.5,-22.29l0.08 0c0.73,5.98 1.78,12.49 3.02,19.59l4.23 24.01 2.56 0 4.62 -24.45c1.32,-6.96 2.41,-13.24 3.3,-19.15l0.12 0c-0.04,6.28 0.19,14.73 0.39,21.76l0.66 22.14zm22.04 -29.02l-10.17 0 0 -15.93 10.75 0 0 -5.46 -14.12 0 0 50.41 14.71 0 0 -5.46 -11.33 0 0 -18.17 10.17 0 0 -5.39zm8.73 29.02l0 -21.54c0,-8.38 -0.08,-14.44 -0.27,-20.79l0.12 -0.07c1.32,5.46 3.07,11.22 4.89,16.83l8.31 25.58 3.41 0 0 -50.41 -3.18 0 0 21.09c0,7.85 0.08,13.99 0.39,20.72l-0.08 0.08c-1.24,-5.16 -2.76,-10.47 -4.7,-16.38l-8.38 -25.5 -3.69 0 0 50.41 3.18 0zm27.32 0l3.41 0 0 -44.87 7.99 0 0 -5.53 -19.37 0 0 5.53 7.96 0 0 44.87zm23.86 -51.23c-6.98,0 -12.15,10.47 -12.15,26.48 0,15.25 4.85,25.58 11.76,25.58 6.67,0 12.15,-9.2 12.15,-26.55 0,-14.96 -4.62,-25.5 -11.76,-25.5zm-0.15 5.31c5.63,0 8.35,10.47 8.35,20.49 0,11.44 -3.03,20.94 -8.38,20.94 -5.32,0 -8.35,-9.65 -8.35,-20.42 0,-11.07 2.79,-21.02 8.38,-21.02zm24.53 45.77c1.71,0.38 3.72,0.6 6.13,0.6 5.08,0 9.12,-2.54 11.56,-7.26 2.44,-4.64 3.76,-11.37 3.76,-19.59 0,-8.15 -1.36,-13.99 -3.69,-18.1 -2.29,-4.12 -5.74,-6.28 -10.59,-6.28 -2.68,0 -5.12,0.45 -7.18,1.05l0 49.59zm3.38 -44.8c0.89,-0.37 2.21,-0.67 3.96,-0.67 7.14,0 10.63,7.55 10.59,19.44 0,13.61 -3.92,21.39 -11.14,21.39 -1.32,0 -2.56,-0.07 -3.42,-0.37l0 -39.79zm36.01 15.93l-10.17 0 0 -15.93 10.75 0 0 -5.46 -14.13 0 0 50.41 14.71 0 0 -5.46 -11.33 0 0 -18.17 10.17 0 0 -5.39zm13.78 29.02l3.38 0 0 -20.19c0.78,0.37 1.71,0.45 2.72,0.45 3.3,0 6.21,-1.87 7.99,-5.54 1.32,-2.62 2.02,-6.21 2.02,-10.77 0,-4.49 -0.85,-8.15 -2.29,-10.55 -1.55,-2.69 -4,-4.19 -7.33,-4.19 -2.72,0 -4.85,0.45 -6.48,0.97l0 49.81zm3.38 -45.1c0.58,-0.3 1.71,-0.52 3.18,-0.52 3.73,0 6.17,3.22 6.17,9.87 0,6.96 -2.48,10.77 -6.56,10.77 -1.12,0 -2.06,-0.15 -2.79,-0.52l0 -19.59zm30.81 16.08l-10.17 0 0 -15.93 10.75 0 0 -5.46 -14.12 0 0 50.41 14.71 0 0 -5.46 -11.33 0 0 -18.17 10.17 0 0 -5.39zm5.55 29.02l3.38 0 0 -21.84 3.18 0c3.07,0.22 4.46,2.84 5.24,9.8 0.74,6.28 1.32,10.62 1.75,12.04l3.49 0c-0.54,-1.94 -1.17,-6.81 -2.02,-13.84 -0.62,-5.23 -1.82,-8.82 -3.84,-10.17l0 -0.22c2.76,-1.79 4.93,-6.21 4.93,-12.86 0,-3.89 -0.74,-7.33 -2.06,-9.57 -1.63,-2.84 -3.96,-4.12 -7.57,-4.12 -2.33,0 -4.77,0.37 -6.48,1.05l0 49.74zm3.38 -45.17c0.54,-0.3 1.71,-0.6 3.34,-0.6 3.57,0.08 6.01,2.92 6.01,9.43 0,5.76 -2.29,9.57 -5.9,9.57l-3.45 0 0 -18.4zm40.2 45.17l3.3 0 -1.63 -50.41 -4.31 0 -4.66 24.38c-1.16,6.36 -2.1,11.89 -2.75,16.98l-0.12 0c-0.66,-5.24 -1.55,-10.77 -2.64,-16.98l-4.46 -24.38 -4.31 0 -1.82 50.41 3.22 0 0.7 -21.61c0.23,-7.55 0.43,-16 0.5,-22.29l0.08 0c0.74,5.98 1.78,12.49 3.03,19.59l4.23 24.01 2.56 0 4.62 -24.45c1.32,-6.96 2.41,-13.24 3.3,-19.15l0.12 0c-0.04,6.28 0.19,14.73 0.39,21.76l0.66 22.14zm8.46 -50.41l0 29.69c0,15.63 4.04,21.54 9.39,21.54 5.67,0 9.9,-6.36 9.9,-21.84l0 -29.39 -3.42 0 0 29.84c0,11.14 -2.48,16.08 -6.36,16.08 -3.49,0 -6.09,-4.79 -6.09,-16.08l0 -29.84 -3.41 0zm30.12 50.41l3.41 0 0 -44.87 7.99 0 0 -5.53 -19.36 0 0 5.53 7.96 0 0 44.87zm24.91 -15.86l2.79 15.86 3.61 0 -8.93 -50.41 -4.08 0 -8.89 50.41 3.49 0 2.72 -15.86 9.28 0zm-8.58 -5.08l2.56 -14.58c0.5,-3.07 0.93,-6.13 1.32,-9.12l0.08 0c0.39,2.92 0.78,5.91 1.36,9.2l2.56 14.51 -7.88 0z"/>
   <path class="fil5" d="M434.45 14.63l32.79 0c11.55,0 21.28,6.61 29.12,19.86 1.64,4.44 2.48,8.41 2.48,11.93l0 0.78 -0.84 0.81 -11.9 0c-0.53,0 -1.09,-2.27 -1.61,-6.78 -4.3,-8.98 -10.88,-13.49 -19.7,-13.49l-27.89 0c-9.76,0 -16.48,5.15 -20.09,15.49l-0.42 4.37 0 0.78c0,9.66 11.09,17.22 33.21,22.64 17.71,5.29 30.69,11.8 38.99,19.46 6.82,7.76 10.25,15.83 10.25,24.24l0 3.97c0,13.39 -7.66,23.46 -22.99,30.2 -3.32,1.05 -6.19,1.59 -8.61,1.59l-32.79 0c-11.55,0 -21.28,-6.61 -29.12,-19.86 -1.65,-4.44 -2.45,-8.41 -2.45,-11.93l0 -0.78 0.81 -0.78 11.9 0c0.53,0 1.09,2.24 1.65,6.75 4.3,8.98 10.85,13.49 19.67,13.49l27.89 0c9.76,0 16.48,-5.15 20.09,-15.49l0.42 -4.37 0 -0.78c0,-13.7 -9.83,-23.49 -29.54,-29.39 -24.74,-7.36 -39.76,-13.97 -45.11,-19.87 -5.18,-5.83 -7.77,-11.66 -7.77,-17.49l0 -3.56c0,-13.39 7.63,-23.46 22.96,-30.2 3.39,-1.05 6.26,-1.59 8.61,-1.59zm106.21 0l32.79 0c11.55,0 21.28,6.61 29.12,19.86 1.64,4.44 2.48,8.41 2.48,11.93l0 0.78 -0.84 0.81 -11.9 0c-0.52,0 -1.08,-2.27 -1.61,-6.78 -4.3,-8.98 -10.88,-13.49 -19.7,-13.49l-27.89 0c-9.77,0 -16.48,5.15 -20.09,15.49l-0.42 4.37 0 69.9c0,9.49 5.35,15.97 15.99,19.49l4.52 0.37 27.89 0c9.76,0 16.49,-5.15 20.09,-15.49l0.42 -4.37 0 -0.78c0,-14.31 -10.81,-24.37 -32.41,-30.2l-4.09 -1.97 0 -0.41 3.71 -11.52 0.38 0c30.62,8.4 45.95,22.44 45.95,42.1l0 3.97c0,13.39 -7.66,23.46 -22.99,30.2 -3.32,1.05 -6.19,1.59 -8.61,1.59l-32.79 0c-11.55,0 -21.28,-6.61 -29.12,-19.86 -1.65,-4.44 -2.45,-8.41 -2.45,-11.93l0 -72.27c0,-13.39 7.63,-23.46 22.96,-30.2 3.4,-1.05 6.27,-1.59 8.61,-1.59zm106.22 1.18l32.79 0c11.55,0 21.28,6.64 29.12,19.87 1.64,4.44 2.48,8.41 2.48,11.93l0 3.97c0,19.66 -15.33,33.69 -45.95,42.1l-0.39 0 -3.71 -12.31c18.06,-5.36 29.12,-11.73 33.21,-19.09 2.21,-3.69 3.29,-7.93 3.29,-12.71l0 -0.78c0,-9.39 -5.32,-15.9 -15.99,-19.46l-4.51 -0.41 -27.89 0c-9.7,0 -16.42,5.15 -20.09,15.49l-0.42 4.37 0 100.92 -0.81 0.78 -11.9 0 -0.8 -0.78 0 -102.1c0,-13.39 7.63,-23.46 22.96,-30.2 3.4,-1.05 6.26,-1.59 8.61,-1.59z"/>
   <path class="fil0" d="M110.29 55l-3.25 0 0 -5.42 -5.42 0 0 5.42 -35.74 0 0 -5.42 -5.42 0 0 5.42 -3.25 0c-4.48,0 -8.12,3.64 -8.12,8.12l0 47.65c0,4.48 3.64,8.12 8.12,8.12l53.06 0c4.48,0 8.12,-3.64 8.12,-8.12l0 -47.65c0,-4.48 -3.64,-8.12 -8.12,-8.12zm-7.58 41.96l5.42 0 0 -5.41 -5.42 0 0 5.41zm-10.83 10.83l5.42 0 0 -5.42 -5.42 0 0 5.42zm-10.83 0l5.42 0 0 -5.42 -5.42 0 0 5.42zm-10.83 0l5.42 0 0 -5.42 -5.42 0 0 5.42zm-10.83 0l5.41 0 0 -5.42 -5.41 0 0 5.42zm32.49 -10.83l5.42 0 0 -5.41 -5.42 0 0 5.41zm-10.83 0l5.42 0 0 -5.41 -5.42 0 0 5.41zm-10.83 0l5.42 0 0 -5.41 -5.42 0 0 5.41zm-10.83 0l5.41 0 0 -5.41 -5.41 0 0 5.41zm43.32 -10.83l5.42 0 0 -5.42 -5.42 0 0 5.42zm-10.83 0l5.42 0 0 -5.42 -5.42 0 0 5.42zm-10.83 0l5.42 0 0 -5.42 -5.42 0 0 5.42zm-10.83 0l5.42 0 0 -5.42 -5.42 0 0 5.42zm-10.83 0l5.41 0 0 -5.42 -5.41 0 0 5.42zm53.6 24.64c0,1.49 -1.21,2.71 -2.71,2.71l-53.06 0c-1.49,0 -2.71,-1.22 -2.71,-2.71l0 -35.74 58.48 0 0 35.74zm0 -41.15l-58.48 0 0 -6.5c0,-1.49 1.21,-2.71 2.71,-2.71l3.25 0 0 5.41 5.42 0 0 -5.41 35.74 0 0 5.41 5.42 0 0 -5.41 3.25 0c1.49,0 2.71,1.21 2.71,2.71l0 6.5z"/>
  </g>
 </g>
</svg>
