<?xml version="1.0" encoding="UTF-8"?>
<!DOCTYPE svg PUBLIC "-//W3C//DTD SVG 1.1//EN" "http://www.w3.org/Graphics/SVG/1.1/DTD/svg11.dtd">
<!-- Creator: CorelDRAW 2019 (64 Bit) -->
<svg xmlns="http://www.w3.org/2000/svg" xml:space="preserve" width="12.4458mm" height="4.3113mm" version="1.1" style="shape-rendering:geometricPrecision; text-rendering:geometricPrecision; image-rendering:optimizeQuality; fill-rule:evenodd; clip-rule:evenodd"
viewBox="0 0 166 57.5"
 xmlns:xlink="http://www.w3.org/1999/xlink"
 xmlns:xodm="http://www.corel.com/coreldraw/odm/2003">
 <defs>
  <style type="text/css">
   <![CDATA[
    .fil2 {fill:none}
    .fil1 {fill:#007433}
    .fil0 {fill:white}
    .fil3 {fill:white;fill-rule:nonzero}
   ]]>
  </style>
    <clipPath id="id0">
     <path d="M18.71 39.11c3.75,0 6.32,-0.43 9.42,-1.82 0.62,-0.27 1.09,-0.5 1.65,-0.78 1.04,-0.51 2.06,-1.19 2.98,-1.88 0.71,-0.53 1.42,-1.04 2.03,-1.66 0.25,-0.26 0.42,-0.34 0.67,-0.59 0.69,-0.68 1.77,-1.73 2.38,-2.49 3.98,-4.98 4.51,-6.35 7.79,-11.84 1.11,-1.86 2.48,-4.18 3.92,-5.81 0.41,-0.47 0.73,-0.9 1.17,-1.34 0.25,-0.25 0.33,-0.33 0.56,-0.62 0.32,-0.41 1.53,-1.39 1.95,-1.74 3.28,-2.66 7,-3.75 11.69,-3.75 2.52,0 4.82,0.76 6.66,1.72l1.6 1.02c0.76,0.53 1.32,1.1 1.96,1.73 1.26,1.25 2.18,2.84 2.96,4.43 0.76,1.55 1.34,4.24 1.34,6.46 0,3.79 -1.52,7.45 -4.09,10.01 -5.18,5.16 -12.98,5.03 -19.12,1.38 -0.46,-0.28 -2.07,-1.32 -2.29,-1.65 4.33,0 4.08,-3.78 2.02,-4.7 -0.89,-0.4 -2.03,-0.09 -3.11,0 -1.09,0.09 -2.15,0.24 -3.26,0.35 -1.38,0.13 -1.98,-0.02 -2.8,0.81 -0.78,0.78 -0.79,1.4 -0.62,2.77 0.14,1.16 0.56,5.66 0.82,6.39 0.65,1.8 2.82,1.96 4.04,0.7 0.51,-0.53 0.56,-0.96 0.56,-1.95 0.4,0.11 2.2,1.46 2.71,1.73 3.67,1.95 6.88,2.97 11.47,2.97 1.42,0 2.92,-0.22 4.04,-0.49 1.38,-0.33 2.27,-0.65 3.47,-1.14 1.58,-0.66 2.95,-1.59 4.24,-2.64 0.25,-0.2 0.34,-0.33 0.62,-0.55 1,-0.77 1.95,-2 2.65,-3.05 2.05,-3.07 3.42,-6.63 3.42,-10.42 0,-3.54 -0.44,-6.22 -1.82,-9.09 -0.76,-1.59 -1.59,-3.01 -2.69,-4.35 -1.89,-2.3 -3.93,-3.94 -6.62,-5.3 -1.8,-0.91 -5.01,-1.9 -7.66,-1.9 -3.89,0 -6.53,0.31 -9.85,1.64 -2.24,0.9 -4.41,2.27 -6.07,3.75 -1.06,0.95 -2.05,1.98 -3.02,3.02 -0.15,0.16 -0.14,0.18 -0.26,0.33 -0.12,0.15 -0.18,0.19 -0.31,0.36 -0.2,0.25 -0.33,0.41 -0.51,0.66 -0.21,0.28 -0.35,0.42 -0.54,0.71 -0.34,0.5 -0.67,0.92 -1.01,1.43 -1.65,2.48 -3.12,5.04 -4.63,7.62 -0.61,1.05 -1.2,2.01 -1.86,3.01 -2,3 -5.17,6.93 -8.29,8.83 -0.54,0.33 -1.01,0.64 -1.59,0.93 -5.95,2.98 -12.11,2.86 -17.41,-1.33 -1.67,-1.32 -2.97,-3.1 -3.87,-5.11 -1.82,-4.08 -1.86,-7.79 -0.2,-11.96 0.5,-1.25 1.18,-2.38 1.95,-3.42 0.26,-0.34 0.53,-0.71 0.83,-1.02 1.6,-1.59 2.59,-2.42 4.64,-3.42 0.64,-0.31 1.3,-0.53 2.06,-0.71 5.34,-1.23 10.71,0.79 14.85,4.01 0.32,0.25 0.58,0.49 0.87,0.72 1.71,1.32 2.89,3.44 4.53,3.44 1.12,0 2.35,-1.01 2.35,-2.1 0,-1.5 -0.43,-1.82 -1.41,-2.79 -1.86,-1.86 -3.85,-3.61 -6.12,-4.96 -5.91,-3.52 -13.39,-4.92 -19.8,-1.71 -0.26,0.13 -0.43,0.26 -0.7,0.39 -0.31,0.15 -0.45,0.25 -0.74,0.43 -1.32,0.83 -2.48,1.77 -3.56,2.9l-1.35 1.51c-1.81,2.45 -3.07,4.8 -3.83,7.83 -0.38,1.5 -0.57,2.98 -0.59,4.45l0 0.44c0.03,2.46 0.55,4.89 1.52,7.27l0.73 1.54c1.65,2.69 2.16,3.67 4.65,5.84 3.07,2.68 7.43,4.55 11.81,4.55z"/>
    </clipPath>
      <mask id="id1">
  <linearGradient id="id2" gradientUnits="userSpaceOnUse" x1="202.55" y1="-5.52" x2="202.55" y2="38.3">
   <stop offset="0" style="stop-opacity:1; stop-color:white"/>
   <stop offset="1" style="stop-opacity:0; stop-color:white"/>
  </linearGradient>
       <rect style="fill:url(#id2)" x="159.72" y="-0.03" width="84.29" height="39.18"/>
      </mask>
     <clipPath id="id3">
     </clipPath>
     <clipPath id="id4">
      <path d="M18.71 39.11c3.75,0 6.32,-0.43 9.42,-1.82 0.62,-0.27 1.09,-0.5 1.65,-0.78 1.04,-0.51 2.06,-1.19 2.98,-1.88 0.71,-0.53 1.42,-1.04 2.03,-1.66 0.25,-0.26 0.42,-0.34 0.67,-0.59 0.69,-0.68 1.77,-1.73 2.38,-2.49 3.98,-4.98 4.51,-6.35 7.79,-11.84 1.11,-1.86 2.48,-4.18 3.92,-5.81 0.41,-0.47 0.73,-0.9 1.17,-1.34 0.25,-0.25 0.33,-0.33 0.56,-0.62 0.32,-0.41 1.53,-1.39 1.95,-1.74 3.28,-2.66 7,-3.75 11.69,-3.75 2.52,0 4.82,0.76 6.66,1.72l1.6 1.02c0.76,0.53 1.32,1.1 1.96,1.73 1.26,1.25 2.18,2.84 2.96,4.43 0.76,1.55 1.34,4.24 1.34,6.46 0,3.79 -1.52,7.45 -4.09,10.01 -5.18,5.16 -12.98,5.03 -19.12,1.38 -0.46,-0.28 -2.07,-1.32 -2.29,-1.65 4.33,0 4.08,-3.78 2.02,-4.7 -0.89,-0.4 -2.03,-0.09 -3.11,0 -1.09,0.09 -2.15,0.24 -3.26,0.35 -1.38,0.13 -1.98,-0.02 -2.8,0.81 -0.78,0.78 -0.79,1.4 -0.62,2.77 0.14,1.16 0.56,5.66 0.82,6.39 0.65,1.8 2.82,1.96 4.04,0.7 0.51,-0.53 0.56,-0.96 0.56,-1.95 0.4,0.11 2.2,1.46 2.71,1.73 3.67,1.95 6.88,2.97 11.47,2.97 1.42,0 2.92,-0.22 4.04,-0.49 1.38,-0.33 2.27,-0.65 3.47,-1.14 1.58,-0.66 2.95,-1.59 4.24,-2.64 0.25,-0.2 0.34,-0.33 0.62,-0.55 1,-0.77 1.95,-2 2.65,-3.05 2.05,-3.07 3.42,-6.63 3.42,-10.42 0,-3.54 -0.44,-6.22 -1.82,-9.09 -0.76,-1.59 -1.59,-3.01 -2.69,-4.35 -1.89,-2.3 -3.93,-3.94 -6.62,-5.3 -1.8,-0.91 -5.01,-1.9 -7.66,-1.9 -3.89,0 -6.53,0.31 -9.85,1.64 -2.24,0.9 -4.41,2.27 -6.07,3.75 -1.06,0.95 -2.05,1.98 -3.02,3.02 -0.15,0.16 -0.14,0.18 -0.26,0.33 -0.12,0.15 -0.18,0.19 -0.31,0.36 -0.2,0.25 -0.33,0.41 -0.51,0.66 -0.21,0.28 -0.35,0.42 -0.54,0.71 -0.34,0.5 -0.67,0.92 -1.01,1.43 -1.65,2.48 -3.12,5.04 -4.63,7.62 -0.61,1.05 -1.2,2.01 -1.86,3.01 -2,3 -5.17,6.93 -8.29,8.83 -0.54,0.33 -1.01,0.64 -1.59,0.93 -5.95,2.98 -12.11,2.86 -17.41,-1.33 -1.67,-1.32 -2.97,-3.1 -3.87,-5.11 -1.82,-4.08 -1.86,-7.79 -0.2,-11.96 0.5,-1.25 1.18,-2.38 1.95,-3.42 0.26,-0.34 0.53,-0.71 0.83,-1.02 1.6,-1.59 2.59,-2.42 4.64,-3.42 0.64,-0.31 1.3,-0.53 2.06,-0.71 5.34,-1.23 10.71,0.79 14.85,4.01 0.32,0.25 0.58,0.49 0.87,0.72 1.71,1.32 2.89,3.44 4.53,3.44 1.12,0 2.35,-1.01 2.35,-2.1 0,-1.5 -0.43,-1.82 -1.41,-2.79 -1.86,-1.86 -3.85,-3.61 -6.12,-4.96 -5.91,-3.52 -13.39,-4.92 -19.8,-1.71 -0.26,0.13 -0.43,0.26 -0.7,0.39 -0.31,0.15 -0.45,0.25 -0.74,0.43 -1.32,0.83 -2.48,1.77 -3.56,2.9l-1.35 1.51c-1.81,2.45 -3.07,4.8 -3.83,7.83 -0.38,1.5 -0.57,2.98 -0.59,4.45l0 0.44c0.03,2.46 0.55,4.89 1.52,7.27l0.73 1.54c1.65,2.69 2.16,3.67 4.65,5.84 3.07,2.68 7.43,4.55 11.81,4.55z"/>
     </clipPath>
 </defs>
 <g id="Camada_x0020_1">
  <metadata id="CorelCorpID_0Corel-Layer"/>
  <g id="_2102609230752">
   <path class="fil0" d="M64.31 31.38l0.01 -1.36c0,-0.16 0.13,-0.29 0.29,-0.29l0 0c0.16,0 0.29,0.13 0.29,0.29l-0.01 1.37c1.67,-0.01 3.33,-0.36 4.76,-1.08 0.2,-0.1 0.39,-0.2 0.58,-0.31l-0.76 -1.17c-0.09,-0.13 -0.05,-0.31 0.08,-0.4l0 0c0.13,-0.09 0.31,-0.05 0.4,0.08l0.78 1.19c1.59,-0.96 2.85,-2.16 3.85,-3.77l-1.11 -0.8c-0.13,-0.09 -0.16,-0.27 -0.06,-0.4l0 0c0.09,-0.13 0.27,-0.16 0.4,-0.06l1.06 0.77c0.14,-0.26 0.28,-0.53 0.41,-0.81 0.71,-1.51 1,-2.88 1.07,-4.59l-1.41 -0.01c-0.16,0 -0.29,-0.13 -0.28,-0.29l0 -0c0,-0.16 0.13,-0.28 0.29,-0.28l1.42 0.01 0 -0.25c0.01,-1.67 -0.56,-3.7 -1.38,-5.21l-1.14 0.81c-0.13,0.09 -0.31,0.06 -0.4,-0.07l0 0c-0.09,-0.13 -0.06,-0.31 0.07,-0.4l1.18 -0.84c-0.15,-0.25 -0.29,-0.43 -0.47,-0.69 -0.87,-1.28 -2.02,-2.34 -3.36,-3.15l-0.84 1.26c-0.09,0.13 -0.27,0.17 -0.4,0.08l0 0c-0.13,-0.09 -0.17,-0.27 -0.08,-0.4l0.82 -1.23c-1.63,-0.88 -3.49,-1.39 -5.38,-1.46l-0.01 1.46c-0,0.16 -0.13,0.29 -0.29,0.29l-0 0c-0.16,-0 -0.29,-0.13 -0.28,-0.29l0.01 -1.46c-1.65,0.02 -3.31,0.39 -4.87,1.16 -0.18,0.09 -0.36,0.18 -0.52,0.27l0.74 1.14c0.09,0.13 0.05,0.31 -0.08,0.4l-0 0c-0.13,0.09 -0.31,0.05 -0.39,-0.08l-0.76 -1.16c-0.27,0.17 -0.53,0.34 -0.8,0.55 -0.41,0.31 -1.45,1.3 -1.57,1.3 -0.16,-0 -0.31,-0.05 -0.31,-0.25 0,-0.38 0.37,-0.6 0.75,-0.9l0.83 -0.69c1.92,-1.42 4.31,-2.22 6.72,-2.33l1.29 0.01c1.57,0.09 3.11,0.48 4.49,1.18 0.96,0.49 1.92,1.01 2.73,1.74l0.76 0.71c1,1.01 1.86,2.17 2.45,3.47 0.9,1.96 1.1,3.43 1.09,5.72 -0.01,1.78 -0.7,4.01 -1.43,5.31l-0.83 1.37c-1.16,1.73 -2.57,2.78 -4.33,3.79 -0.19,0.11 -0.24,0.15 -0.48,0.25 -0.19,0.08 -0.33,0.16 -0.55,0.24 -0.17,0.07 -0.33,0.12 -0.53,0.2 -0.38,0.14 -0.73,0.24 -1.13,0.33 -0.84,0.2 -1.68,0.32 -2.51,0.35l-1.11 -0.01c-2.6,-0.13 -5.1,-1.07 -7.18,-2.73 -0.33,-0.26 -1.1,-0.85 -1.1,-1.22l0 -0.01c0,-0.14 0.11,-0.24 0.25,-0.24 0.28,0 0.31,0.18 0.51,0.35l1.2 1c0.24,0.18 0.49,0.35 0.74,0.51l0.74 -1.11c0.09,-0.13 0.27,-0.17 0.4,-0.08l0 0c0.13,0.09 0.17,0.27 0.08,0.4l-0.72 1.08c1.59,0.86 3.46,1.36 5.34,1.43z"/>
   <path class="fil0" d="M18.71 39.11c3.75,0 6.32,-0.43 9.42,-1.82 0.62,-0.27 1.09,-0.5 1.65,-0.78 1.04,-0.51 2.06,-1.19 2.98,-1.88 0.71,-0.53 1.42,-1.04 2.03,-1.66 0.25,-0.26 0.42,-0.34 0.67,-0.59 0.69,-0.68 1.77,-1.73 2.38,-2.49 3.98,-4.98 4.51,-6.35 7.79,-11.84 1.11,-1.86 2.48,-4.18 3.92,-5.81 0.41,-0.47 0.73,-0.9 1.17,-1.34 0.25,-0.25 0.33,-0.33 0.56,-0.62 0.32,-0.41 1.53,-1.39 1.95,-1.74 3.28,-2.66 7,-3.75 11.69,-3.75 2.52,0 4.82,0.76 6.66,1.72l1.6 1.02c0.76,0.53 1.32,1.1 1.96,1.73 1.26,1.25 2.18,2.84 2.96,4.43 0.76,1.55 1.34,4.24 1.34,6.46 0,3.79 -1.52,7.45 -4.09,10.01 -5.18,5.16 -12.98,5.03 -19.12,1.38 -0.46,-0.28 -2.07,-1.32 -2.29,-1.65 4.33,0 4.08,-3.78 2.02,-4.7 -0.89,-0.4 -2.03,-0.09 -3.11,0 -1.09,0.09 -2.15,0.24 -3.26,0.35 -1.38,0.13 -1.98,-0.02 -2.8,0.81 -0.78,0.78 -0.79,1.4 -0.62,2.77 0.14,1.16 0.56,5.66 0.82,6.39 0.65,1.8 2.82,1.96 4.04,0.7 0.51,-0.53 0.56,-0.96 0.56,-1.95 0.4,0.11 2.2,1.46 2.71,1.73 3.67,1.95 6.88,2.97 11.47,2.97 1.42,0 2.92,-0.22 4.04,-0.49 1.38,-0.33 2.27,-0.65 3.47,-1.14 1.58,-0.66 2.95,-1.59 4.24,-2.64 0.25,-0.2 0.34,-0.33 0.62,-0.55 1,-0.77 1.95,-2 2.65,-3.05 2.05,-3.07 3.42,-6.63 3.42,-10.42 0,-3.54 -0.44,-6.22 -1.82,-9.09 -0.76,-1.59 -1.59,-3.01 -2.69,-4.35 -1.89,-2.3 -3.93,-3.94 -6.62,-5.3 -1.8,-0.91 -5.01,-1.9 -7.66,-1.9 -3.89,0 -6.53,0.31 -9.85,1.64 -2.24,0.9 -4.41,2.27 -6.07,3.75 -1.06,0.95 -2.05,1.98 -3.02,3.02 -0.15,0.16 -0.14,0.18 -0.26,0.33 -0.12,0.15 -0.18,0.19 -0.31,0.36 -0.2,0.25 -0.33,0.41 -0.51,0.66 -0.21,0.28 -0.35,0.42 -0.54,0.71 -0.34,0.5 -0.67,0.92 -1.01,1.43 -1.65,2.48 -3.12,5.04 -4.63,7.62 -0.61,1.05 -1.2,2.01 -1.86,3.01 -2,3 -5.17,6.93 -8.29,8.83 -0.54,0.33 -1.01,0.64 -1.59,0.93 -5.95,2.98 -12.11,2.86 -17.41,-1.33 -1.67,-1.32 -2.97,-3.1 -3.87,-5.11 -1.82,-4.08 -1.86,-7.79 -0.2,-11.96 0.5,-1.25 1.18,-2.38 1.95,-3.42 0.26,-0.34 0.53,-0.71 0.83,-1.02 1.6,-1.59 2.59,-2.42 4.64,-3.42 0.64,-0.31 1.3,-0.53 2.06,-0.71 5.34,-1.23 10.71,0.79 14.85,4.01 0.32,0.25 0.58,0.49 0.87,0.72 1.71,1.32 2.89,3.44 4.53,3.44 1.12,0 2.35,-1.01 2.35,-2.1 0,-1.5 -0.43,-1.82 -1.41,-2.79 -1.86,-1.86 -3.85,-3.61 -6.12,-4.96 -5.91,-3.52 -13.39,-4.92 -19.8,-1.71 -0.26,0.13 -0.43,0.26 -0.7,0.39 -0.31,0.15 -0.45,0.25 -0.74,0.43 -1.32,0.83 -2.48,1.77 -3.56,2.9l-1.35 1.51c-1.81,2.45 -3.07,4.8 -3.83,7.83 -0.38,1.5 -0.57,2.98 -0.59,4.45l0 0.44c0.03,2.46 0.55,4.89 1.52,7.27l0.73 1.54c1.65,2.69 2.16,3.67 4.65,5.84 3.07,2.68 7.43,4.55 11.81,4.55z"/>
   <g style="clip-path:url(#id0)">
    <g>
     <path id="1" class="fil1" style="mask:url(#id1)" d="M178.46 39.11c3.75,0 6.32,-0.43 9.42,-1.82 0.62,-0.27 1.09,-0.5 1.65,-0.78 1.04,-0.51 2.06,-1.19 2.98,-1.88 0.71,-0.53 1.42,-1.04 2.03,-1.66 0.25,-0.26 0.42,-0.34 0.67,-0.59 0.69,-0.68 1.77,-1.73 2.38,-2.49 3.99,-4.98 4.51,-6.35 7.79,-11.84 1.11,-1.86 2.48,-4.18 3.92,-5.81 0.41,-0.47 0.73,-0.9 1.17,-1.34 0.25,-0.25 0.34,-0.33 0.56,-0.62 0.32,-0.41 1.53,-1.39 1.95,-1.74 3.28,-2.66 7,-3.75 11.69,-3.75 2.52,0 4.82,0.76 6.66,1.72l1.6 1.02c0.76,0.53 1.32,1.1 1.96,1.73 1.26,1.25 2.18,2.84 2.96,4.43 0.76,1.55 1.34,4.24 1.34,6.46 0,3.79 -1.52,7.45 -4.09,10.01 -5.18,5.16 -12.98,5.03 -19.12,1.38 -0.46,-0.27 -2.07,-1.32 -2.29,-1.65 4.33,0 4.08,-3.78 2.02,-4.7 -0.88,-0.4 -2.03,-0.09 -3.11,0 -1.09,0.09 -2.15,0.24 -3.26,0.35 -1.38,0.13 -1.98,-0.02 -2.8,0.81 -0.78,0.78 -0.79,1.4 -0.62,2.77 0.15,1.16 0.56,5.66 0.82,6.39 0.65,1.8 2.82,1.96 4.04,0.7 0.51,-0.53 0.56,-0.96 0.56,-1.95 0.4,0.11 2.2,1.46 2.71,1.73 3.67,1.95 6.88,2.97 11.46,2.97 1.42,0 2.92,-0.22 4.04,-0.49 1.38,-0.33 2.27,-0.65 3.47,-1.14 1.58,-0.66 2.95,-1.59 4.24,-2.64 0.25,-0.2 0.34,-0.33 0.62,-0.55 1,-0.77 1.95,-2 2.65,-3.05 2.05,-3.07 3.42,-6.63 3.42,-10.42 0,-3.54 -0.44,-6.22 -1.82,-9.09 -0.76,-1.59 -1.59,-3.01 -2.69,-4.35 -1.89,-2.3 -3.93,-3.94 -6.62,-5.3 -1.8,-0.91 -5.01,-1.9 -7.66,-1.9 -3.89,0 -6.53,0.31 -9.85,1.64 -2.24,0.9 -4.41,2.27 -6.07,3.75 -1.06,0.95 -2.05,1.98 -3.02,3.02 -0.15,0.16 -0.14,0.18 -0.26,0.33 -0.12,0.15 -0.18,0.19 -0.31,0.36 -0.2,0.25 -0.33,0.41 -0.51,0.66 -0.21,0.28 -0.35,0.42 -0.54,0.71 -0.34,0.5 -0.67,0.92 -1.01,1.43 -1.65,2.48 -3.12,5.04 -4.63,7.62 -0.61,1.05 -1.2,2.01 -1.86,3.01 -2,3 -5.17,6.93 -8.29,8.83 -0.54,0.33 -1.01,0.64 -1.59,0.93 -5.95,2.98 -12.11,2.86 -17.41,-1.33 -1.68,-1.32 -2.97,-3.1 -3.87,-5.11 -1.82,-4.08 -1.86,-7.79 -0.2,-11.96 0.5,-1.25 1.18,-2.38 1.95,-3.42 0.26,-0.34 0.53,-0.71 0.83,-1.02 1.6,-1.59 2.59,-2.42 4.64,-3.42 0.64,-0.31 1.3,-0.53 2.06,-0.71 5.34,-1.23 10.72,0.79 14.85,4.01 0.32,0.25 0.58,0.49 0.87,0.72 1.71,1.32 2.89,3.44 4.53,3.44 1.12,0 2.35,-1.01 2.35,-2.1 0,-1.5 -0.43,-1.82 -1.4,-2.79 -1.86,-1.86 -3.85,-3.61 -6.12,-4.96 -5.91,-3.52 -13.39,-4.92 -19.8,-1.71 -0.26,0.13 -0.43,0.26 -0.7,0.39 -0.31,0.15 -0.45,0.25 -0.74,0.44 -1.32,0.83 -2.48,1.77 -3.56,2.9l-1.35 1.51c-1.81,2.45 -3.07,4.8 -3.84,7.83 -0.38,1.5 -0.57,2.98 -0.59,4.45l0 0.44c0.03,2.46 0.55,4.89 1.52,7.27l0.73 1.54c1.65,2.69 2.16,3.67 4.65,5.84 3.07,2.68 7.43,4.55 11.81,4.55z"/>
    </g>
    <g style="clip-path:url(#id3)">
     <image x="162.64" y="-0.96" width="82.64" height="39.26" xlink:href="logosvgbranco_Images\logosvgbranco_ImgID1.png"/>
    </g>
    <g style="clip-path:url(#id4)">
    </g>
   </g>
   <path class="fil2" d="M18.71 39.11c3.75,0 6.32,-0.43 9.42,-1.82 0.62,-0.27 1.09,-0.5 1.65,-0.78 1.04,-0.51 2.06,-1.19 2.98,-1.88 0.71,-0.53 1.42,-1.04 2.03,-1.66 0.25,-0.26 0.42,-0.34 0.67,-0.59 0.69,-0.68 1.77,-1.73 2.38,-2.49 3.98,-4.98 4.51,-6.35 7.79,-11.84 1.11,-1.86 2.48,-4.18 3.92,-5.81 0.41,-0.47 0.73,-0.9 1.17,-1.34 0.25,-0.25 0.33,-0.33 0.56,-0.62 0.32,-0.41 1.53,-1.39 1.95,-1.74 3.28,-2.66 7,-3.75 11.69,-3.75 2.52,0 4.82,0.76 6.66,1.72l1.6 1.02c0.76,0.53 1.32,1.1 1.96,1.73 1.26,1.25 2.18,2.84 2.96,4.43 0.76,1.55 1.34,4.24 1.34,6.46 0,3.79 -1.52,7.45 -4.09,10.01 -5.18,5.16 -12.98,5.03 -19.12,1.38 -0.46,-0.28 -2.07,-1.32 -2.29,-1.65 4.33,0 4.08,-3.78 2.02,-4.7 -0.89,-0.4 -2.03,-0.09 -3.11,0 -1.09,0.09 -2.15,0.24 -3.26,0.35 -1.38,0.13 -1.98,-0.02 -2.8,0.81 -0.78,0.78 -0.79,1.4 -0.62,2.77 0.14,1.16 0.56,5.66 0.82,6.39 0.65,1.8 2.82,1.96 4.04,0.7 0.51,-0.53 0.56,-0.96 0.56,-1.95 0.4,0.11 2.2,1.46 2.71,1.73 3.67,1.95 6.88,2.97 11.47,2.97 1.42,0 2.92,-0.22 4.04,-0.49 1.38,-0.33 2.27,-0.65 3.47,-1.14 1.58,-0.66 2.95,-1.59 4.24,-2.64 0.25,-0.2 0.34,-0.33 0.62,-0.55 1,-0.77 1.95,-2 2.65,-3.05 2.05,-3.07 3.42,-6.63 3.42,-10.42 0,-3.54 -0.44,-6.22 -1.82,-9.09 -0.76,-1.59 -1.59,-3.01 -2.69,-4.35 -1.89,-2.3 -3.93,-3.94 -6.62,-5.3 -1.8,-0.91 -5.01,-1.9 -7.66,-1.9 -3.89,0 -6.53,0.31 -9.85,1.64 -2.24,0.9 -4.41,2.27 -6.07,3.75 -1.06,0.95 -2.05,1.98 -3.02,3.02 -0.15,0.16 -0.14,0.18 -0.26,0.33 -0.12,0.15 -0.18,0.19 -0.31,0.36 -0.2,0.25 -0.33,0.41 -0.51,0.66 -0.21,0.28 -0.35,0.42 -0.54,0.71 -0.34,0.5 -0.67,0.92 -1.01,1.43 -1.65,2.48 -3.12,5.04 -4.63,7.62 -0.61,1.05 -1.2,2.01 -1.86,3.01 -2,3 -5.17,6.93 -8.29,8.83 -0.54,0.33 -1.01,0.64 -1.59,0.93 -5.95,2.98 -12.11,2.86 -17.41,-1.33 -1.67,-1.32 -2.97,-3.1 -3.87,-5.11 -1.82,-4.08 -1.86,-7.79 -0.2,-11.96 0.5,-1.25 1.18,-2.38 1.95,-3.42 0.26,-0.34 0.53,-0.71 0.83,-1.02 1.6,-1.59 2.59,-2.42 4.64,-3.42 0.64,-0.31 1.3,-0.53 2.06,-0.71 5.34,-1.23 10.71,0.79 14.85,4.01 0.32,0.25 0.58,0.49 0.87,0.72 1.71,1.32 2.89,3.44 4.53,3.44 1.12,0 2.35,-1.01 2.35,-2.1 0,-1.5 -0.43,-1.82 -1.41,-2.79 -1.86,-1.86 -3.85,-3.61 -6.12,-4.96 -5.91,-3.52 -13.39,-4.92 -19.8,-1.71 -0.26,0.13 -0.43,0.26 -0.7,0.39 -0.31,0.15 -0.45,0.25 -0.74,0.43 -1.32,0.83 -2.48,1.77 -3.56,2.9l-1.35 1.51c-1.81,2.45 -3.07,4.8 -3.83,7.83 -0.38,1.5 -0.57,2.98 -0.59,4.45l0 0.44c0.03,2.46 0.55,4.89 1.52,7.27l0.73 1.54c1.65,2.69 2.16,3.67 4.65,5.84 3.07,2.68 7.43,4.55 11.81,4.55z"/>
   <path class="fil0" d="M64.66 21.61c-0.44,-0 -0.85,-0.15 -1.17,-0.4l-2.84 2.8c-0.08,0.08 -0.22,0.08 -0.3,-0l0 0c-0.08,-0.08 -0.08,-0.22 0,-0.3l2.83 -2.79c-0.29,-0.34 -0.47,-0.79 -0.46,-1.27 0.01,-1.08 0.88,-1.95 1.96,-1.94 1.08,0.01 1.95,0.88 1.94,1.96 -0,0.47 -0.17,0.91 -0.46,1.25l1.87 1.82c0.08,0.08 0.09,0.22 0,0.3l0 0c-0.08,0.08 -0.22,0.09 -0.3,0l-1.88 -1.83c-0.33,0.25 -0.75,0.4 -1.2,0.4zm0 -0.57c-0.76,-0 -1.38,-0.62 -1.37,-1.38 0,-0.76 0.62,-1.38 1.39,-1.37 0.76,0 1.38,0.62 1.37,1.39 -0,0.76 -0.62,1.38 -1.38,1.37z"/>
   <path class="fil0" d="M89.79 1.98l0 0c0.45,0 0.81,0.37 0.81,0.81l0 33.9c0,0.45 -0.36,0.81 -0.81,0.81l0 0c-0.45,0 -0.81,-0.37 -0.81,-0.81l0 -33.9c0,-0.45 0.37,-0.81 0.81,-0.81z"/>
   <path class="fil3" d="M1.43 56.74c0.33,0.42 0.97,0.75 1.56,0.75 1.44,0 2.14,-1.57 2.14,-3.39 0,-1.73 -0.53,-2.69 -1.56,-3.46 -0.84,-0.63 -1.21,-1.17 -1.21,-2.27 0,-0.8 0.32,-1.76 1.15,-1.76 0.55,0 0.96,0.35 1.16,0.56l0.22 -1.24c-0.27,-0.3 -0.72,-0.58 -1.35,-0.58 -1.19,0 -1.97,1.36 -1.97,3.19 0,1.66 0.61,2.65 1.61,3.33 0.82,0.61 1.15,1.24 1.15,2.34 0,1.19 -0.47,2.01 -1.28,2.01 -0.54,0 -1.06,-0.35 -1.41,-0.77l-0.2 1.27z"/>
   <polygon id="1" class="fil3" points="6.2,45.55 6.2,57.31 6.99,57.31 6.99,45.55 "/>
   <path id="2" class="fil3" d="M8.06 56.74c0.33,0.42 0.97,0.75 1.56,0.75 1.44,0 2.14,-1.57 2.14,-3.39 0,-1.73 -0.52,-2.69 -1.56,-3.46 -0.84,-0.63 -1.21,-1.17 -1.21,-2.27 0,-0.8 0.32,-1.76 1.15,-1.76 0.55,0 0.96,0.35 1.16,0.56l0.22 -1.24c-0.27,-0.3 -0.73,-0.58 -1.35,-0.58 -1.19,0 -1.97,1.36 -1.97,3.19 0,1.66 0.62,2.65 1.61,3.33 0.82,0.61 1.15,1.24 1.15,2.34 0,1.19 -0.47,2.01 -1.28,2.01 -0.54,0 -1.06,-0.35 -1.41,-0.77l-0.2 1.27z"/>
   <polygon id="3" class="fil3" points="13.99,57.31 14.79,57.31 14.79,46.84 16.65,46.84 16.65,45.55 12.13,45.55 12.13,46.84 13.99,46.84 "/>
   <polygon id="4" class="fil3" points="20.49,50.54 18.12,50.54 18.12,46.82 20.63,46.82 20.63,45.55 17.33,45.55 17.33,57.31 20.76,57.31 20.76,56.04 18.12,56.04 18.12,51.8 20.49,51.8 "/>
   <path id="5" class="fil3" d="M27.09 57.31l0.77 0 -0.38 -11.76 -1.01 0 -1.09 5.69c-0.27,1.48 -0.49,2.78 -0.64,3.96l-0.03 0c-0.15,-1.22 -0.36,-2.51 -0.62,-3.96l-1.04 -5.69 -1.01 0 -0.43 11.76 0.75 0 0.16 -5.04c0.05,-1.76 0.1,-3.73 0.12,-5.2l0.02 0c0.17,1.4 0.42,2.91 0.71,4.57l0.99 5.6 0.6 0 1.08 -5.71c0.31,-1.62 0.56,-3.09 0.77,-4.47l0.03 0c-0.01,1.47 0.04,3.44 0.09,5.08l0.15 5.17z"/>
   <path id="6" class="fil3" d="M32.13 53.61l0.65 3.7 0.84 0 -2.08 -11.76 -0.95 0 -2.08 11.76 0.82 0 0.63 -3.7 2.16 0zm-2 -1.19l0.6 -3.4c0.12,-0.71 0.22,-1.43 0.31,-2.13l0.02 0c0.09,0.68 0.18,1.38 0.32,2.15l0.6 3.39 -1.84 0z"/>
   <path id="7" class="fil3" d="M36.44 57.28c0.4,0.09 0.87,0.14 1.43,0.14 1.19,0 2.13,-0.59 2.7,-1.69 0.57,-1.08 0.88,-2.65 0.88,-4.57 0,-1.9 -0.32,-3.26 -0.86,-4.22 -0.53,-0.96 -1.34,-1.47 -2.47,-1.47 -0.62,0 -1.2,0.1 -1.68,0.24l0 11.57zm0.79 -10.46c0.21,-0.09 0.52,-0.16 0.92,-0.16 1.67,0 2.48,1.76 2.47,4.54 0,3.18 -0.91,4.99 -2.6,4.99 -0.31,0 -0.6,-0.02 -0.8,-0.09l0 -9.29z"/>
   <polygon id="8" class="fil3" points="45.63,50.54 43.26,50.54 43.26,46.82 45.77,46.82 45.77,45.55 42.47,45.55 42.47,57.31 45.9,57.31 45.9,56.04 43.26,56.04 43.26,51.8 45.63,51.8 "/>
   <path id="9" class="fil3" d="M53.49 51.13l-2.01 0 0 1.22 1.24 0 0 3.51c-0.18,0.17 -0.53,0.31 -1.05,0.31 -1.42,0 -2.35,-1.76 -2.35,-4.75 0,-2.95 0.97,-4.73 2.45,-4.73 0.62,0 1.02,0.23 1.35,0.51l0.19 -1.24c-0.26,-0.24 -0.82,-0.54 -1.52,-0.54 -2.05,0 -3.3,2.57 -3.31,6.07 0,1.83 0.33,3.4 0.85,4.38 0.6,1.1 1.36,1.55 2.28,1.55 0.82,0 1.52,-0.4 1.88,-0.65l0 -5.65z"/>
   <polygon id="10" class="fil3" points="57.86,50.54 55.49,50.54 55.49,46.82 57.99,46.82 57.99,45.55 54.7,45.55 54.7,57.31 58.13,57.31 58.13,56.04 55.49,56.04 55.49,51.8 57.86,51.8 "/>
   <path id="11" class="fil3" d="M59.16 57.31l0.79 0 0 -5.1 0.74 0c0.71,0.05 1.04,0.66 1.22,2.29 0.17,1.47 0.31,2.48 0.41,2.81l0.81 0c-0.13,-0.45 -0.27,-1.59 -0.47,-3.23 -0.15,-1.22 -0.43,-2.06 -0.9,-2.37l0 -0.05c0.64,-0.42 1.15,-1.45 1.15,-3 0,-0.91 -0.17,-1.71 -0.48,-2.23 -0.38,-0.66 -0.92,-0.96 -1.77,-0.96 -0.54,0 -1.11,0.09 -1.51,0.24l0 11.61zm0.79 -10.54c0.13,-0.07 0.4,-0.14 0.78,-0.14 0.83,0.02 1.4,0.68 1.4,2.2 0,1.34 -0.53,2.23 -1.38,2.23l-0.81 0 0 -4.29z"/>
   <polygon id="12" class="fil3" points="67.19,50.54 64.81,50.54 64.81,46.82 67.32,46.82 67.32,45.55 64.03,45.55 64.03,57.31 67.46,57.31 67.46,56.04 64.81,56.04 64.81,51.8 67.19,51.8 "/>
   <path id="13" class="fil3" d="M69.23 57.31l0 -5.03c0,-1.95 -0.02,-3.37 -0.06,-4.85l0.03 -0.02c0.31,1.28 0.72,2.62 1.14,3.93l1.94 5.97 0.8 0 0 -11.76 -0.74 0 0 4.92c0,1.83 0.02,3.26 0.09,4.84l-0.02 0.02c-0.29,-1.2 -0.64,-2.44 -1.1,-3.82l-1.96 -5.95 -0.86 0 0 11.76 0.74 0z"/>
   <path id="14" class="fil3" d="M78.54 55.72c-0.32,0.3 -0.81,0.49 -1.29,0.49 -1.49,0 -2.35,-1.85 -2.35,-4.73 0,-3.09 0.95,-4.85 2.38,-4.85 0.51,0 0.93,0.21 1.23,0.49l0.19 -1.24c-0.21,-0.21 -0.69,-0.52 -1.45,-0.52 -1.89,0 -3.19,2.5 -3.19,6.18 0,3.86 1.3,5.95 3.02,5.95 0.74,0 1.32,-0.28 1.61,-0.56l-0.16 -1.2z"/>
   <polygon id="15" class="fil3" points="79.7,45.55 79.7,57.31 80.48,57.31 80.48,45.55 "/>
   <path id="16" class="fil3" d="M85.01 53.61l0.65 3.7 0.84 0 -2.08 -11.76 -0.95 0 -2.07 11.76 0.81 0 0.63 -3.7 2.16 0zm-2 -1.19l0.6 -3.4c0.12,-0.71 0.22,-1.43 0.31,-2.13l0.02 0c0.09,0.68 0.18,1.38 0.32,2.15l0.6 3.39 -1.84 0z"/>
   <path id="17" class="fil3" d="M92.66 57.31l0.77 0 -0.38 -11.76 -1.01 0 -1.09 5.69c-0.27,1.48 -0.49,2.78 -0.64,3.96l-0.03 0c-0.15,-1.22 -0.36,-2.51 -0.62,-3.96l-1.04 -5.69 -1.01 0 -0.43 11.76 0.75 0 0.16 -5.04c0.05,-1.76 0.1,-3.73 0.12,-5.2l0.02 0c0.17,1.4 0.42,2.91 0.71,4.57l0.99 5.6 0.6 0 1.08 -5.71c0.31,-1.62 0.56,-3.09 0.77,-4.47l0.03 0c-0.01,1.47 0.05,3.44 0.09,5.08l0.15 5.17z"/>
   <polygon id="18" class="fil3" points="97.81,50.54 95.44,50.54 95.44,46.82 97.94,46.82 97.94,45.55 94.65,45.55 94.65,57.31 98.08,57.31 98.08,56.04 95.44,56.04 95.44,51.8 97.81,51.8 "/>
   <path id="19" class="fil3" d="M99.85 57.31l0 -5.03c0,-1.95 -0.02,-3.37 -0.06,-4.85l0.03 -0.02c0.31,1.28 0.72,2.62 1.14,3.93l1.94 5.97 0.8 0 0 -11.76 -0.74 0 0 4.92c0,1.83 0.02,3.26 0.09,4.84l-0.02 0.02c-0.29,-1.2 -0.64,-2.44 -1.1,-3.82l-1.96 -5.95 -0.86 0 0 11.76 0.74 0z"/>
   <polygon id="20" class="fil3" points="106.22,57.31 107.02,57.31 107.02,46.84 108.88,46.84 108.88,45.55 104.37,45.55 104.37,46.84 106.22,46.84 "/>
   <path id="21" class="fil3" d="M111.79 45.36c-1.63,0 -2.84,2.44 -2.84,6.18 0,3.56 1.13,5.97 2.74,5.97 1.56,0 2.83,-2.15 2.83,-6.2 0,-3.49 -1.08,-5.95 -2.74,-5.95zm-0.04 1.24c1.31,0 1.95,2.44 1.95,4.78 0,2.67 -0.71,4.89 -1.96,4.89 -1.24,0 -1.95,-2.25 -1.95,-4.77 0,-2.58 0.65,-4.9 1.96,-4.9z"/>
   <path id="22" class="fil3" d="M117.48 57.28c0.4,0.09 0.87,0.14 1.43,0.14 1.19,0 2.13,-0.59 2.7,-1.69 0.57,-1.08 0.88,-2.65 0.88,-4.57 0,-1.9 -0.32,-3.26 -0.86,-4.22 -0.53,-0.96 -1.34,-1.47 -2.47,-1.47 -0.62,0 -1.2,0.1 -1.67,0.24l0 11.57zm0.79 -10.46c0.21,-0.09 0.52,-0.16 0.92,-0.16 1.67,0 2.48,1.76 2.47,4.54 0,3.18 -0.91,4.99 -2.6,4.99 -0.31,0 -0.6,-0.02 -0.8,-0.09l0 -9.29z"/>
   <polygon id="23" class="fil3" points="126.67,50.54 124.3,50.54 124.3,46.82 126.81,46.82 126.81,45.55 123.51,45.55 123.51,57.31 126.94,57.31 126.94,56.04 124.3,56.04 124.3,51.8 126.67,51.8 "/>
   <path id="24" class="fil3" d="M129.89 57.31l0.79 0 0 -4.71c0.18,0.09 0.4,0.1 0.63,0.1 0.77,0 1.45,-0.44 1.87,-1.29 0.31,-0.61 0.47,-1.45 0.47,-2.51 0,-1.05 -0.2,-1.9 -0.53,-2.46 -0.36,-0.63 -0.93,-0.98 -1.71,-0.98 -0.63,0 -1.13,0.1 -1.51,0.23l0 11.62zm0.79 -10.53c0.14,-0.07 0.4,-0.12 0.74,-0.12 0.87,0 1.44,0.75 1.44,2.3 0,1.62 -0.58,2.51 -1.53,2.51 -0.26,0 -0.48,-0.03 -0.65,-0.12l0 -4.57z"/>
   <polygon id="25" class="fil3" points="137.87,50.54 135.49,50.54 135.49,46.82 138,46.82 138,45.55 134.7,45.55 134.7,57.31 138.14,57.31 138.14,56.04 135.49,56.04 135.49,51.8 137.87,51.8 "/>
   <path id="26" class="fil3" d="M139.16 57.31l0.79 0 0 -5.1 0.74 0c0.72,0.05 1.04,0.66 1.22,2.29 0.17,1.47 0.31,2.48 0.41,2.81l0.81 0c-0.13,-0.45 -0.27,-1.59 -0.47,-3.23 -0.15,-1.22 -0.43,-2.06 -0.9,-2.37l0 -0.05c0.64,-0.42 1.15,-1.45 1.15,-3 0,-0.91 -0.17,-1.71 -0.48,-2.23 -0.38,-0.66 -0.92,-0.96 -1.77,-0.96 -0.54,0 -1.12,0.09 -1.51,0.24l0 11.61zm0.79 -10.54c0.13,-0.07 0.4,-0.14 0.78,-0.14 0.83,0.02 1.4,0.68 1.4,2.2 0,1.34 -0.53,2.23 -1.38,2.23l-0.81 0 0 -4.29z"/>
   <path id="27" class="fil3" d="M149.33 57.31l0.77 0 -0.38 -11.76 -1.01 0 -1.09 5.69c-0.27,1.48 -0.49,2.78 -0.64,3.96l-0.03 0c-0.15,-1.22 -0.36,-2.51 -0.62,-3.96l-1.04 -5.69 -1.01 0 -0.43 11.76 0.75 0 0.16 -5.04c0.05,-1.76 0.1,-3.73 0.12,-5.2l0.02 0c0.17,1.4 0.42,2.91 0.71,4.57l0.99 5.6 0.6 0 1.08 -5.71c0.31,-1.62 0.56,-3.09 0.77,-4.47l0.03 0c-0.01,1.47 0.05,3.44 0.09,5.08l0.15 5.17z"/>
   <path id="28" class="fil3" d="M151.31 45.55l0 6.93c0,3.65 0.94,5.03 2.19,5.03 1.32,0 2.31,-1.48 2.31,-5.1l0 -6.86 -0.8 0 0 6.96c0,2.6 -0.58,3.75 -1.48,3.75 -0.81,0 -1.42,-1.12 -1.42,-3.75l0 -6.96 -0.8 0z"/>
   <polygon id="29" class="fil3" points="158.33,57.31 159.13,57.31 159.13,46.84 161,46.84 161,45.55 156.48,45.55 156.48,46.84 158.33,46.84 "/>
   <path id="30" class="fil3" d="M164.15 53.61l0.65 3.7 0.84 0 -2.08 -11.76 -0.95 0 -2.07 11.76 0.81 0 0.63 -3.7 2.16 0zm-2 -1.19l0.6 -3.4c0.12,-0.71 0.22,-1.43 0.31,-2.13l0.02 0c0.09,0.68 0.18,1.38 0.32,2.15l0.6 3.39 -1.84 0z"/>
   <path class="fil3" d="M101.4 3.42l7.65 0c2.69,0 4.96,1.54 6.8,4.63 0.38,1.04 0.58,1.96 0.58,2.78l0 0.18 -0.19 0.19 -2.78 0c-0.12,0 -0.25,-0.53 -0.38,-1.58 -1,-2.1 -2.54,-3.15 -4.6,-3.15l-6.51 0c-2.28,0 -3.85,1.2 -4.69,3.62l-0.1 1.02 0 0.18c0,2.26 2.59,4.02 7.75,5.29 4.13,1.23 7.16,2.75 9.1,4.54 1.59,1.81 2.39,3.69 2.39,5.66l0 0.93c0,3.13 -1.79,5.48 -5.37,7.05 -0.77,0.25 -1.45,0.37 -2.01,0.37l-7.65 0c-2.7,0 -4.97,-1.54 -6.8,-4.64 -0.38,-1.04 -0.57,-1.96 -0.57,-2.78l0 -0.18 0.19 -0.18 2.78 0c0.12,0 0.25,0.52 0.38,1.58 1,2.1 2.53,3.15 4.59,3.15l6.51 0c2.28,0 3.85,-1.2 4.69,-3.62l0.1 -1.02 0 -0.18c0,-3.2 -2.3,-5.48 -6.89,-6.86 -5.77,-1.72 -9.28,-3.26 -10.53,-4.64 -1.21,-1.36 -1.81,-2.72 -1.81,-4.08l0 -0.83c0,-3.13 1.78,-5.47 5.36,-7.05 0.79,-0.25 1.46,-0.37 2.01,-0.37z"/>
   <path id="1" class="fil3" d="M126.19 3.42l7.65 0c2.69,0 4.96,1.54 6.79,4.63 0.39,1.04 0.58,1.96 0.58,2.78l0 0.18 -0.19 0.19 -2.78 0c-0.12,0 -0.25,-0.53 -0.38,-1.58 -1,-2.1 -2.54,-3.15 -4.6,-3.15l-6.51 0c-2.28,0 -3.85,1.2 -4.69,3.62l-0.1 1.02 0 16.31c0,2.21 1.25,3.73 3.73,4.55l1.05 0.09 6.51 0c2.28,0 3.85,-1.2 4.69,-3.62l0.1 -1.02 0 -0.18c0,-3.34 -2.52,-5.69 -7.56,-7.05l-0.96 -0.46 0 -0.09 0.87 -2.69 0.09 0c7.15,1.96 10.72,5.24 10.72,9.83l0 0.93c0,3.13 -1.79,5.48 -5.37,7.05 -0.77,0.25 -1.45,0.37 -2.01,0.37l-7.65 0c-2.7,0 -4.97,-1.54 -6.8,-4.64 -0.38,-1.04 -0.57,-1.96 -0.57,-2.78l0 -16.87c0,-3.13 1.78,-5.47 5.36,-7.05 0.79,-0.25 1.46,-0.37 2.01,-0.37z"/>
   <path id="2" class="fil3" d="M150.97 3.69l7.65 0c2.69,0 4.96,1.55 6.79,4.64 0.38,1.04 0.58,1.96 0.58,2.78l0 0.93c0,4.59 -3.58,7.86 -10.72,9.83l-0.09 0 -0.87 -2.87c4.22,-1.25 6.8,-2.74 7.75,-4.45 0.51,-0.86 0.77,-1.85 0.77,-2.97l0 -0.18c0,-2.19 -1.24,-3.71 -3.73,-4.54l-1.05 -0.09 -6.51 0c-2.26,0 -3.83,1.2 -4.69,3.61l-0.1 1.02 0 23.55 -0.19 0.18 -2.78 0 -0.19 -0.18 0 -23.83c0,-3.13 1.78,-5.48 5.36,-7.05 0.79,-0.25 1.46,-0.37 2.01,-0.37z"/>
   <path class="fil0" d="M25.74 12.84l-0.76 0 0 -1.26 -1.26 0 0 1.26 -8.34 0 0 -1.26 -1.26 0 0 1.26 -0.76 0c-1.05,0 -1.9,0.85 -1.9,1.9l0 11.12c0,1.05 0.85,1.9 1.9,1.9l12.38 0c1.04,0 1.9,-0.85 1.9,-1.9l0 -11.12c0,-1.05 -0.85,-1.9 -1.9,-1.9zm-1.77 9.79l1.26 0 0 -1.26 -1.26 0 0 1.26zm-2.53 2.53l1.26 0 0 -1.26 -1.26 0 0 1.26zm-2.53 0l1.26 0 0 -1.26 -1.26 0 0 1.26zm-2.53 0l1.26 0 0 -1.26 -1.26 0 0 1.26zm-2.53 0l1.26 0 0 -1.26 -1.26 0 0 1.26zm7.58 -2.53l1.26 0 0 -1.26 -1.26 0 0 1.26zm-2.53 0l1.26 0 0 -1.26 -1.26 0 0 1.26zm-2.53 0l1.26 0 0 -1.26 -1.26 0 0 1.26zm-2.53 0l1.26 0 0 -1.26 -1.26 0 0 1.26zm10.11 -2.53l1.26 0 0 -1.26 -1.26 0 0 1.26zm-2.53 0l1.26 0 0 -1.26 -1.26 0 0 1.26zm-2.53 0l1.26 0 0 -1.26 -1.26 0 0 1.26zm-2.53 0l1.26 0 0 -1.26 -1.26 0 0 1.26zm-2.53 0l1.26 0 0 -1.26 -1.26 0 0 1.26zm12.51 5.75c0,0.35 -0.28,0.63 -0.63,0.63l-12.38 0c-0.35,0 -0.63,-0.28 -0.63,-0.63l0 -8.34 13.65 0 0 8.34zm0 -9.6l-13.65 0 0 -1.52c0,-0.35 0.28,-0.63 0.63,-0.63l0.76 0 0 1.26 1.26 0 0 -1.26 8.34 0 0 1.26 1.26 0 0 -1.26 0.76 0c0.35,0 0.63,0.28 0.63,0.63l0 1.52z"/>
  </g>
 </g>
</svg>
