<?xml version="1.0" encoding="UTF-8"?>
<!DOCTYPE svg PUBLIC "-//W3C//DTD SVG 1.1//EN" "http://www.w3.org/Graphics/SVG/1.1/DTD/svg11.dtd">
<!-- Creator: CorelDRAW 2019 (64 Bit) -->
<svg xmlns="http://www.w3.org/2000/svg" xml:space="preserve" width="17.1812mm" height="7.978mm" version="1.1" style="shape-rendering:geometricPrecision; text-rendering:geometricPrecision; image-rendering:optimizeQuality; fill-rule:evenodd; clip-rule:evenodd"
viewBox="0 0 456.52 211.98"
 xmlns:xlink="http://www.w3.org/1999/xlink"
 xmlns:xodm="http://www.corel.com/coreldraw/odm/2003">
 <defs>
  <style type="text/css">
   <![CDATA[
    .fil2 {fill:none}
    .fil1 {fill:#007433}
    .fil0 {fill:white}
   ]]>
  </style>
    <clipPath id="id0">
     <path d="M101.4 211.98c20.32,0 34.25,-2.35 51.08,-9.85 3.35,-1.49 5.89,-2.73 8.94,-4.25 5.63,-2.79 11.14,-6.43 16.17,-10.2 3.82,-2.87 7.67,-5.65 10.99,-9.02 1.38,-1.4 2.29,-1.83 3.65,-3.17 3.73,-3.7 9.61,-9.36 12.9,-13.47 21.6,-26.99 24.45,-34.44 42.24,-64.18 6.03,-10.09 13.45,-22.65 21.24,-31.52 2.24,-2.55 3.94,-4.89 6.35,-7.29 1.35,-1.33 1.82,-1.8 3.03,-3.34 1.73,-2.22 8.27,-7.55 10.59,-9.42 17.8,-14.39 37.94,-20.33 63.35,-20.33 13.68,0 26.12,4.11 36.08,9.33l8.67 5.5c4.12,2.85 7.14,5.96 10.62,9.4 6.84,6.78 11.8,15.4 16.04,23.99 4.13,8.39 7.27,23 7.27,35.04 0,20.53 -8.25,40.4 -22.17,54.25 -28.09,27.95 -70.38,27.28 -103.64,7.48 -2.51,-1.5 -11.21,-7.15 -12.42,-8.96 23.49,0 22.1,-20.47 10.92,-25.48 -4.8,-2.15 -10.99,-0.51 -16.85,-0 -5.9,0.51 -11.65,1.29 -17.68,1.87 -7.5,0.73 -10.71,-0.09 -15.17,4.38 -4.23,4.23 -4.31,7.58 -3.38,15.01 0.78,6.25 3.02,30.67 4.46,34.65 3.51,9.73 15.3,10.64 21.9,3.82 2.76,-2.86 3.05,-5.19 3.05,-10.59 2.18,0.58 11.93,7.93 14.7,9.4 19.88,10.58 37.28,16.07 62.14,16.07 7.68,0 15.8,-1.18 21.92,-2.64 7.47,-1.77 12.32,-3.5 18.81,-6.2 8.58,-3.56 15.99,-8.63 23,-14.3 1.34,-1.08 1.84,-1.8 3.38,-2.99 5.44,-4.2 10.58,-10.86 14.38,-16.54 11.12,-16.63 18.55,-35.96 18.55,-56.5 0,-19.21 -2.38,-33.74 -9.84,-49.29 -4.14,-8.63 -8.63,-16.33 -14.6,-23.6 -10.25,-12.47 -21.3,-21.38 -35.87,-28.7 -9.76,-4.91 -27.16,-10.31 -41.53,-10.31 -21.07,0 -35.38,1.66 -53.4,8.9 -12.16,4.89 -23.91,12.32 -32.89,20.32 -5.76,5.13 -11.09,10.72 -16.36,16.38 -0.79,0.85 -0.77,0.97 -1.42,1.77 -0.65,0.81 -0.98,1.05 -1.69,1.95 -1.08,1.37 -1.77,2.2 -2.79,3.58 -1.13,1.53 -1.89,2.3 -2.95,3.87 -1.84,2.72 -3.61,4.96 -5.45,7.73 -8.95,13.46 -16.9,27.33 -25.11,41.29 -3.33,5.67 -6.48,10.89 -10.09,16.3 -10.83,16.26 -28.01,37.57 -44.93,47.85 -2.95,1.79 -5.49,3.49 -8.6,5.05 -32.26,16.12 -65.64,15.5 -94.37,-7.19 -9.08,-7.17 -16.12,-16.81 -20.98,-27.68 -9.89,-22.1 -10.07,-42.19 -1.1,-64.8 2.69,-6.78 6.38,-12.88 10.59,-18.52 1.39,-1.86 2.85,-3.88 4.49,-5.51 8.65,-8.61 14.05,-13.13 25.13,-18.53 3.48,-1.7 7.05,-2.87 11.18,-3.83 28.93,-6.67 58.08,4.27 80.48,21.76 1.74,1.36 3.14,2.67 4.74,3.9 9.25,7.14 15.68,18.65 24.55,18.65 6.04,0 12.73,-5.47 12.73,-11.37 0,-8.13 -2.35,-9.86 -7.62,-15.13 -10.05,-10.06 -20.88,-19.56 -33.16,-26.87 -32.02,-19.08 -72.55,-26.65 -107.31,-9.26 -1.43,0.71 -2.32,1.4 -3.79,2.13 -1.68,0.83 -2.45,1.38 -4,2.36 -7.14,4.5 -13.47,9.61 -19.27,15.72l-7.32 8.17c-9.83,13.26 -16.65,26 -20.79,42.44 -2.04,8.11 -3.08,16.14 -3.18,24.1l0 2.39c0.15,13.36 2.98,26.5 8.24,39.42l3.95 8.33c8.92,14.59 11.68,19.87 25.2,31.65 16.64,14.51 40.25,24.67 64.01,24.67z"/>
    </clipPath>
      <mask id="id1">
  <linearGradient id="id2" gradientUnits="userSpaceOnUse" x1="1097.89" y1="-29.94" x2="1097.89" y2="207.6">
   <stop offset="0" style="stop-opacity:1; stop-color:white"/>
   <stop offset="1" style="stop-opacity:0; stop-color:white"/>
  </linearGradient>
       <rect style="fill:url(#id2)" x="865.85" y="-0.07" width="456.65" height="212.11"/>
      </mask>
     <clipPath id="id3">
     </clipPath>
     <clipPath id="id4">
      <path d="M101.4 211.98c20.32,0 34.25,-2.35 51.08,-9.85 3.35,-1.49 5.89,-2.73 8.94,-4.25 5.63,-2.79 11.14,-6.43 16.17,-10.2 3.82,-2.87 7.67,-5.65 10.99,-9.02 1.38,-1.4 2.29,-1.83 3.65,-3.17 3.73,-3.7 9.61,-9.36 12.9,-13.47 21.6,-26.99 24.45,-34.44 42.24,-64.18 6.03,-10.09 13.45,-22.65 21.24,-31.52 2.24,-2.55 3.94,-4.89 6.35,-7.29 1.35,-1.33 1.82,-1.8 3.03,-3.34 1.73,-2.22 8.27,-7.55 10.59,-9.42 17.8,-14.39 37.94,-20.33 63.35,-20.33 13.68,0 26.12,4.11 36.08,9.33l8.67 5.5c4.12,2.85 7.14,5.96 10.62,9.4 6.84,6.78 11.8,15.4 16.04,23.99 4.13,8.39 7.27,23 7.27,35.04 0,20.53 -8.25,40.4 -22.17,54.25 -28.09,27.95 -70.38,27.28 -103.64,7.48 -2.51,-1.5 -11.21,-7.15 -12.42,-8.96 23.49,0 22.1,-20.47 10.92,-25.48 -4.8,-2.15 -10.99,-0.51 -16.85,-0 -5.9,0.51 -11.65,1.29 -17.68,1.87 -7.5,0.73 -10.71,-0.09 -15.17,4.38 -4.23,4.23 -4.31,7.58 -3.38,15.01 0.78,6.25 3.02,30.67 4.46,34.65 3.51,9.73 15.3,10.64 21.9,3.82 2.76,-2.86 3.05,-5.19 3.05,-10.59 2.18,0.58 11.93,7.93 14.7,9.4 19.88,10.58 37.28,16.07 62.14,16.07 7.68,0 15.8,-1.18 21.92,-2.64 7.47,-1.77 12.32,-3.5 18.81,-6.2 8.58,-3.56 15.99,-8.63 23,-14.3 1.34,-1.08 1.84,-1.8 3.38,-2.99 5.44,-4.2 10.58,-10.86 14.38,-16.54 11.12,-16.63 18.55,-35.96 18.55,-56.5 0,-19.21 -2.38,-33.74 -9.84,-49.29 -4.14,-8.63 -8.63,-16.33 -14.6,-23.6 -10.25,-12.47 -21.3,-21.38 -35.87,-28.7 -9.76,-4.91 -27.16,-10.31 -41.53,-10.31 -21.07,0 -35.38,1.66 -53.4,8.9 -12.16,4.89 -23.91,12.32 -32.89,20.32 -5.76,5.13 -11.09,10.72 -16.36,16.38 -0.79,0.85 -0.77,0.97 -1.42,1.77 -0.65,0.81 -0.98,1.05 -1.69,1.95 -1.08,1.37 -1.77,2.2 -2.79,3.58 -1.13,1.53 -1.89,2.3 -2.95,3.87 -1.84,2.72 -3.61,4.96 -5.45,7.73 -8.95,13.46 -16.9,27.33 -25.11,41.29 -3.33,5.67 -6.48,10.89 -10.09,16.3 -10.83,16.26 -28.01,37.57 -44.93,47.85 -2.95,1.79 -5.49,3.49 -8.6,5.05 -32.26,16.12 -65.64,15.5 -94.37,-7.19 -9.08,-7.17 -16.12,-16.81 -20.98,-27.68 -9.89,-22.1 -10.07,-42.19 -1.1,-64.8 2.69,-6.78 6.38,-12.88 10.59,-18.52 1.39,-1.86 2.85,-3.88 4.49,-5.51 8.65,-8.61 14.05,-13.13 25.13,-18.53 3.48,-1.7 7.05,-2.87 11.18,-3.83 28.93,-6.67 58.08,4.27 80.48,21.76 1.74,1.36 3.14,2.67 4.74,3.9 9.25,7.14 15.68,18.65 24.55,18.65 6.04,0 12.73,-5.47 12.73,-11.37 0,-8.13 -2.35,-9.86 -7.62,-15.13 -10.05,-10.06 -20.88,-19.56 -33.16,-26.87 -32.02,-19.08 -72.55,-26.65 -107.31,-9.26 -1.43,0.71 -2.32,1.4 -3.79,2.13 -1.68,0.83 -2.45,1.38 -4,2.36 -7.14,4.5 -13.47,9.61 -19.27,15.72l-7.32 8.17c-9.83,13.26 -16.65,26 -20.79,42.44 -2.04,8.11 -3.08,16.14 -3.18,24.1l0 2.39c0.15,13.36 2.98,26.5 8.24,39.42l3.95 8.33c8.92,14.59 11.68,19.87 25.2,31.65 16.64,14.51 40.25,24.67 64.01,24.67z"/>
     </clipPath>
 </defs>
 <g id="Camada_x0020_1">
  <metadata id="CorelCorpID_0Corel-Layer"/>
  <g id="_2028276170816">
   <path class="fil0" d="M348.57 170.07l0.04 -7.38c0.01,-0.85 0.7,-1.55 1.56,-1.54l0 0c0.85,0.01 1.55,0.7 1.54,1.56l-0.04 7.41c9.06,-0.07 18.03,-1.95 25.82,-5.83 1.08,-0.54 2.14,-1.09 3.17,-1.66l-4.14 -6.32c-0.47,-0.71 -0.27,-1.68 0.45,-2.15l0 0c0.71,-0.47 1.68,-0.27 2.14,0.45l4.23 6.47c8.64,-5.21 15.46,-11.71 20.85,-20.45l-5.99 -4.35c-0.69,-0.5 -0.84,-1.47 -0.35,-2.17l0 0c0.5,-0.69 1.47,-0.84 2.17,-0.35l5.75 4.17c0.78,-1.4 1.53,-2.86 2.25,-4.38 3.87,-8.19 5.41,-15.63 5.79,-24.87l-7.64 -0.04c-0.85,-0.01 -1.55,-0.7 -1.54,-1.56l0 -0c0.01,-0.85 0.71,-1.55 1.56,-1.54l7.71 0.04 0.01 -1.35c0.05,-9.08 -3.03,-20.06 -7.46,-28.23l-6.15 4.38c-0.69,0.49 -1.67,0.33 -2.16,-0.36l-0 -0c-0.49,-0.7 -0.33,-1.67 0.36,-2.16l6.38 -4.54c-0.84,-1.34 -1.56,-2.33 -2.53,-3.75 -4.7,-6.92 -10.97,-12.69 -18.19,-17.06l-4.57 6.83c-0.47,0.71 -1.44,0.9 -2.15,0.43l-0 0c-0.71,-0.47 -0.9,-1.44 -0.43,-2.15l4.45 -6.66c-8.83,-4.79 -18.9,-7.56 -29.16,-7.9l-0.04 7.92c-0,0.85 -0.7,1.55 -1.56,1.54l-0 0c-0.85,-0.01 -1.55,-0.71 -1.54,-1.56l0.04 -7.93c-8.95,0.13 -17.97,2.13 -26.37,6.27 -1,0.49 -1.94,0.98 -2.85,1.47l4.03 6.15c0.47,0.71 0.27,1.68 -0.45,2.15l0 0c-0.71,0.47 -1.68,0.27 -2.15,-0.45l-4.12 -6.3c-1.47,0.9 -2.89,1.87 -4.36,2.97 -2.2,1.65 -7.84,7.06 -8.51,7.05 -0.87,-0.01 -1.66,-0.26 -1.65,-1.33 0.01,-2.04 2,-3.27 4.05,-4.89l4.51 -3.77c10.39,-7.69 23.36,-12.03 36.41,-12.63l6.97 0.03c8.51,0.48 16.86,2.58 24.35,6.41 5.2,2.65 10.4,5.49 14.78,9.43l4.13 3.82c5.42,5.46 10.08,11.75 13.3,18.79 4.87,10.62 5.98,18.58 5.92,31.03 -0.05,9.64 -3.78,21.76 -7.75,28.77l-4.5 7.44c-6.29,9.37 -13.95,15.08 -23.48,20.55 -1.04,0.6 -1.3,0.82 -2.63,1.34 -1.05,0.41 -1.81,0.85 -2.99,1.31 -0.92,0.36 -1.77,0.64 -2.9,1.07 -2.06,0.78 -3.94,1.29 -6.12,1.81 -4.53,1.11 -9.08,1.74 -13.6,1.92l-6.03 -0.03c-14.12,-0.7 -27.66,-5.82 -38.92,-14.79 -1.78,-1.42 -5.98,-4.64 -5.98,-6.61l0 -0.03c0.02,-0.75 0.57,-1.29 1.33,-1.28 1.52,0.01 1.67,0.99 2.74,1.9l6.5 5.43c1.29,0.98 2.63,1.89 4.02,2.76l4.02 -6.01c0.48,-0.71 1.44,-0.9 2.15,-0.43l0 0c0.71,0.47 0.9,1.44 0.43,2.15l-3.91 5.85c8.6,4.68 18.77,7.35 28.97,7.74z"/>
   <path class="fil0" d="M101.4 211.98c20.32,0 34.25,-2.35 51.08,-9.85 3.35,-1.49 5.89,-2.73 8.94,-4.25 5.63,-2.79 11.14,-6.43 16.17,-10.2 3.82,-2.87 7.67,-5.65 10.99,-9.02 1.38,-1.4 2.29,-1.83 3.65,-3.17 3.73,-3.7 9.61,-9.36 12.9,-13.47 21.6,-26.99 24.45,-34.44 42.24,-64.18 6.03,-10.09 13.45,-22.65 21.24,-31.52 2.24,-2.55 3.94,-4.89 6.35,-7.29 1.35,-1.33 1.82,-1.8 3.03,-3.34 1.73,-2.22 8.27,-7.55 10.59,-9.42 17.8,-14.39 37.94,-20.33 63.35,-20.33 13.68,0 26.12,4.11 36.08,9.33l8.67 5.5c4.12,2.85 7.14,5.96 10.62,9.4 6.84,6.78 11.8,15.4 16.04,23.99 4.13,8.39 7.27,23 7.27,35.04 0,20.53 -8.25,40.4 -22.17,54.25 -28.09,27.95 -70.38,27.28 -103.64,7.48 -2.51,-1.5 -11.21,-7.15 -12.42,-8.96 23.49,0 22.1,-20.47 10.92,-25.48 -4.8,-2.15 -10.99,-0.51 -16.85,-0 -5.9,0.51 -11.65,1.29 -17.68,1.87 -7.5,0.73 -10.71,-0.09 -15.17,4.38 -4.23,4.23 -4.31,7.58 -3.38,15.01 0.78,6.25 3.02,30.67 4.46,34.65 3.51,9.73 15.3,10.64 21.9,3.82 2.76,-2.86 3.05,-5.19 3.05,-10.59 2.18,0.58 11.93,7.93 14.7,9.4 19.88,10.58 37.28,16.07 62.14,16.07 7.68,0 15.8,-1.18 21.92,-2.64 7.47,-1.77 12.32,-3.5 18.81,-6.2 8.58,-3.56 15.99,-8.63 23,-14.3 1.34,-1.08 1.84,-1.8 3.38,-2.99 5.44,-4.2 10.58,-10.86 14.38,-16.54 11.12,-16.63 18.55,-35.96 18.55,-56.5 0,-19.21 -2.38,-33.74 -9.84,-49.29 -4.14,-8.63 -8.63,-16.33 -14.6,-23.6 -10.25,-12.47 -21.3,-21.38 -35.87,-28.7 -9.76,-4.91 -27.16,-10.31 -41.53,-10.31 -21.07,0 -35.38,1.66 -53.4,8.9 -12.16,4.89 -23.91,12.32 -32.89,20.32 -5.76,5.13 -11.09,10.72 -16.36,16.38 -0.79,0.85 -0.77,0.97 -1.42,1.77 -0.65,0.81 -0.98,1.05 -1.69,1.95 -1.08,1.37 -1.77,2.2 -2.79,3.58 -1.13,1.53 -1.89,2.3 -2.95,3.87 -1.84,2.72 -3.61,4.96 -5.45,7.73 -8.95,13.46 -16.9,27.33 -25.11,41.29 -3.33,5.67 -6.48,10.89 -10.09,16.3 -10.83,16.26 -28.01,37.57 -44.93,47.85 -2.95,1.79 -5.49,3.49 -8.6,5.05 -32.26,16.12 -65.64,15.5 -94.37,-7.19 -9.08,-7.17 -16.12,-16.81 -20.98,-27.68 -9.89,-22.1 -10.07,-42.19 -1.1,-64.8 2.69,-6.78 6.38,-12.88 10.59,-18.52 1.39,-1.86 2.85,-3.88 4.49,-5.51 8.65,-8.61 14.05,-13.13 25.13,-18.53 3.48,-1.7 7.05,-2.87 11.18,-3.83 28.93,-6.67 58.08,4.27 80.48,21.76 1.74,1.36 3.14,2.67 4.74,3.9 9.25,7.14 15.68,18.65 24.55,18.65 6.04,0 12.73,-5.47 12.73,-11.37 0,-8.13 -2.35,-9.86 -7.62,-15.13 -10.05,-10.06 -20.88,-19.56 -33.16,-26.87 -32.02,-19.08 -72.55,-26.65 -107.31,-9.26 -1.43,0.71 -2.32,1.4 -3.79,2.13 -1.68,0.83 -2.45,1.38 -4,2.36 -7.14,4.5 -13.47,9.61 -19.27,15.72l-7.32 8.17c-9.83,13.26 -16.65,26 -20.79,42.44 -2.04,8.11 -3.08,16.14 -3.18,24.1l0 2.39c0.15,13.36 2.98,26.5 8.24,39.42l3.95 8.33c8.92,14.59 11.68,19.87 25.2,31.65 16.64,14.51 40.25,24.67 64.01,24.67z"/>
   <g style="clip-path:url(#id0)">
    <g>
     <path id="1" class="fil1" style="mask:url(#id1)" d="M967.31 211.98c20.31,0 34.25,-2.34 51.08,-9.85 3.35,-1.49 5.89,-2.73 8.94,-4.25 5.64,-2.79 11.14,-6.43 16.18,-10.21 3.83,-2.87 7.67,-5.64 10.99,-9.01 1.38,-1.41 2.29,-1.84 3.66,-3.18 3.73,-3.69 9.61,-9.36 12.89,-13.48 21.61,-26.98 24.46,-34.43 42.26,-64.18 6.03,-10.09 13.45,-22.65 21.24,-31.52 2.24,-2.55 3.94,-4.89 6.35,-7.29 1.35,-1.33 1.82,-1.8 3.04,-3.35 1.73,-2.21 8.28,-7.55 10.58,-9.41 17.81,-14.4 37.93,-20.33 63.34,-20.33 13.68,0 26.12,4.11 36.09,9.33l8.66 5.51c4.12,2.84 7.15,5.95 10.61,9.38 6.84,6.79 11.8,15.41 16.04,24 4.13,8.38 7.27,22.98 7.27,35.03 0,20.52 -8.24,40.41 -22.16,54.25 -28.1,27.95 -70.39,27.28 -103.64,7.47 -2.51,-1.49 -11.22,-7.15 -12.41,-8.96 23.48,0 22.1,-20.47 10.92,-25.48 -4.79,-2.14 -10.98,-0.51 -16.85,0 -5.9,0.52 -11.65,1.29 -17.68,1.88 -7.5,0.73 -10.71,-0.09 -15.17,4.37 -4.24,4.24 -4.3,7.59 -3.39,15.02 0.79,6.25 3.03,30.66 4.47,34.65 3.5,9.73 15.3,10.64 21.9,3.81 2.77,-2.86 3.06,-5.18 3.06,-10.58 2.18,0.58 11.93,7.93 14.71,9.4 19.87,10.57 37.28,16.07 62.15,16.07 7.67,0 15.79,-1.19 21.9,-2.63 7.48,-1.78 12.33,-3.5 18.81,-6.2 8.59,-3.57 16,-8.64 23.01,-14.3 1.33,-1.08 1.84,-1.8 3.37,-2.99 5.44,-4.2 10.59,-10.86 14.38,-16.54 11.13,-16.64 18.55,-35.97 18.55,-56.51 0,-19.2 -2.38,-33.73 -9.84,-49.28 -4.14,-8.62 -8.64,-16.34 -14.61,-23.6 -10.25,-12.47 -21.3,-21.38 -35.88,-28.71 -9.76,-4.9 -27.15,-10.3 -41.52,-10.3 -21.07,0 -35.38,1.67 -53.39,8.9 -12.17,4.89 -23.91,12.32 -32.89,20.33 -5.77,5.12 -11.11,10.72 -16.37,16.38 -0.8,0.86 -0.77,0.98 -1.42,1.78 -0.65,0.79 -0.99,1.05 -1.69,1.94 -1.08,1.36 -1.77,2.2 -2.8,3.57 -1.14,1.53 -1.88,2.31 -2.94,3.88 -1.85,2.72 -3.61,4.96 -5.45,7.73 -8.96,13.47 -16.91,27.33 -25.11,41.3 -3.33,5.66 -6.48,10.89 -10.09,16.3 -10.83,16.25 -28.01,37.56 -44.93,47.85 -2.95,1.79 -5.48,3.49 -8.6,5.04 -32.25,16.12 -65.63,15.5 -94.36,-7.19 -9.09,-7.16 -16.12,-16.8 -20.99,-27.68 -9.89,-22.1 -10.07,-42.2 -1.1,-64.81 2.68,-6.78 6.38,-12.88 10.6,-18.52 1.38,-1.86 2.84,-3.87 4.48,-5.51 8.66,-8.61 14.05,-13.13 25.13,-18.53 3.49,-1.7 7.06,-2.87 11.18,-3.82 28.93,-6.66 58.08,4.26 80.48,21.76 1.74,1.36 3.13,2.67 4.74,3.91 9.24,7.14 15.68,18.64 24.54,18.64 6.04,0 12.73,-5.46 12.73,-11.36 0,-8.13 -2.34,-9.85 -7.61,-15.13 -10.05,-10.07 -20.89,-19.56 -33.16,-26.87 -32.02,-19.08 -72.56,-26.65 -107.31,-9.25 -1.44,0.71 -2.32,1.41 -3.79,2.12 -1.68,0.83 -2.46,1.39 -4.01,2.37 -7.14,4.5 -13.46,9.61 -19.27,15.72l-7.32 8.16c-9.83,13.27 -16.66,26.01 -20.78,42.45 -2.05,8.11 -3.09,16.13 -3.18,24.1l0 2.38c0.16,13.37 2.97,26.51 8.25,39.42l3.94 8.34c8.92,14.58 11.68,19.86 25.19,31.65 16.64,14.51 40.26,24.66 64.01,24.66z"/>
    </g>
    <g style="clip-path:url(#id3)">
     <image x="881.56" y="-5.2" width="447.95" height="212.81" xlink:href="simbolo_Images\simbolo_ImgID1.png"/>
    </g>
    <g style="clip-path:url(#id4)">
    </g>
   </g>
   <path class="fil2" d="M101.4 211.98c20.32,0 34.25,-2.35 51.08,-9.85 3.35,-1.49 5.89,-2.73 8.94,-4.25 5.63,-2.79 11.14,-6.43 16.17,-10.2 3.82,-2.87 7.67,-5.65 10.99,-9.02 1.38,-1.4 2.29,-1.83 3.65,-3.17 3.73,-3.7 9.61,-9.36 12.9,-13.47 21.6,-26.99 24.45,-34.44 42.24,-64.18 6.03,-10.09 13.45,-22.65 21.24,-31.52 2.24,-2.55 3.94,-4.89 6.35,-7.29 1.35,-1.33 1.82,-1.8 3.03,-3.34 1.73,-2.22 8.27,-7.55 10.59,-9.42 17.8,-14.39 37.94,-20.33 63.35,-20.33 13.68,0 26.12,4.11 36.08,9.33l8.67 5.5c4.12,2.85 7.14,5.96 10.62,9.4 6.84,6.78 11.8,15.4 16.04,23.99 4.13,8.39 7.27,23 7.27,35.04 0,20.53 -8.25,40.4 -22.17,54.25 -28.09,27.95 -70.38,27.28 -103.64,7.48 -2.51,-1.5 -11.21,-7.15 -12.42,-8.96 23.49,0 22.1,-20.47 10.92,-25.48 -4.8,-2.15 -10.99,-0.51 -16.85,-0 -5.9,0.51 -11.65,1.29 -17.68,1.87 -7.5,0.73 -10.71,-0.09 -15.17,4.38 -4.23,4.23 -4.31,7.58 -3.38,15.01 0.78,6.25 3.02,30.67 4.46,34.65 3.51,9.73 15.3,10.64 21.9,3.82 2.76,-2.86 3.05,-5.19 3.05,-10.59 2.18,0.58 11.93,7.93 14.7,9.4 19.88,10.58 37.28,16.07 62.14,16.07 7.68,0 15.8,-1.18 21.92,-2.64 7.47,-1.77 12.32,-3.5 18.81,-6.2 8.58,-3.56 15.99,-8.63 23,-14.3 1.34,-1.08 1.84,-1.8 3.38,-2.99 5.44,-4.2 10.58,-10.86 14.38,-16.54 11.12,-16.63 18.55,-35.96 18.55,-56.5 0,-19.21 -2.38,-33.74 -9.84,-49.29 -4.14,-8.63 -8.63,-16.33 -14.6,-23.6 -10.25,-12.47 -21.3,-21.38 -35.87,-28.7 -9.76,-4.91 -27.16,-10.31 -41.53,-10.31 -21.07,0 -35.38,1.66 -53.4,8.9 -12.16,4.89 -23.91,12.32 -32.89,20.32 -5.76,5.13 -11.09,10.72 -16.36,16.38 -0.79,0.85 -0.77,0.97 -1.42,1.77 -0.65,0.81 -0.98,1.05 -1.69,1.95 -1.08,1.37 -1.77,2.2 -2.79,3.58 -1.13,1.53 -1.89,2.3 -2.95,3.87 -1.84,2.72 -3.61,4.96 -5.45,7.73 -8.95,13.46 -16.9,27.33 -25.11,41.29 -3.33,5.67 -6.48,10.89 -10.09,16.3 -10.83,16.26 -28.01,37.57 -44.93,47.85 -2.95,1.79 -5.49,3.49 -8.6,5.05 -32.26,16.12 -65.64,15.5 -94.37,-7.19 -9.08,-7.17 -16.12,-16.81 -20.98,-27.68 -9.89,-22.1 -10.07,-42.19 -1.1,-64.8 2.69,-6.78 6.38,-12.88 10.59,-18.52 1.39,-1.86 2.85,-3.88 4.49,-5.51 8.65,-8.61 14.05,-13.13 25.13,-18.53 3.48,-1.7 7.05,-2.87 11.18,-3.83 28.93,-6.67 58.08,4.27 80.48,21.76 1.74,1.36 3.14,2.67 4.74,3.9 9.25,7.14 15.68,18.65 24.55,18.65 6.04,0 12.73,-5.47 12.73,-11.37 0,-8.13 -2.35,-9.86 -7.62,-15.13 -10.05,-10.06 -20.88,-19.56 -33.16,-26.87 -32.02,-19.08 -72.55,-26.65 -107.31,-9.26 -1.43,0.71 -2.32,1.4 -3.79,2.13 -1.68,0.83 -2.45,1.38 -4,2.36 -7.14,4.5 -13.47,9.61 -19.27,15.72l-7.32 8.17c-9.83,13.26 -16.65,26 -20.79,42.44 -2.04,8.11 -3.08,16.14 -3.18,24.1l0 2.39c0.15,13.36 2.98,26.5 8.24,39.42l3.95 8.33c8.92,14.59 11.68,19.87 25.2,31.65 16.64,14.51 40.25,24.67 64.01,24.67z"/>
   <path class="fil0" d="M350.46 117.15c-2.38,-0.01 -4.58,-0.81 -6.34,-2.15l-15.39 15.2c-0.45,0.45 -1.19,0.44 -1.63,-0.01l0 0c-0.45,-0.45 -0.44,-1.19 0.01,-1.63l15.33 -15.15c-1.57,-1.86 -2.52,-4.26 -2.51,-6.89 0.03,-5.84 4.79,-10.55 10.63,-10.52 5.84,0.03 10.55,4.79 10.52,10.63 -0.01,2.57 -0.94,4.92 -2.48,6.75l10.12 9.85c0.45,0.44 0.46,1.18 0.02,1.63l0 0c-0.44,0.46 -1.18,0.46 -1.63,0.02l-10.18 -9.91c-1.79,1.38 -4.04,2.19 -6.48,2.18zm0.01 -3.1c-4.13,-0.02 -7.45,-3.38 -7.43,-7.51 0.02,-4.13 3.38,-7.45 7.51,-7.43 4.13,0.02 7.46,3.38 7.43,7.51 -0.02,4.13 -3.38,7.46 -7.51,7.43z"/>
   <path class="fil0" d="M139.52 69.58l-4.11 0 0 -6.85 -6.85 0 0 6.85 -45.21 0 0 -6.85 -6.85 0 0 6.85 -4.11 0c-5.66,0 -10.27,4.61 -10.27,10.27l0 60.28c0,5.66 4.61,10.27 10.27,10.27l67.13 0c5.66,0 10.27,-4.61 10.27,-10.27l0 -60.28c0,-5.66 -4.61,-10.27 -10.27,-10.27zm-9.59 53.09l6.85 0 0 -6.85 -6.85 0 0 6.85zm-13.7 13.7l6.85 0 0 -6.85 -6.85 0 0 6.85zm-13.7 0l6.85 0 0 -6.85 -6.85 0 0 6.85zm-13.7 0l6.85 0 0 -6.85 -6.85 0 0 6.85zm-13.7 0l6.85 0 0 -6.85 -6.85 0 0 6.85zm41.1 -13.7l6.85 0 0 -6.85 -6.85 0 0 6.85zm-13.7 0l6.85 0 0 -6.85 -6.85 0 0 6.85zm-13.7 0l6.85 0 0 -6.85 -6.85 0 0 6.85zm-13.7 0l6.85 0 0 -6.85 -6.85 0 0 6.85zm54.8 -13.7l6.85 0 0 -6.85 -6.85 0 0 6.85zm-13.7 0l6.85 0 0 -6.85 -6.85 0 0 6.85zm-13.7 0l6.85 0 0 -6.85 -6.85 0 0 6.85zm-13.7 0l6.85 0 0 -6.85 -6.85 0 0 6.85zm-13.7 0l6.85 0 0 -6.85 -6.85 0 0 6.85zm67.81 31.17c0,1.89 -1.54,3.42 -3.42,3.42l-67.13 0c-1.89,0 -3.42,-1.54 -3.42,-3.42l0 -45.21 73.98 0 0 45.21zm0 -52.06l-73.98 0 0 -8.22c0,-1.89 1.54,-3.42 3.42,-3.42l4.11 0 0 6.85 6.85 0 0 -6.85 45.21 0 0 6.85 6.85 0 0 -6.85 4.11 0c1.89,0 3.42,1.54 3.42,3.42l0 8.22z"/>
  </g>
 </g>
</svg>
