<?xml version="1.0" encoding="UTF-8"?>
<!DOCTYPE svg PUBLIC "-//W3C//DTD SVG 1.1//EN" "http://www.w3.org/Graphics/SVG/1.1/DTD/svg11.dtd">
<!-- Creator: CorelDRAW 2020 (64 Bit) -->
<svg xmlns="http://www.w3.org/2000/svg" xml:space="preserve" width="13.8648mm" height="4.7413mm" version="1.1" style="shape-rendering:geometricPrecision; text-rendering:geometricPrecision; image-rendering:optimizeQuality; fill-rule:evenodd; clip-rule:evenodd"
viewBox="0 0 1381.86 472.55"
 xmlns:xlink="http://www.w3.org/1999/xlink"
 xmlns:xodm="http://www.corel.com/coreldraw/odm/2003">
 <defs>
  <style type="text/css">
   <![CDATA[
    .fil5 {fill:none}
    .fil3 {fill:#359850}
    .fil4 {fill:#007433}
    .fil2 {fill:#B3B3B3}
    .fil0 {fill:#E6E6E6}
    .fil1 {fill:#373435;fill-rule:nonzero}
   ]]>
  </style>
      <clipPath id="id0">
       <path d="M164.52 320.23c30.69,0 51.75,-3.55 77.16,-14.89 5.06,-2.25 8.9,-4.13 13.51,-6.41 8.5,-4.23 16.83,-9.72 24.43,-15.42 5.77,-4.34 11.58,-8.53 16.6,-13.62 2.07,-2.12 3.46,-2.76 5.51,-4.79 5.64,-5.59 14.51,-14.13 19.49,-20.35 32.62,-40.78 36.94,-52.03 63.82,-96.96 9.11,-15.25 20.31,-34.22 32.08,-47.61 3.39,-3.86 5.95,-7.4 9.6,-11.01 2.03,-2.01 2.75,-2.71 4.57,-5.05 2.61,-3.35 12.5,-11.41 15.99,-14.23 26.89,-21.75 57.32,-30.71 95.7,-30.71 20.66,0 39.46,6.21 54.5,14.09l13.1 8.3c6.22,4.3 10.79,9 16.04,14.19 10.33,10.24 17.82,23.27 24.22,36.24 6.25,12.68 10.97,34.74 10.97,52.92 0,31.02 -12.46,61.04 -33.48,81.96 -42.44,42.22 -106.32,41.2 -156.57,11.29 -3.8,-2.26 -16.94,-10.8 -18.77,-13.53 35.48,0 33.39,-30.93 16.5,-38.49 -7.25,-3.25 -16.6,-0.78 -25.44,-0.01 -8.92,0.78 -17.6,1.94 -26.71,2.83 -11.33,1.11 -16.18,-0.13 -22.92,6.62 -6.39,6.4 -6.51,11.45 -5.1,22.67 1.19,9.45 4.57,46.32 6.75,52.35 5.3,14.69 23.11,16.08 33.09,5.76 4.18,-4.32 4.61,-7.83 4.61,-16 3.29,0.88 18.02,11.97 22.21,14.2 30.03,15.98 56.32,24.28 93.88,24.28 11.59,0 23.87,-1.78 33.11,-3.99 11.28,-2.67 18.62,-5.29 28.41,-9.36 12.97,-5.38 24.16,-13.05 34.74,-21.6 2.01,-1.63 2.78,-2.72 5.1,-4.51 8.21,-6.36 15.98,-16.41 21.73,-25 16.8,-25.13 28.02,-54.33 28.02,-85.35 0,-29.01 -3.6,-50.96 -14.88,-74.45 -6.25,-13.04 -13.04,-24.68 -22.06,-35.66 -15.48,-18.84 -32.18,-32.28 -54.19,-43.35 -14.74,-7.42 -41.02,-15.58 -62.74,-15.58 -31.82,0 -53.45,2.51 -80.66,13.45 -18.37,7.38 -36.12,18.61 -49.68,30.7 -8.7,7.75 -16.75,16.19 -24.72,24.75 -1.2,1.3 -1.17,1.47 -2.13,2.67 -0.99,1.22 -1.49,1.59 -2.56,2.94 -1.62,2.06 -2.67,3.33 -4.21,5.41 -1.71,2.31 -2.86,3.48 -4.46,5.84 -2.79,4.12 -5.46,7.5 -8.24,11.69 -13.52,20.34 -25.53,41.28 -37.93,62.38 -5.03,8.56 -9.8,16.44 -15.24,24.62 -16.37,24.56 -42.31,56.74 -67.87,72.28 -4.46,2.7 -8.29,5.27 -12.99,7.62 -48.73,24.36 -99.15,23.42 -142.56,-10.86 -13.7,-10.83 -24.34,-25.4 -31.69,-41.82 -14.94,-33.38 -15.21,-63.75 -1.66,-97.89 4.07,-10.25 9.64,-19.46 16,-27.98 2.11,-2.81 4.31,-5.85 6.79,-8.32 13.08,-13.02 21.23,-19.83 37.96,-28 5.26,-2.57 10.65,-4.34 16.89,-5.78 43.7,-10.07 87.74,6.45 121.56,32.87 2.64,2.05 4.74,4.03 7.17,5.89 13.98,10.78 23.69,28.18 37.09,28.18 9.13,0 19.24,-8.26 19.24,-17.17 0,-12.28 -3.55,-14.89 -11.5,-22.85 -15.2,-15.2 -31.55,-29.54 -50.09,-40.59 -48.37,-28.82 -109.6,-40.25 -162.11,-13.98 -2.16,1.08 -3.5,2.12 -5.72,3.21 -2.53,1.26 -3.7,2.09 -6.04,3.58 -10.78,6.8 -20.35,14.51 -29.12,23.74l-11.05 12.34c-14.85,20.03 -25.16,39.29 -31.39,64.11 -3.09,12.26 -4.66,24.39 -4.81,36.41l0 3.61c0.24,20.18 4.5,40.04 12.46,59.54l5.96 12.59c13.47,22.05 17.65,30.02 38.06,47.82 25.15,21.93 60.81,37.27 96.7,37.27z"/>
      </clipPath>
        <mask id="id1">
  <linearGradient id="id2" gradientUnits="userSpaceOnUse" x1="361.77" y1="-45.23" x2="361.77" y2="313.62">
   <stop offset="0" style="stop-opacity:1; stop-color:white"/>
   <stop offset="1" style="stop-opacity:0; stop-color:white"/>
  </linearGradient>
         <rect style="fill:url(#id2)" x="11.1" y="-0.25" width="690.12" height="320.72"/>
        </mask>
       <clipPath id="id3">
        <path d="M219.43 313.61c7.28,-2.12 14.56,-4.84 22.26,-8.27 5.06,-2.25 8.9,-4.13 13.51,-6.41 8.5,-4.23 16.83,-9.72 24.43,-15.42 5.77,-4.34 11.58,-8.53 16.6,-13.62 2.07,-2.12 3.46,-2.76 5.51,-4.79 5.64,-5.59 14.51,-14.13 19.49,-20.35 32.62,-40.78 36.94,-52.03 63.82,-96.96 9.11,-15.25 20.31,-34.22 32.08,-47.61 3.39,-3.86 5.95,-7.4 9.6,-11.01 2.03,-2.01 2.75,-2.71 4.57,-5.05 2.61,-3.35 12.5,-11.41 15.99,-14.23 26.89,-21.75 57.32,-30.71 95.7,-30.71 20.66,0 39.46,6.21 54.5,14.09l13.1 8.3c6.22,4.3 10.79,9 16.04,14.19 10.33,10.24 17.82,23.27 24.22,36.24 6.25,12.68 10.97,34.74 10.97,52.92 0,31.02 -12.46,61.04 -33.48,81.96 -42.44,42.22 -106.32,41.2 -156.57,11.29 -3.8,-2.26 -16.94,-10.8 -18.77,-13.53 35.48,0 33.39,-30.93 16.5,-38.49 -7.25,-3.25 -16.6,-0.78 -25.44,-0.01 -8.92,0.78 -17.6,1.94 -26.71,2.83 -11.33,1.11 -16.18,-0.13 -22.92,6.62 -6.39,6.4 -6.51,11.45 -5.1,22.67 1.19,9.45 4.57,46.32 6.75,52.35 5.3,14.69 23.11,16.08 33.09,5.76 4.18,-4.32 4.61,-7.83 4.61,-16 3.29,0.88 18.02,11.97 22.21,14.2 16.18,8.6 31.28,14.98 47.62,19.04l84.39 0c8.61,-2.27 15.13,-4.67 23.39,-8.1 12.97,-5.38 24.16,-13.05 34.74,-21.6 2.01,-1.63 2.78,-2.72 5.1,-4.51 8.21,-6.36 15.98,-16.41 21.73,-25 16.8,-25.13 28.02,-54.33 28.02,-85.35 0,-29.01 -3.6,-50.96 -14.88,-74.45 -6.25,-13.04 -13.04,-24.68 -22.06,-35.66 -15.48,-18.84 -32.18,-32.28 -54.19,-43.35 -14.74,-7.42 -41.02,-15.58 -62.74,-15.58 -31.82,0 -53.45,2.51 -80.66,13.45 -18.37,7.38 -36.12,18.61 -49.68,30.7 -8.7,7.75 -16.75,16.19 -24.72,24.75 -1.2,1.3 -1.17,1.47 -2.13,2.67 -0.99,1.22 -1.49,1.59 -2.56,2.94 -1.62,2.06 -2.67,3.33 -4.21,5.41 -1.71,2.31 -2.86,3.48 -4.46,5.84 -2.79,4.12 -5.46,7.5 -8.24,11.69 -13.52,20.34 -25.53,41.28 -37.93,62.38 -5.03,8.56 -9.8,16.44 -15.24,24.62 -16.37,24.56 -42.31,56.74 -67.87,72.28 -4.46,2.7 -8.29,5.27 -12.99,7.62 -48.73,24.36 -99.15,23.42 -142.56,-10.86 -13.7,-10.83 -24.34,-25.4 -31.69,-41.82 -14.94,-33.38 -15.21,-63.75 -1.66,-97.89 4.07,-10.25 9.64,-19.46 16,-27.98 2.11,-2.81 4.31,-5.85 6.79,-8.32 13.08,-13.02 21.23,-19.83 37.96,-28 5.26,-2.57 10.65,-4.34 16.89,-5.78 43.7,-10.07 87.74,6.45 121.56,32.87 2.64,2.05 4.74,4.03 7.17,5.89 13.98,10.78 23.69,28.18 37.09,28.18 9.13,0 19.24,-8.26 19.24,-17.17 0,-12.28 -3.55,-14.89 -11.5,-22.85 -15.2,-15.2 -31.55,-29.54 -50.09,-40.59 -48.37,-28.82 -109.6,-40.25 -162.11,-13.98 -2.16,1.08 -3.5,2.12 -5.72,3.21 -2.53,1.26 -3.7,2.09 -6.04,3.58 -10.78,6.8 -20.35,14.51 -29.12,23.74l-11.05 12.34c-4.62,6.24 -8.81,12.4 -12.57,18.68l0 166.13c9.76,15.94 15.31,23.97 32.84,39.26 15.23,13.29 34.32,24.15 54.98,30.65l96.63 0z"/>
       </clipPath>
       <clipPath id="id4">
        <path d="M164.52 320.23c30.69,0 51.75,-3.55 77.16,-14.89 5.06,-2.25 8.9,-4.13 13.51,-6.41 8.5,-4.23 16.83,-9.72 24.43,-15.42 5.77,-4.34 11.58,-8.53 16.6,-13.62 2.07,-2.12 3.46,-2.76 5.51,-4.79 5.64,-5.59 14.51,-14.13 19.49,-20.35 32.62,-40.78 36.94,-52.03 63.82,-96.96 9.11,-15.25 20.31,-34.22 32.08,-47.61 3.39,-3.86 5.95,-7.4 9.6,-11.01 2.03,-2.01 2.75,-2.71 4.57,-5.05 2.61,-3.35 12.5,-11.41 15.99,-14.23 26.89,-21.75 57.32,-30.71 95.7,-30.71 20.66,0 39.46,6.21 54.5,14.09l13.1 8.3c6.22,4.3 10.79,9 16.04,14.19 10.33,10.24 17.82,23.27 24.22,36.24 6.25,12.68 10.97,34.74 10.97,52.92 0,31.02 -12.46,61.04 -33.48,81.96 -42.44,42.22 -106.32,41.2 -156.57,11.29 -3.8,-2.26 -16.94,-10.8 -18.77,-13.53 35.48,0 33.39,-30.93 16.5,-38.49 -7.25,-3.25 -16.6,-0.78 -25.44,-0.01 -8.92,0.78 -17.6,1.94 -26.71,2.83 -11.33,1.11 -16.18,-0.13 -22.92,6.62 -6.39,6.4 -6.51,11.45 -5.1,22.67 1.19,9.45 4.57,46.32 6.75,52.35 5.3,14.69 23.11,16.08 33.09,5.76 4.18,-4.32 4.61,-7.83 4.61,-16 3.29,0.88 18.02,11.97 22.21,14.2 30.03,15.98 56.32,24.28 93.88,24.28 11.59,0 23.87,-1.78 33.11,-3.99 11.28,-2.67 18.62,-5.29 28.41,-9.36 12.97,-5.38 24.16,-13.05 34.74,-21.6 2.01,-1.63 2.78,-2.72 5.1,-4.51 8.21,-6.36 15.98,-16.41 21.73,-25 16.8,-25.13 28.02,-54.33 28.02,-85.35 0,-29.01 -3.6,-50.96 -14.88,-74.45 -6.25,-13.04 -13.04,-24.68 -22.06,-35.66 -15.48,-18.84 -32.18,-32.28 -54.19,-43.35 -14.74,-7.42 -41.02,-15.58 -62.74,-15.58 -31.82,0 -53.45,2.51 -80.66,13.45 -18.37,7.38 -36.12,18.61 -49.68,30.7 -8.7,7.75 -16.75,16.19 -24.72,24.75 -1.2,1.3 -1.17,1.47 -2.13,2.67 -0.99,1.22 -1.49,1.59 -2.56,2.94 -1.62,2.06 -2.67,3.33 -4.21,5.41 -1.71,2.31 -2.86,3.48 -4.46,5.84 -2.79,4.12 -5.46,7.5 -8.24,11.69 -13.52,20.34 -25.53,41.28 -37.93,62.38 -5.03,8.56 -9.8,16.44 -15.24,24.62 -16.37,24.56 -42.31,56.74 -67.87,72.28 -4.46,2.7 -8.29,5.27 -12.99,7.62 -48.73,24.36 -99.15,23.42 -142.56,-10.86 -13.7,-10.83 -24.34,-25.4 -31.69,-41.82 -14.94,-33.38 -15.21,-63.75 -1.66,-97.89 4.07,-10.25 9.64,-19.46 16,-27.98 2.11,-2.81 4.31,-5.85 6.79,-8.32 13.08,-13.02 21.23,-19.83 37.96,-28 5.26,-2.57 10.65,-4.34 16.89,-5.78 43.7,-10.07 87.74,6.45 121.56,32.87 2.64,2.05 4.74,4.03 7.17,5.89 13.98,10.78 23.69,28.18 37.09,28.18 9.13,0 19.24,-8.26 19.24,-17.17 0,-12.28 -3.55,-14.89 -11.5,-22.85 -15.2,-15.2 -31.55,-29.54 -50.09,-40.59 -48.37,-28.82 -109.6,-40.25 -162.11,-13.98 -2.16,1.08 -3.5,2.12 -5.72,3.21 -2.53,1.26 -3.7,2.09 -6.04,3.58 -10.78,6.8 -20.35,14.51 -29.12,23.74l-11.05 12.34c-14.85,20.03 -25.16,39.29 -31.39,64.11 -3.09,12.26 -4.66,24.39 -4.81,36.41l0 3.61c0.24,20.18 4.5,40.04 12.46,59.54l5.96 12.59c13.47,22.05 17.65,30.02 38.06,47.82 25.15,21.93 60.81,37.27 96.7,37.27z"/>
       </clipPath>
 </defs>
 <g id="Camada_x0020_1">
  <metadata id="CorelCorpID_0Corel-Layer"/>
  <g id="_1737984755056">
   <g>
    <path class="fil0" d="M746.58 16.24l0 0c3.66,0 6.65,2.98 6.65,6.64l0 277.58c0,3.66 -2.99,6.64 -6.65,6.64l0 0c-3.65,0 -6.64,-2.98 -6.64,-6.64l0 -277.58c0,-3.66 2.99,-6.64 6.64,-6.64z"/>
    <path class="fil1" d="M841.57 28l62.66 0c22.06,0 40.65,12.63 55.63,37.95 3.14,8.48 4.74,16.07 4.74,22.8l0 1.49 -1.6 1.55 -22.73 0c-1.01,0 -2.07,-4.34 -3.07,-12.96 -8.23,-17.16 -20.81,-25.77 -37.65,-25.77l-53.29 0c-18.66,0 -31.49,9.85 -38.38,29.6l-0.81 8.35 0 1.49c0,18.46 21.2,32.9 63.46,43.27 33.84,10.11 58.65,22.53 74.49,37.18 13.04,14.83 19.59,30.25 19.59,46.32l0 7.57c0,25.58 -14.64,44.82 -43.93,57.72 -6.35,2 -11.83,3.04 -16.44,3.04l-62.66 0c-22.07,0 -40.65,-12.63 -55.63,-37.95 -3.14,-8.49 -4.68,-16.07 -4.68,-22.8l0 -1.49 1.54 -1.49 22.72 0c1.02,0 2.08,4.28 3.15,12.89 8.22,17.17 20.73,25.78 37.58,25.78l53.29 0c18.66,0 31.49,-9.85 38.38,-29.6l0.81 -8.35 0 -1.49c0,-26.16 -18.79,-44.89 -56.44,-56.15 -47.28,-14.06 -75.97,-26.69 -86.19,-37.96 -9.9,-11.13 -14.85,-22.28 -14.85,-33.42l0 -6.8c0,-25.58 14.58,-44.83 43.87,-57.72 6.49,-2 11.97,-3.04 16.44,-3.04zm202.95 0l62.66 0c22.06,0 40.65,12.63 55.63,37.95 3.14,8.48 4.74,16.07 4.74,22.8l0 1.49 -1.6 1.55 -22.73 0c-1.01,0 -2.07,-4.34 -3.08,-12.96 -8.22,-17.16 -20.8,-25.77 -37.64,-25.77l-53.3 0c-18.65,0 -31.49,9.85 -38.38,29.6l-0.8 8.35 0 133.56c0,18.13 10.23,30.51 30.56,37.24l8.62 0.72 53.3 0c18.66,0 31.49,-9.85 38.38,-29.6l0.8 -8.35 0 -1.49c0,-27.33 -20.66,-46.56 -61.92,-57.71l-7.81 -3.76 0 -0.78 7.09 -22.03 0.73 0c58.52,16.07 87.81,42.88 87.81,80.45l0 7.57c0,25.58 -14.64,44.82 -43.94,57.72 -6.35,2 -11.83,3.04 -16.43,3.04l-62.66 0c-22.07,0 -40.65,-12.63 -55.64,-37.95 -3.13,-8.49 -4.67,-16.07 -4.67,-22.8l0 -138.09c0,-25.58 14.58,-44.83 43.87,-57.72 6.48,-2 11.96,-3.04 16.44,-3.04zm202.94 2.26l62.66 0c22.07,0 40.65,12.7 55.63,37.95 3.14,8.49 4.74,16.07 4.74,22.8l0 7.57c0,37.57 -29.28,64.38 -87.8,80.45l-0.73 0 -7.1 -23.51c34.5,-10.24 55.63,-22.41 63.46,-36.47 4.22,-7.06 6.29,-15.16 6.29,-24.29l0 -1.49c0,-17.94 -10.17,-30.37 -30.56,-37.18l-8.62 -0.78 -53.3 0c-18.52,0 -31.37,9.85 -38.38,29.6l-0.8 8.35 0 192.83 -1.54 1.49 -22.73 0 -1.54 -1.49 0 -195.1c0,-25.58 14.58,-44.82 43.87,-57.71 6.49,-2.01 11.97,-3.05 16.44,-3.05z"/>
    <g>
     <path class="fil2" d="M537.91 256.92l0.05 -11.15c0.01,-1.29 1.07,-2.33 2.35,-2.33l0.01 0c1.29,0.01 2.33,1.07 2.32,2.35l-0.05 11.2c13.68,-0.1 27.23,-2.94 39,-8.8 1.63,-0.82 3.23,-1.65 4.78,-2.51l-6.25 -9.55c-0.71,-1.08 -0.4,-2.54 0.68,-3.24l0 -0.01c1.08,-0.7 2.54,-0.4 3.24,0.68l6.4 9.78c13.05,-7.87 23.35,-17.69 31.49,-30.9l-9.06 -6.58c-1.04,-0.76 -1.28,-2.23 -0.52,-3.27l0.01 0c0.75,-1.05 2.22,-1.28 3.27,-0.53l8.68 6.31c1.18,-2.12 2.3,-4.33 3.39,-6.62 5.85,-12.38 8.17,-23.62 8.75,-37.56l-11.54 -0.06c-1.29,-0.01 -2.33,-1.07 -2.33,-2.35l0 -0.01c0.01,-1.29 1.07,-2.33 2.36,-2.32l11.64 0.05 0.02 -2.03c0.06,-13.71 -4.59,-30.3 -11.28,-42.65l-9.29 6.62c-1.06,0.74 -2.52,0.5 -3.27,-0.56l0 0c-0.75,-1.05 -0.5,-2.52 0.55,-3.27l9.64 -6.86c-1.27,-2.01 -2.35,-3.52 -3.82,-5.67 -7.11,-10.46 -16.57,-19.17 -27.48,-25.77l-6.9 10.32c-0.72,1.08 -2.18,1.37 -3.25,0.65l-0.01 0c-1.07,-0.72 -1.36,-2.17 -0.64,-3.25l6.72 -10.06c-13.35,-7.23 -28.54,-11.41 -44.04,-11.93l-0.06 11.96c-0.01,1.29 -1.07,2.33 -2.35,2.32l0 0c-1.3,0 -2.34,-1.07 -2.33,-2.35l0.06 -11.98c-13.52,0.2 -27.15,3.21 -39.85,9.48 -1.5,0.74 -2.93,1.48 -4.3,2.21l6.08 9.3c0.71,1.08 0.4,2.54 -0.68,3.24l0 0.01c-1.08,0.7 -2.53,0.4 -3.24,-0.68l-6.23 -9.53c-2.22,1.37 -4.37,2.82 -6.59,4.48 -3.32,2.49 -11.85,10.65 -12.85,10.65 -1.32,-0.01 -2.5,-0.39 -2.49,-2.01 0.01,-3.09 3.02,-4.95 6.12,-7.4l6.81 -5.69c15.71,-11.62 35.3,-18.16 55.01,-19.08l10.53 0.05c12.85,0.73 25.46,3.9 36.79,9.68 7.85,4.02 15.71,8.29 22.33,14.24l6.23 5.78c8.18,8.24 15.22,17.74 20.1,28.39 7.35,16.04 9.03,28.07 8.94,46.87 -0.07,14.56 -5.71,32.88 -11.7,43.46l-6.79 11.24c-9.51,14.15 -21.07,22.77 -35.48,31.05 -1.57,0.9 -1.95,1.24 -3.97,2.02 -1.57,0.63 -2.73,1.29 -4.5,1.98 -1.4,0.55 -2.68,0.97 -4.38,1.61 -3.12,1.19 -5.96,1.94 -9.24,2.74 -6.85,1.67 -13.72,2.63 -20.55,2.9l-9.11 -0.05c-21.33,-1.06 -41.79,-8.79 -58.79,-22.35 -2.68,-2.14 -9.04,-7.01 -9.02,-9.99l0 -0.05c0.03,-1.15 0.86,-1.94 2.01,-1.93 2.29,0.01 2.52,1.49 4.14,2.87l9.83 8.19c1.93,1.48 3.97,2.86 6.07,4.17l6.07 -9.09c0.72,-1.07 2.17,-1.36 3.25,-0.65l0 0.01c1.08,0.71 1.37,2.17 0.65,3.25l-5.91 8.83c12.99,7.09 28.35,11.11 43.76,11.7z"/>
     <path class="fil3" d="M164.52 320.23c30.69,0 51.75,-3.55 77.16,-14.89 5.06,-2.25 8.9,-4.13 13.51,-6.41 8.5,-4.23 16.83,-9.72 24.43,-15.42 5.77,-4.34 11.58,-8.53 16.6,-13.62 2.07,-2.12 3.46,-2.76 5.51,-4.79 5.64,-5.59 14.51,-14.13 19.49,-20.35 32.62,-40.78 36.94,-52.03 63.82,-96.96 9.11,-15.25 20.31,-34.22 32.08,-47.61 3.39,-3.86 5.95,-7.4 9.6,-11.01 2.03,-2.01 2.75,-2.71 4.57,-5.05 2.61,-3.35 12.5,-11.41 15.99,-14.23 26.89,-21.75 57.32,-30.71 95.7,-30.71 20.66,0 39.46,6.21 54.5,14.09l13.1 8.3c6.22,4.3 10.79,9 16.04,14.19 10.33,10.24 17.82,23.27 24.22,36.24 6.25,12.68 10.97,34.74 10.97,52.92 0,31.02 -12.46,61.04 -33.48,81.96 -42.44,42.22 -106.32,41.2 -156.57,11.29 -3.8,-2.26 -16.94,-10.8 -18.77,-13.53 35.48,0 33.39,-30.93 16.5,-38.49 -7.25,-3.25 -16.6,-0.78 -25.44,-0.01 -8.92,0.78 -17.6,1.94 -26.71,2.83 -11.33,1.11 -16.18,-0.13 -22.92,6.62 -6.39,6.4 -6.51,11.45 -5.1,22.67 1.19,9.45 4.57,46.32 6.75,52.35 5.3,14.69 23.11,16.08 33.09,5.76 4.18,-4.32 4.61,-7.83 4.61,-16 3.29,0.88 18.02,11.97 22.21,14.2 30.03,15.98 56.32,24.28 93.88,24.28 11.59,0 23.87,-1.78 33.11,-3.99 11.28,-2.67 18.62,-5.29 28.41,-9.36 12.97,-5.38 24.16,-13.05 34.74,-21.6 2.01,-1.63 2.78,-2.72 5.1,-4.51 8.21,-6.36 15.98,-16.41 21.73,-25 16.8,-25.13 28.02,-54.33 28.02,-85.35 0,-29.01 -3.6,-50.96 -14.88,-74.45 -6.25,-13.04 -13.04,-24.68 -22.06,-35.66 -15.48,-18.84 -32.18,-32.28 -54.19,-43.35 -14.74,-7.42 -41.02,-15.58 -62.74,-15.58 -31.82,0 -53.45,2.51 -80.66,13.45 -18.37,7.38 -36.12,18.61 -49.68,30.7 -8.7,7.75 -16.75,16.19 -24.72,24.75 -1.2,1.3 -1.17,1.47 -2.13,2.67 -0.99,1.22 -1.49,1.59 -2.56,2.94 -1.62,2.06 -2.67,3.33 -4.21,5.41 -1.71,2.31 -2.86,3.48 -4.46,5.84 -2.79,4.12 -5.46,7.5 -8.24,11.69 -13.52,20.34 -25.53,41.28 -37.93,62.38 -5.03,8.56 -9.8,16.44 -15.24,24.62 -16.37,24.56 -42.31,56.74 -67.87,72.28 -4.46,2.7 -8.29,5.27 -12.99,7.62 -48.73,24.36 -99.15,23.42 -142.56,-10.86 -13.7,-10.83 -24.34,-25.4 -31.69,-41.82 -14.94,-33.38 -15.21,-63.75 -1.66,-97.89 4.07,-10.25 9.64,-19.46 16,-27.98 2.11,-2.81 4.31,-5.85 6.79,-8.32 13.08,-13.02 21.23,-19.83 37.96,-28 5.26,-2.57 10.65,-4.34 16.89,-5.78 43.7,-10.07 87.74,6.45 121.56,32.87 2.64,2.05 4.74,4.03 7.17,5.89 13.98,10.78 23.69,28.18 37.09,28.18 9.13,0 19.24,-8.26 19.24,-17.17 0,-12.28 -3.55,-14.89 -11.5,-22.85 -15.2,-15.2 -31.55,-29.54 -50.09,-40.59 -48.37,-28.82 -109.6,-40.25 -162.11,-13.98 -2.16,1.08 -3.5,2.12 -5.72,3.21 -2.53,1.26 -3.7,2.09 -6.04,3.58 -10.78,6.8 -20.35,14.51 -29.12,23.74l-11.05 12.34c-14.85,20.03 -25.16,39.29 -31.39,64.11 -3.09,12.26 -4.66,24.39 -4.81,36.41l0 3.61c0.24,20.18 4.5,40.04 12.46,59.54l5.96 12.59c13.47,22.05 17.65,30.02 38.06,47.82 25.15,21.93 60.81,37.27 96.7,37.27z"/>
     <g style="clip-path:url(#id0)">
      <g>
       <path id="1" class="fil4" style="mask:url(#id1)" d="M164.51 320.22c30.7,0 51.76,-3.54 77.16,-14.89 5.07,-2.24 8.9,-4.12 13.53,-6.4 8.49,-4.22 16.82,-9.72 24.42,-15.41 5.78,-4.35 11.57,-8.53 16.58,-13.63 2.09,-2.12 3.47,-2.76 5.52,-4.79 5.66,-5.59 14.53,-14.14 19.5,-20.35 32.63,-40.76 36.93,-52.03 63.81,-96.96 9.12,-15.23 20.33,-34.22 32.09,-47.6 3.4,-3.87 5.95,-7.41 9.61,-11.02 2.02,-2.01 2.74,-2.71 4.56,-5.05 2.61,-3.35 12.5,-11.41 15.99,-14.23 26.89,-21.74 57.3,-30.71 95.68,-30.71 20.68,0 39.48,6.21 54.52,14.1l13.1 8.28c6.23,4.31 10.78,9 16.03,14.2 10.34,10.25 17.82,23.28 24.22,36.25 6.25,12.68 10.99,34.73 10.99,52.91 0,31.01 -12.48,61.04 -33.48,81.94 -42.45,42.24 -106.33,41.23 -156.58,11.31 -3.8,-2.25 -16.92,-10.81 -18.77,-13.53 35.49,0 33.38,-30.92 16.5,-38.51 -7.26,-3.24 -16.59,-0.76 -25.44,0 -8.92,0.8 -17.59,1.95 -26.7,2.85 -11.35,1.1 -16.19,-0.14 -22.93,6.61 -6.37,6.41 -6.51,11.44 -5.1,22.67 1.18,9.45 4.56,46.32 6.75,52.36 5.3,14.68 23.11,16.07 33.09,5.75 4.18,-4.32 4.61,-7.83 4.61,-15.99 3.29,0.85 18.03,11.95 22.2,14.19 30.04,15.98 56.32,24.29 93.89,24.29 11.59,0 23.87,-1.79 33.11,-4 11.29,-2.66 18.63,-5.29 28.42,-9.36 12.96,-5.38 24.14,-13.06 34.72,-21.6 2.03,-1.62 2.79,-2.72 5.1,-4.5 8.22,-6.36 16,-16.42 21.73,-25.01 16.81,-25.13 28.03,-54.32 28.03,-85.35 0,-29.01 -3.6,-50.98 -14.86,-74.47 -6.28,-13.02 -13.06,-24.67 -22.07,-35.63 -15.49,-18.85 -32.2,-32.29 -54.21,-43.36 -14.74,-7.42 -41.01,-15.58 -62.73,-15.58 -31.83,0 -53.45,2.5 -80.66,13.44 -18.37,7.39 -36.13,18.6 -49.68,30.71 -8.7,7.74 -16.76,16.19 -24.72,24.75 -1.21,1.3 -1.16,1.47 -2.14,2.67 -0.98,1.22 -1.49,1.59 -2.56,2.95 -1.6,2.05 -2.66,3.32 -4.21,5.41 -1.7,2.3 -2.85,3.47 -4.45,5.83 -2.78,4.12 -5.45,7.51 -8.25,11.68 -13.5,20.35 -25.52,41.3 -37.92,62.38 -5.02,8.57 -9.78,16.44 -15.23,24.63 -16.39,24.56 -42.32,56.74 -67.88,72.28 -4.46,2.69 -8.29,5.27 -12.99,7.62 -48.73,24.34 -99.15,23.42 -142.57,-10.85 -13.69,-10.85 -24.34,-25.4 -31.68,-41.82 -14.94,-33.4 -15.21,-63.75 -1.65,-97.9 4.06,-10.26 9.62,-19.46 15.99,-27.99 2.12,-2.8 4.3,-5.84 6.79,-8.3 13.09,-13.03 21.23,-19.84 37.96,-28.01 5.27,-2.55 10.65,-4.35 16.89,-5.77 43.7,-10.07 87.74,6.45 121.56,32.86 2.63,2.04 4.74,4.03 7.17,5.88 13.97,10.79 23.7,28.19 37.09,28.19 9.12,0 19.25,-8.25 19.25,-17.16 0,-12.3 -3.56,-14.9 -11.51,-22.86 -15.2,-15.21 -31.54,-29.53 -50.1,-40.59 -48.36,-28.82 -109.6,-40.25 -162.08,-13.98 -2.17,1.08 -3.51,2.11 -5.73,3.21 -2.53,1.25 -3.71,2.09 -6.05,3.57 -10.79,6.81 -20.35,14.52 -29.11,23.75l-11.06 12.34c-14.85,20.04 -25.16,39.28 -31.39,64.11 -3.1,12.26 -4.65,24.39 -4.8,36.41l0 3.6c0.23,20.19 4.49,40.05 12.43,59.55l5.97 12.58c13.48,22.06 17.66,30.02 38.08,47.82 25.14,21.94 60.8,37.27 96.68,37.27z"/>
      </g>
      <g style="clip-path:url(#id3)">
       <image x="34.98" y="-7.85" width="676.68" height="321.46" xlink:href="logomodal_Images\logomodal_ImgID1.png"/>
      </g>
      <g style="clip-path:url(#id4)">
      </g>
     </g>
     <path class="fil5" d="M164.52 320.23c30.69,0 51.75,-3.55 77.16,-14.89 5.06,-2.25 8.9,-4.13 13.51,-6.41 8.5,-4.23 16.83,-9.72 24.43,-15.42 5.77,-4.34 11.58,-8.53 16.6,-13.62 2.07,-2.12 3.46,-2.76 5.51,-4.79 5.64,-5.59 14.51,-14.13 19.49,-20.35 32.62,-40.78 36.94,-52.03 63.82,-96.96 9.11,-15.25 20.31,-34.22 32.08,-47.61 3.39,-3.86 5.95,-7.4 9.6,-11.01 2.03,-2.01 2.75,-2.71 4.57,-5.05 2.61,-3.35 12.5,-11.41 15.99,-14.23 26.89,-21.75 57.32,-30.71 95.7,-30.71 20.66,0 39.46,6.21 54.5,14.09l13.1 8.3c6.22,4.3 10.79,9 16.04,14.19 10.33,10.24 17.82,23.27 24.22,36.24 6.25,12.68 10.97,34.74 10.97,52.92 0,31.02 -12.46,61.04 -33.48,81.96 -42.44,42.22 -106.32,41.2 -156.57,11.29 -3.8,-2.26 -16.94,-10.8 -18.77,-13.53 35.48,0 33.39,-30.93 16.5,-38.49 -7.25,-3.25 -16.6,-0.78 -25.44,-0.01 -8.92,0.78 -17.6,1.94 -26.71,2.83 -11.33,1.11 -16.18,-0.13 -22.92,6.62 -6.39,6.4 -6.51,11.45 -5.1,22.67 1.19,9.45 4.57,46.32 6.75,52.35 5.3,14.69 23.11,16.08 33.09,5.76 4.18,-4.32 4.61,-7.83 4.61,-16 3.29,0.88 18.02,11.97 22.21,14.2 30.03,15.98 56.32,24.28 93.88,24.28 11.59,0 23.87,-1.78 33.11,-3.99 11.28,-2.67 18.62,-5.29 28.41,-9.36 12.97,-5.38 24.16,-13.05 34.74,-21.6 2.01,-1.63 2.78,-2.72 5.1,-4.51 8.21,-6.36 15.98,-16.41 21.73,-25 16.8,-25.13 28.02,-54.33 28.02,-85.35 0,-29.01 -3.6,-50.96 -14.88,-74.45 -6.25,-13.04 -13.04,-24.68 -22.06,-35.66 -15.48,-18.84 -32.18,-32.28 -54.19,-43.35 -14.74,-7.42 -41.02,-15.58 -62.74,-15.58 -31.82,0 -53.45,2.51 -80.66,13.45 -18.37,7.38 -36.12,18.61 -49.68,30.7 -8.7,7.75 -16.75,16.19 -24.72,24.75 -1.2,1.3 -1.17,1.47 -2.13,2.67 -0.99,1.22 -1.49,1.59 -2.56,2.94 -1.62,2.06 -2.67,3.33 -4.21,5.41 -1.71,2.31 -2.86,3.48 -4.46,5.84 -2.79,4.12 -5.46,7.5 -8.24,11.69 -13.52,20.34 -25.53,41.28 -37.93,62.38 -5.03,8.56 -9.8,16.44 -15.24,24.62 -16.37,24.56 -42.31,56.74 -67.87,72.28 -4.46,2.7 -8.29,5.27 -12.99,7.62 -48.73,24.36 -99.15,23.42 -142.56,-10.86 -13.7,-10.83 -24.34,-25.4 -31.69,-41.82 -14.94,-33.38 -15.21,-63.75 -1.66,-97.89 4.07,-10.25 9.64,-19.46 16,-27.98 2.11,-2.81 4.31,-5.85 6.79,-8.32 13.08,-13.02 21.23,-19.83 37.96,-28 5.26,-2.57 10.65,-4.34 16.89,-5.78 43.7,-10.07 87.74,6.45 121.56,32.87 2.64,2.05 4.74,4.03 7.17,5.89 13.98,10.78 23.69,28.18 37.09,28.18 9.13,0 19.24,-8.26 19.24,-17.17 0,-12.28 -3.55,-14.89 -11.5,-22.85 -15.2,-15.2 -31.55,-29.54 -50.09,-40.59 -48.37,-28.82 -109.6,-40.25 -162.11,-13.98 -2.16,1.08 -3.5,2.12 -5.72,3.21 -2.53,1.26 -3.7,2.09 -6.04,3.58 -10.78,6.8 -20.35,14.51 -29.12,23.74l-11.05 12.34c-14.85,20.03 -25.16,39.29 -31.39,64.11 -3.09,12.26 -4.66,24.39 -4.81,36.41l0 3.61c0.24,20.18 4.5,40.04 12.46,59.54l5.96 12.59c13.47,22.05 17.65,30.02 38.06,47.82 25.15,21.93 60.81,37.27 96.7,37.27z"/>
     <path class="fil3" d="M540.76 176.97c-3.61,-0.02 -6.92,-1.23 -9.58,-3.25l-23.25 22.96c-0.68,0.67 -1.78,0.67 -2.46,-0.02l0 0c-0.68,-0.69 -0.67,-1.79 0.01,-2.46l23.17 -22.88c-2.38,-2.81 -3.81,-6.44 -3.79,-10.41 0.04,-8.82 7.23,-15.94 16.06,-15.9 8.82,0.04 15.94,7.24 15.89,16.06 -0.01,3.89 -1.42,7.44 -3.74,10.2l15.29 14.87c0.69,0.67 0.71,1.78 0.04,2.47l0 0c-0.67,0.69 -1.78,0.7 -2.47,0.03l-15.38 -14.97c-2.71,2.08 -6.11,3.32 -9.79,3.3zm0.02 -4.69c-6.23,-0.03 -11.26,-5.1 -11.23,-11.34 0.03,-6.23 5.11,-11.26 11.34,-11.23 6.24,0.04 11.26,5.11 11.23,11.35 -0.03,6.23 -5.11,11.25 -11.34,11.22z"/>
     <path class="fil2" d="M222.12 105.11l-6.21 0 0 -10.35 -10.36 0 0 10.35 -68.29 0 0 -10.35 -10.35 0 0 10.35 -6.21 0c-8.56,0 -15.52,6.97 -15.52,15.53l0 91.06c0,8.56 6.96,15.52 15.52,15.52l101.41 0c8.55,0 15.52,-6.96 15.52,-15.52l0 -91.06c0,-8.56 -6.97,-15.53 -15.52,-15.53zm-14.49 80.2l10.35 0 0 -10.36 -10.35 0 0 10.36zm-20.69 20.69l10.35 0 0 -10.35 -10.35 0 0 10.35zm-20.7 0l10.35 0 0 -10.35 -10.35 0 0 10.35zm-20.69 0l10.35 0 0 -10.35 -10.35 0 0 10.35zm-20.7 0l10.36 0 0 -10.35 -10.36 0 0 10.35zm62.09 -20.69l10.35 0 0 -10.36 -10.35 0 0 10.36zm-20.7 0l10.35 0 0 -10.36 -10.35 0 0 10.36zm-20.69 0l10.35 0 0 -10.36 -10.35 0 0 10.36zm-20.7 0l10.36 0 0 -10.36 -10.36 0 0 10.36zm82.78 -20.7l10.35 0 0 -10.35 -10.35 0 0 10.35zm-20.69 0l10.35 0 0 -10.35 -10.35 0 0 10.35zm-20.7 0l10.35 0 0 -10.35 -10.35 0 0 10.35zm-20.69 0l10.35 0 0 -10.35 -10.35 0 0 10.35zm-20.7 0l10.36 0 0 -10.35 -10.36 0 0 10.35zm102.45 47.08c0,2.85 -2.32,5.17 -5.18,5.17l-101.4 0c-2.85,0 -5.17,-2.32 -5.17,-5.17l0 -68.29 111.76 0 0 68.29zm0 -78.64l-111.76 0 0 -12.42c0,-2.85 2.32,-5.17 5.17,-5.17l6.21 0 0 10.35 10.35 0 0 -10.35 68.29 0 0 10.35 10.36 0 0 -10.35 6.21 0c2.85,0 5.17,2.32 5.17,5.17l0 12.42z"/>
    </g>
   </g>
   <path class="fil1" d="M-0 466.09c2.74,3.52 8.15,6.31 13.11,6.31 12.12,0 17.99,-13.22 17.99,-28.49 0,-14.54 -4.43,-22.61 -13.11,-29.08 -7.1,-5.28 -10.22,-9.84 -10.22,-19.09 0,-6.76 2.67,-14.84 9.68,-14.84 4.65,0 8.08,2.94 9.76,4.7l1.82 -10.43c-2.28,-2.5 -6.09,-4.85 -11.35,-4.85 -9.99,0 -16.61,11.46 -16.61,26.88 0,13.95 5.18,22.33 13.56,28.06 6.94,5.14 9.68,10.43 9.68,19.68 0,9.99 -3.96,16.88 -10.74,16.88 -4.57,0 -8.91,-2.93 -11.89,-6.46l-1.67 10.72zm40.17 -94.15l0 99 6.63 0 0 -99 -6.63 0zm15.62 94.15c2.75,3.52 8.15,6.31 13.12,6.31 12.11,0 17.98,-13.22 17.98,-28.49 0,-14.54 -4.42,-22.61 -13.11,-29.08 -7.09,-5.28 -10.22,-9.84 -10.22,-19.09 0,-6.76 2.67,-14.84 9.68,-14.84 4.65,0 8.08,2.94 9.76,4.7l1.83 -10.43c-2.29,-2.5 -6.1,-4.85 -11.36,-4.85 -9.98,0 -16.61,11.46 -16.61,26.88 0,13.95 5.18,22.33 13.56,28.06 6.94,5.14 9.69,10.43 9.69,19.68 0,9.99 -3.97,16.88 -10.75,16.88 -4.56,0 -8.91,-2.93 -11.89,-6.46l-1.67 10.72zm49.92 4.84l6.71 0 0 -88.13 15.7 0 0 -10.87 -38.03 0 0 10.87 15.63 0 0 88.13zm54.72 -56.99l-19.96 0 0 -31.29 21.11 0 0 -10.72 -27.75 0 0 99 28.88 0 0 -10.72 -22.25 0 0 -35.69 19.96 0 0 -10.57zm55.48 56.99l6.48 0 -3.2 -99 -8.46 0 -9.15 47.89c-2.28,12.48 -4.12,23.35 -5.41,33.34l-0.23 0c-1.3,-10.29 -3.04,-21.15 -5.18,-33.34l-8.76 -47.89 -8.46 0 -3.58 99 6.33 0 1.37 -42.45c0.46,-14.83 0.84,-31.43 1,-43.76l0.15 0c1.45,11.74 3.51,24.53 5.94,38.47l8.31 47.15 5.02 0 9.07 -48.03c2.59,-13.65 4.73,-25.99 6.48,-37.59l0.23 0c-0.07,12.33 0.39,28.93 0.77,42.74l1.3 43.47zm42.45 -31.14l5.48 31.14 7.1 0 -17.53 -99 -8 0 -17.45 99 6.86 0 5.33 -31.14 18.22 0zm-16.84 -9.99l5.03 -28.64c0.99,-6.02 1.82,-12.04 2.59,-17.92l0.15 0c0.76,5.73 1.52,11.6 2.67,18.07l5.02 28.49 -15.47 0zm53.12 40.82c3.35,0.74 7.32,1.18 12.04,1.18 9.99,0 17.91,-4.99 22.71,-14.24 4.79,-9.11 7.39,-22.33 7.39,-38.48 0,-16.01 -2.66,-27.47 -7.24,-35.54 -4.49,-8.08 -11.28,-12.34 -20.81,-12.34 -5.25,0 -10.06,0.88 -14.09,2.05l0 97.37zm6.63 -87.98c1.75,-0.73 4.35,-1.32 7.77,-1.32 14.02,0 20.88,14.83 20.8,38.18 0,26.73 -7.69,42.01 -21.87,42.01 -2.59,0 -5.03,-0.15 -6.71,-0.74l0 -78.14zm70.72 31.29l-19.96 0 0 -31.29 21.11 0 0 -10.72 -27.75 0 0 99 28.88 0 0 -10.72 -22.25 0 0 -35.69 19.96 0 0 -10.57zm66.15 4.99l-16.91 0 0 10.29 10.44 0 0 29.52c-1.52,1.47 -4.49,2.64 -8.84,2.64 -11.96,0 -19.81,-14.83 -19.81,-39.95 0,-24.83 8.15,-39.81 20.65,-39.81 5.18,0 8.61,1.91 11.36,4.26l1.59 -10.43c-2.21,-2.05 -6.86,-4.55 -12.8,-4.55 -17.22,0 -27.75,21.6 -27.82,51.12 0,15.42 2.74,28.63 7.16,36.87 5.03,9.25 11.43,13.07 19.22,13.07 6.93,0 12.8,-3.38 15.77,-5.43l0 -47.59zm36.74 -4.99l-19.96 0 0 -31.29 21.11 0 0 -10.72 -27.75 0 0 99 28.88 0 0 -10.72 -22.25 0 0 -35.69 19.96 0 0 -10.57zm10.89 56.99l6.64 0 0 -42.89 6.25 0c6.02,0.44 8.76,5.58 10.29,19.24 1.45,12.34 2.59,20.86 3.43,23.65l6.86 0c-1.07,-3.82 -2.28,-13.37 -3.96,-27.17 -1.23,-10.29 -3.59,-17.33 -7.55,-19.97l0 -0.45c5.42,-3.52 9.69,-12.19 9.69,-25.26 0,-7.64 -1.46,-14.4 -4.05,-18.81 -3.2,-5.58 -7.77,-8.07 -14.86,-8.07 -4.56,0 -9.37,0.73 -12.73,2.05l0 97.67zm6.64 -88.71c1.07,-0.59 3.35,-1.18 6.55,-1.18 7.02,0.15 11.81,5.73 11.81,18.51 0,11.31 -4.49,18.8 -11.58,18.8l-6.78 0 0 -36.13zm60.97 31.72l-19.96 0 0 -31.29 21.11 0 0 -10.72 -27.75 0 0 99 28.88 0 0 -10.72 -22.25 0 0 -35.69 19.96 0 0 -10.57zm17.15 56.99l0 -42.3c0,-16.45 -0.16,-28.35 -0.54,-40.83l0.23 -0.15c2.59,10.72 6.02,22.04 9.6,33.05l16.32 50.23 6.71 0 0 -99 -6.25 0 0 41.42c0,15.42 0.15,27.47 0.76,40.68l-0.15 0.15c-2.44,-10.14 -5.41,-20.56 -9.22,-32.16l-16.46 -50.09 -7.25 0 0 99 6.26 0zm78.42 -13.37c-2.67,2.49 -6.79,4.11 -10.82,4.11 -12.5,0 -19.74,-15.57 -19.74,-39.8 0,-25.99 8,-40.83 20.04,-40.83 4.28,0 7.85,1.76 10.37,4.12l1.6 -10.43c-1.75,-1.76 -5.79,-4.42 -12.19,-4.42 -15.94,0 -26.83,21.01 -26.83,52 0,32.46 10.89,50.08 25.38,50.08 6.25,0 11.13,-2.35 13.56,-4.69l-1.37 -10.14zm9.68 -85.63l0 99 6.63 0 0 -99 -6.63 0zm44.73 67.86l5.49 31.14 7.09 0 -17.53 -99 -8 0 -17.45 99 6.86 0 5.34 -31.14 18.21 0zm-16.84 -9.99l5.03 -28.64c1,-6.02 1.83,-12.04 2.59,-17.92l0.15 0c0.77,5.73 1.52,11.6 2.67,18.07l5.03 28.49 -15.48 0zm81.25 41.12l6.48 0 -3.2 -99 -8.46 0 -9.15 47.89c-2.28,12.48 -4.12,23.35 -5.41,33.34l-0.23 0c-1.3,-10.29 -3.04,-21.15 -5.18,-33.34l-8.76 -47.89 -8.46 0 -3.58 99 6.33 0 1.37 -42.45c0.46,-14.83 0.84,-31.43 1,-43.76l0.15 0c1.45,11.74 3.51,24.53 5.94,38.47l8.31 47.15 5.02 0 9.07 -48.03c2.59,-13.65 4.72,-25.99 6.48,-37.59l0.23 0c-0.07,12.33 0.39,28.93 0.77,42.74l1.3 43.47zm43.29 -56.99l-19.96 0 0 -31.29 21.11 0 0 -10.72 -27.75 0 0 99 28.88 0 0 -10.72 -22.25 0 0 -35.69 19.96 0 0 -10.57zm17.14 56.99l0 -42.3c0,-16.45 -0.15,-28.35 -0.53,-40.83l0.23 -0.15c2.59,10.72 6.02,22.04 9.6,33.05l16.32 50.23 6.71 0 0 -99 -6.25 0 0 41.42c0,15.42 0.15,27.47 0.76,40.68l-0.15 0.15c-2.44,-10.14 -5.41,-20.56 -9.22,-32.16l-16.46 -50.09 -7.25 0 0 99 6.25 0zm53.66 0l6.7 0 0 -88.13 15.71 0 0 -10.87 -38.03 0 0 10.87 15.63 0 0 88.13zm46.86 -100.61c-13.71,0 -23.85,20.57 -23.85,52 0,29.96 9.53,50.23 23.09,50.23 13.11,0 23.85,-18.07 23.85,-52.14 0,-29.38 -9.07,-50.09 -23.09,-50.09zm-0.3 10.44c11.04,0 16.39,20.56 16.39,40.24 0,22.47 -5.95,41.13 -16.46,41.13 -10.45,0 -16.39,-18.95 -16.39,-40.1 0,-21.74 5.49,-41.27 16.46,-41.27zm48.16 89.88c3.36,0.74 7.33,1.18 12.04,1.18 9.99,0 17.91,-4.99 22.71,-14.24 4.8,-9.11 7.4,-22.33 7.4,-38.48 0,-16.01 -2.67,-27.47 -7.24,-35.54 -4.5,-8.08 -11.28,-12.34 -20.81,-12.34 -5.26,0 -10.06,0.88 -14.1,2.05l0 97.37zm6.64 -87.98c1.74,-0.73 4.34,-1.32 7.77,-1.32 14.02,0 20.88,14.83 20.8,38.18 0,26.73 -7.69,42.01 -21.88,42.01 -2.59,0 -5.02,-0.15 -6.7,-0.74l0 -78.14zm70.71 31.29l-19.96 0 0 -31.29 21.11 0 0 -10.72 -27.74 0 0 99 28.88 0 0 -10.72 -22.26 0 0 -35.69 19.96 0 0 -10.57zm27.06 56.99l6.64 0 0 -39.66c1.52,0.74 3.35,0.88 5.33,0.88 6.48,0 12.19,-3.67 15.7,-10.86 2.59,-5.14 3.96,-12.19 3.96,-21.15 0,-8.81 -1.67,-16.01 -4.49,-20.71 -3.04,-5.28 -7.84,-8.22 -14.4,-8.22 -5.33,0 -9.53,0.88 -12.73,1.9l0 97.82zm6.64 -88.56c1.14,-0.59 3.35,-1.03 6.24,-1.03 7.32,0 12.12,6.31 12.12,19.39 0,13.65 -4.87,21.15 -12.88,21.15 -2.21,0 -4.04,-0.3 -5.48,-1.03l0 -38.48zm60.51 31.57l-19.96 0 0 -31.29 21.11 0 0 -10.72 -27.75 0 0 99 28.88 0 0 -10.72 -22.25 0 0 -35.69 19.96 0 0 -10.57zm10.89 56.99l6.64 0 0 -42.89 6.25 0c6.02,0.44 8.76,5.58 10.29,19.24 1.45,12.34 2.59,20.86 3.43,23.65l6.86 0c-1.07,-3.82 -2.28,-13.37 -3.96,-27.17 -1.23,-10.29 -3.59,-17.33 -7.55,-19.97l0 -0.45c5.42,-3.52 9.69,-12.19 9.69,-25.26 0,-7.64 -1.46,-14.4 -4.05,-18.81 -3.2,-5.58 -7.77,-8.07 -14.86,-8.07 -4.56,0 -9.37,0.73 -12.73,2.05l0 97.67zm6.64 -88.71c1.07,-0.59 3.35,-1.18 6.55,-1.18 7.02,0.15 11.81,5.73 11.81,18.51 0,11.31 -4.49,18.8 -11.58,18.8l-6.78 0 0 -36.13zm78.95 88.71l6.48 0 -3.2 -99 -8.45 0 -9.15 47.89c-2.29,12.48 -4.12,23.35 -5.41,33.34l-0.23 0c-1.3,-10.29 -3.05,-21.15 -5.18,-33.34l-8.76 -47.89 -8.46 0 -3.58 99 6.32 0 1.38 -42.45c0.46,-14.83 0.84,-31.43 0.99,-43.76l0.16 0c1.45,11.74 3.5,24.53 5.94,38.47l8.3 47.15 5.03 0 9.07 -48.03c2.59,-13.65 4.72,-25.99 6.48,-37.59l0.23 0c-0.08,12.33 0.38,28.93 0.76,42.74l1.3 43.47zm16.62 -99l0 58.31c0,30.7 7.92,42.3 18.44,42.3 11.12,0 19.43,-12.49 19.43,-42.89l0 -57.73 -6.71 0 0 58.6c0,21.89 -4.88,31.58 -12.5,31.58 -6.86,0 -11.97,-9.4 -11.97,-31.58l0 -58.6 -6.7 0zm59.13 99l6.71 0 0 -88.13 15.7 0 0 -10.87 -38.02 0 0 10.87 15.62 0 0 88.13zm48.93 -31.14l5.49 31.14 7.09 0 -17.53 -99 -8 0 -17.45 99 6.86 0 5.34 -31.14 18.21 0zm-16.84 -9.99l5.03 -28.64c1,-6.02 1.83,-12.04 2.59,-17.92l0.15 0c0.77,5.73 1.52,11.6 2.67,18.07l5.03 28.49 -15.48 0z"/>
  </g>
 </g>
</svg>
